<svg width="318" height="318" viewBox="0 0 318 318" fill="none" xmlns="http://www.w3.org/2000/svg">
<path d="M318 159C318 246.813 246.813 318 159 318C71.1867 318 0 246.813 0 159C0 71.1867 71.1867 0 159 0C246.813 0 318 71.1867 318 159Z" fill="#D7FED9"/>
<path fill-rule="evenodd" clip-rule="evenodd" d="M79.5 131.175C79.5 128.012 80.7564 124.979 82.9928 122.743C85.2291 120.506 88.2623 119.25 91.425 119.25H170.925C174.088 119.25 177.121 120.506 179.357 122.743C181.594 124.979 182.85 128.012 182.85 131.175V139.125H205.579C208.577 139.125 211.465 140.255 213.668 142.289L234.664 161.667C235.874 162.784 236.839 164.14 237.5 165.648C238.16 167.157 238.5 168.785 238.5 170.432V202.725H214.65V194.775H230.55V170.432C230.55 169.883 230.436 169.34 230.216 168.837C229.996 168.334 229.674 167.883 229.27 167.51L208.274 148.128C207.54 147.451 206.578 147.075 205.579 147.075H182.85V194.775H190.8V202.725H123.225V194.775H174.9V131.175C174.9 130.121 174.481 129.11 173.736 128.364C172.99 127.619 171.979 127.2 170.925 127.2H91.425C90.3708 127.2 89.3597 127.619 88.6143 128.364C87.8688 129.11 87.45 130.121 87.45 131.175V194.775H99.375V202.725H79.5V131.175Z" fill="#3D7D40"/>
<path fill-rule="evenodd" clip-rule="evenodd" d="M111.3 206.7C113.408 206.7 115.43 205.862 116.921 204.371C118.412 202.881 119.25 200.858 119.25 198.75C119.25 196.641 118.412 194.619 116.921 193.128C115.43 191.638 113.408 190.8 111.3 190.8C109.191 190.8 107.169 191.638 105.678 193.128C104.187 194.619 103.35 196.641 103.35 198.75C103.35 200.858 104.187 202.881 105.678 204.371C107.169 205.862 109.191 206.7 111.3 206.7ZM111.3 214.65C115.517 214.65 119.561 212.975 122.543 209.993C125.525 207.011 127.2 202.967 127.2 198.75C127.2 194.533 125.525 190.489 122.543 187.507C119.561 184.525 115.517 182.85 111.3 182.85C107.083 182.85 103.039 184.525 100.057 187.507C97.0751 190.489 95.3999 194.533 95.3999 198.75C95.3999 202.967 97.0751 207.011 100.057 209.993C103.039 212.975 107.083 214.65 111.3 214.65V214.65ZM202.725 206.7C204.833 206.7 206.855 205.862 208.346 204.371C209.837 202.881 210.675 200.858 210.675 198.75C210.675 196.641 209.837 194.619 208.346 193.128C206.855 191.638 204.833 190.8 202.725 190.8C200.616 190.8 198.594 191.638 197.103 193.128C195.612 194.619 194.775 196.641 194.775 198.75C194.775 200.858 195.612 202.881 197.103 204.371C198.594 205.862 200.616 206.7 202.725 206.7ZM202.725 214.65C206.942 214.65 210.986 212.975 213.968 209.993C216.95 207.011 218.625 202.967 218.625 198.75C218.625 194.533 216.95 190.489 213.968 187.507C210.986 184.525 206.942 182.85 202.725 182.85C198.508 182.85 194.464 184.525 191.482 187.507C188.5 190.489 186.825 194.533 186.825 198.75C186.825 202.967 188.5 207.011 191.482 209.993C194.464 212.975 198.508 214.65 202.725 214.65V214.65ZM234.525 174.9H178.875V166.95H234.525V174.9ZM127.2 170.925V139.125H135.15V170.925H127.2ZM194.775 127.2C195.829 127.2 196.84 127.619 197.586 128.364C198.331 129.11 198.75 130.121 198.75 131.175V143.1H190.8V131.175C190.8 130.121 191.219 129.11 191.964 128.364C192.71 127.619 193.721 127.2 194.775 127.2Z" fill="#3D7D40"/>
<path fill-rule="evenodd" clip-rule="evenodd" d="M147.075 159H115.275V151.05H147.075V159ZM202.725 143.1H186.825V135.15H202.725V143.1ZM194.775 117.262C193.721 117.262 192.71 116.844 191.964 116.098C191.219 115.353 190.8 114.342 190.8 113.287V107.325C190.8 106.271 191.219 105.26 191.964 104.514C192.71 103.769 193.721 103.35 194.775 103.35C195.829 103.35 196.84 103.769 197.586 104.514C198.331 105.26 198.75 106.271 198.75 107.325V113.287C198.75 114.342 198.331 115.353 197.586 116.098C196.84 116.844 195.829 117.262 194.775 117.262ZM208.687 131.175C208.687 130.121 209.106 129.11 209.852 128.364C210.597 127.619 211.608 127.2 212.662 127.2H218.625C219.679 127.2 220.69 127.619 221.436 128.364C222.181 129.11 222.6 130.121 222.6 131.175C222.6 132.229 222.181 133.24 221.436 133.986C220.69 134.731 219.679 135.15 218.625 135.15H212.662C211.608 135.15 210.597 134.731 209.852 133.986C209.106 133.24 208.687 132.229 208.687 131.175ZM205.742 119.93C205.035 119.148 204.667 118.118 204.719 117.066C204.771 116.013 205.239 115.025 206.02 114.317L209.653 111.026C210.04 110.674 210.492 110.401 210.984 110.224C211.476 110.047 211.998 109.969 212.52 109.994C213.043 110.019 213.555 110.147 214.028 110.37C214.5 110.593 214.925 110.908 215.276 111.295C215.627 111.682 215.898 112.135 216.074 112.628C216.25 113.12 216.327 113.643 216.3 114.165C216.274 114.687 216.145 115.199 215.92 115.671C215.696 116.143 215.38 116.567 214.992 116.917L211.359 120.208C210.972 120.559 210.519 120.83 210.028 121.005C209.536 121.181 209.014 121.259 208.493 121.233C207.971 121.207 207.46 121.078 206.988 120.855C206.516 120.631 206.092 120.317 205.742 119.93Z" fill="#3D7D40"/>
</svg>
