<svg width="166" height="109" viewBox="0 0 166 109" fill="none" xmlns="http://www.w3.org/2000/svg">
<g clip-path="url(#clip0_10_698)">
<path fill-rule="evenodd" clip-rule="evenodd" d="M0.0183105 0H165.982V109H0.0183105V0Z" fill="#F9DC30"/>
<path fill-rule="evenodd" clip-rule="evenodd" d="M77.3409 57.0251L71.7065 53.2573L97.0789 36.327L82.9759 26.9154L75.9321 31.6295L81.5829 35.3649L68.8888 43.8462L57.6194 36.3106L82.9759 19.3962L108.348 36.3106L77.3409 57.0251V57.0251ZM68.8888 62.6689L63.2543 58.9011L57.6194 62.6689V70.1886L68.8888 62.6689ZM102.713 30.6833L97.0789 26.9154L108.348 19.3962V26.9154L102.713 30.6833V30.6833Z" fill="#1E447F"/>
<path fill-rule="evenodd" clip-rule="evenodd" d="M90.0355 57.9555L84.3846 54.1713L97.0624 45.7064L108.348 53.2574L82.9758 70.1887L57.6193 53.2574L88.6102 32.5593L94.2452 36.3272L68.8887 53.2574L82.9758 62.669L90.0355 57.9555V57.9555ZM26.4683 89.2991C27.8608 89.2991 31.335 89.1712 31.335 85.9324C31.335 84.2003 30.7267 82.9818 28.3896 82.7096V82.6772C30.1826 82.4045 31.0791 81.3468 31.0791 79.8721C31.0791 77.1624 28.9978 76.585 26.5007 76.585H20.6575V89.2991H26.4683ZM23.9388 81.7963V78.5416H25.9719C27.0761 78.5416 27.8608 79.231 27.8608 80.1607C27.8608 81.3951 26.8684 81.7804 26.1483 81.7804H24.9959L23.9388 81.7963V81.7963ZM24.9959 83.7359H25.8601C27.5254 83.7359 28.0372 84.4258 28.0372 85.5477C28.0372 87.3276 26.4683 87.3435 25.7801 87.3435H23.9394V83.7519L24.9959 83.7359V83.7359ZM44.5892 89.3155V81.6997H44.621L48.0947 89.3155H51.5843V78.894H49.3435V86.1091H49.2953L45.9175 78.894H42.3479V89.3155H44.5892ZM57.1233 89.6042C59.6682 89.6042 61.0771 88.6904 61.0771 85.8528H58.3717C58.3234 86.7024 58.3876 88.0169 57.1233 88.0169C55.5868 88.0169 55.3785 86.8468 55.3785 84.1212C55.3785 81.3951 55.5868 80.225 57.1233 80.225C57.9234 80.225 58.244 80.754 58.244 82.1646H60.9335C61.0453 79.888 59.9088 78.6377 57.1239 78.6377C52.5936 78.6377 52.5936 81.3155 52.5936 84.1212C52.5931 86.9105 52.5931 89.6042 57.1233 89.6042V89.6042ZM33.8799 89.3155L34.6164 87.0065H38.2983L39.0025 89.3155H41.8361L38.3465 78.894H34.7923L31.2227 89.3155H33.8799V89.3155ZM37.7218 85.4039H35.1446L36.3771 80.8984H36.4253L37.7218 85.4039V85.4039ZM66.2956 88.0164C64.7426 88.0164 64.5508 86.8463 64.5508 84.1207C64.5508 81.3946 64.7426 80.2244 66.2956 80.2244C67.8321 80.2244 68.0404 81.3946 68.0404 84.1207C68.0404 86.8463 67.8321 88.0164 66.2956 88.0164V88.0164ZM66.2956 89.6042C70.8258 89.6042 70.8258 86.911 70.8258 84.1212C70.8258 81.3155 70.8258 78.6377 66.2956 78.6377C61.7654 78.6377 61.7653 81.3155 61.7653 84.1212C61.7653 86.9105 61.7654 89.6042 66.2956 89.6042ZM137.05 89.3155V78.894H134.361V89.3155H137.05ZM145.342 89.3155V87.7277H141.612V78.894H138.923V89.3155H145.342ZM101.977 89.2991C103.37 89.2991 106.844 89.1712 106.844 85.9483C106.844 84.2008 106.236 82.9824 103.898 82.7096V82.6772C105.691 82.4045 106.572 81.3468 106.572 79.8721C106.572 77.1624 104.507 76.585 102.009 76.585H96.1664V89.2991H101.977V89.2991ZM99.4472 81.8122V78.557H101.481C102.585 78.557 103.369 79.2469 103.369 80.1767C103.369 81.411 102.377 81.7963 101.657 81.7963H100.504L99.4472 81.8122V81.8122ZM100.504 83.7519H101.368C103.034 83.7519 103.545 84.4412 103.545 85.5636C103.545 87.3435 101.977 87.3753 101.288 87.3753H99.4467V83.7837L100.504 83.7519V83.7519ZM76.9244 80.4813H78.3173C80.2062 80.4813 80.2062 82.1646 80.2062 84.0888C80.2062 86.7184 79.8862 87.7123 78.2373 87.7123H76.9244V80.4813V80.4813ZM74.2036 89.2991H78.6379C83.264 89.2991 82.9604 85.6278 82.9604 84.0246C82.9604 80.77 82.3039 78.8616 78.7338 78.8616H74.2036V89.2991V89.2991ZM88.4184 88.0328C86.8654 88.0328 86.6577 86.8627 86.6577 84.1531C86.6577 81.4434 86.8659 80.2727 88.4184 80.2727C89.955 80.2727 90.1632 81.4429 90.1632 84.1531C90.1632 86.8627 89.955 88.0328 88.4184 88.0328ZM88.4184 89.6042C92.9486 89.6042 92.9486 86.911 92.9486 84.1536C92.9486 81.3479 92.9486 78.686 88.4184 78.686C83.8882 78.686 83.8882 81.3479 83.8882 84.1536C83.8882 86.9105 83.8882 89.6042 88.4184 89.6042ZM122.227 85.4994H119.649L120.882 81.0104H120.914L122.227 85.4994ZM129.463 89.3155C131.416 89.3155 133.384 89.0751 133.384 86.3819C133.384 83.1113 128.246 83.5762 128.246 81.6037C128.246 80.8825 128.726 80.4977 129.559 80.4977H133.049V78.8946H129.254C126.133 78.8946 125.365 80.1448 125.365 81.7804C125.365 84.8748 130.519 84.6821 130.519 86.5581C130.519 87.2634 130.087 87.7282 129.223 87.7282H125.813L122.852 78.8946H119.298L116.144 88.0976L114.207 84.2979C115.713 84.0575 116.32 83.1915 116.32 81.6207C116.336 79.8567 115.152 78.8946 113.311 78.8946H107.916V89.316H110.621V80.4983H112.222C113.071 80.4983 113.631 81.0597 113.631 82.0855C113.631 82.9511 113.118 83.6563 112.302 83.624H111.197L114.095 89.316H118.385L119.122 87.007H122.788L123.508 89.316H129.463V89.3155V89.3155Z" fill="#1E447F"/>
</g>
<defs>
<clipPath id="clip0_10_698">
<rect width="166" height="109" fill="white"/>
</clipPath>
</defs>
</svg>
