<svg width="938" height="929" viewBox="0 0 938 929" fill="none" xmlns="http://www.w3.org/2000/svg">
<g opacity="0.2">
<path d="M835.787 351.795C837.566 358.434 837.407 366.977 835.063 378.923C828.543 410.708 794.11 450.737 757.683 493.02C737.691 516.285 717.003 540.311 700.907 563.201C670.216 598.55 655.891 648.377 641.989 696.61C631.849 731.849 622.234 765.132 606.832 793.041L606.798 793.098C594.67 814.209 580.727 826.303 564.201 830.063C531.952 837.415 494.605 811.75 451.362 781.982L447.202 779.133C415.023 757.097 372.59 729.978 309.675 691.107L304.485 687.77C249.703 652.594 181.518 608.784 129.489 542.307C15.2587 411.84 37.2988 264.96 88.2534 206.798C149.217 144.043 227.261 127.14 386.676 142.109C552.923 157.969 703.216 251.505 760.101 290.988C779.962 308.063 796.102 317.778 807.885 324.84C822.783 333.837 832.54 339.675 835.787 351.795ZM601.308 790.319C616.374 763.025 625.874 730.059 635.959 695.17C650.009 646.372 664.551 595.866 695.938 559.757C712.022 536.822 732.826 512.67 752.899 489.335C788.781 447.628 822.681 408.219 828.918 377.99C834.68 348.223 827.055 343.628 804.414 329.973C792.444 322.77 776.011 312.895 756.022 295.711C699.77 256.726 550.601 163.845 385.837 148.113C228.722 133.339 152.04 149.733 92.8051 210.735C43.3925 267.195 22.2531 410.538 134.322 538.529C185.868 604.323 253.572 647.832 307.944 682.784L313.123 686.076C376.096 724.979 418.588 752.131 450.837 774.243L454.997 777.092C497.021 806.04 533.326 830.982 562.8 824.277C577.532 820.903 590.092 809.8 601.308 790.319Z" fill="#91F195"/>
<path d="M795.984 372.155C798.444 381.334 797.97 391.872 796.098 406.7L796.077 406.992C789.483 436.266 762.442 465.289 733.846 495.97C714.284 516.923 694.119 538.612 677.9 562.537C650.544 597.471 632.564 637.007 615.17 675.192C603.514 700.856 592.479 725.112 579.039 747.291L578.75 747.702C537.915 796.467 508.95 777.104 456.339 742.015C450.621 738.198 444.598 734.177 438.19 730.021C426.958 721.474 414.557 712.476 401.405 702.916C342.927 660.468 262.845 602.273 185.912 510.521C100.265 396.128 110.839 287.183 159.278 229.885C210.21 171.824 289.184 167.901 426.379 181.04C566.166 198.26 672.771 269.501 730.034 307.785L736.42 312.043C775.284 341.504 791.209 354.333 795.984 372.155ZM789.908 405.971C794.953 365.508 789.751 360.263 732.667 316.869L726.457 312.707C669.628 274.737 563.82 204.047 425.621 186.974C290.726 174.03 213.174 177.668 164.12 233.602C117.234 289.051 107.319 395.05 190.955 506.782C267.312 597.876 347.065 655.778 405.263 698.109C418.414 707.67 430.816 716.667 441.977 725.138C448.21 729.198 454.233 733.219 459.997 737.023C512.667 772.145 536.757 788.229 573.804 744.157C586.989 722.333 597.885 698.306 609.461 672.902C626.958 634.355 645.112 594.533 672.804 559.175C689.161 535.021 709.523 513.137 729.236 492C757.17 462.021 783.586 433.644 789.908 405.971Z" fill="#91F195"/>
<path d="M762.852 389.439C765.991 401.157 764.523 413.203 760.695 428.746C752.498 455.203 727.866 481.288 701.843 508.891C686.349 525.269 670.369 542.254 656.428 560.507C633.91 586.838 616.343 615.614 599.307 643.388C585.335 666.187 572.171 687.718 557.493 705.834L557.261 706.088C517.188 745.575 487.718 723.768 434.193 684.148L433.572 683.694L424.412 676.168C372.408 633.275 301.169 574.524 236.994 485.084C166.33 378.138 186.241 292.669 224.684 251.947C265.679 208.44 333.621 198.208 459.189 216.612C547.107 230.97 633.094 269.818 714.752 332.033C744.414 356.606 758.363 372.686 762.852 389.439ZM552.651 702.118C567.016 684.324 580.087 663.008 593.875 640.45C611.003 612.46 628.766 583.488 651.469 556.917C665.469 538.505 681.623 521.425 697.233 504.922C722.804 477.869 746.925 452.303 754.664 427.306C763.462 391.902 759.017 376.618 710.707 336.699C629.882 275.168 544.854 236.731 458.034 222.557C334.861 204.514 268.56 214.163 229.201 255.942C189.32 298.195 177.839 384.366 242.144 481.746C305.825 570.459 376.688 628.928 428.481 671.591L438.016 679.399C491.916 719.301 516.592 737.569 552.651 702.118Z" fill="#91F195"/>
<path d="M731.905 402.22C735.415 415.32 734.002 428.879 728.451 445.075L728.428 445.177C719.146 469.823 695.74 493.955 671.011 519.493C659.54 531.306 647.733 543.544 636.769 556.319C620.384 573.843 605.848 592.303 591.846 610.144C574.635 632.043 558.362 652.784 541.275 668.06C504.229 696.66 475.589 677.018 432.707 641.327C391.193 603.838 330.562 544.966 282.844 465.681C243.203 388.387 240.91 323.147 276.292 281.813C314.397 237.218 390.592 225.347 485.359 249.236C595.3 271.398 672.608 332.294 693.654 350.437C715.268 369.955 727.488 385.735 731.905 402.22ZM722.535 443.318C732.857 413.045 730.537 392.081 689.363 354.93C668.646 337.081 592.345 276.965 483.784 255.102C391.378 231.823 317.524 242.922 281.099 285.586C247.398 324.99 250.016 387.898 288.417 462.803C335.663 541.259 395.836 599.728 437.011 636.879C481.124 673.625 505.427 688.268 537.338 663.623C553.81 648.846 569.898 628.346 586.958 606.63C601.077 588.663 615.635 570.101 632.148 552.496C643.1 539.675 655.047 527.4 666.553 515.53C690.747 490.422 713.677 466.751 722.535 443.318Z" fill="#91F195"/>
<path d="M703.271 412.425C706.996 426.327 705.435 440.451 699.018 456.401L698.788 456.845C658.577 522.109 551.406 615.251 530.355 633.26L529.844 633.588C497.673 651.856 471.909 636.984 435.633 603.2C402.926 570.99 357.108 518.56 324.309 451.514C296.136 389.246 297.513 336.585 328.169 303.155C362.234 266.042 426.778 257.294 505.253 279.101C580.026 296.79 640.948 336.052 672.993 366.91C689.429 383.136 699.32 397.677 703.271 412.425ZM693.309 454.111C705.462 423.586 698.733 401.082 668.503 371.217C637.056 340.915 577.177 302.377 503.513 284.915C428.441 264.059 364.676 272.36 332.814 307.068C303.85 338.611 302.822 389.03 330.012 448.935C362.444 515.172 407.803 567.009 440.123 598.892C474.815 631.238 497.758 644.717 526.558 628.595C587.027 576.861 662.506 503.96 693.309 454.111Z" fill="#91F195"/>
<path d="M676.93 422.063C680.917 436.945 679.194 451.208 671.788 463.651C642.676 513.286 570.09 576.29 523.105 601.727C512.025 606.797 499.948 607.025 487.153 602.526C447.717 588.643 400.851 528.758 361.797 442.28C342.955 392.65 347.069 350.764 373.378 324.23C403.191 294.178 456.58 287.798 519.796 306.722C600.111 331.857 657.877 372.203 674.435 414.613C675.453 417.11 676.273 419.612 676.93 422.063ZM361.46 421.072C363.107 427.221 365.141 433.505 367.606 439.912C405.928 524.771 451.491 583.525 489.418 596.809C500.669 600.767 511.066 600.607 520.365 596.348C566.384 571.409 637.81 509.48 666.402 460.701C674.038 447.814 674.811 432.612 668.624 416.791C652.706 376.024 596.337 336.975 517.823 312.409C457.869 294.473 405.551 300.375 377.861 328.282C356.667 349.673 351.038 382.174 361.46 421.072Z" fill="#91F195"/>
<path d="M650.926 427.551C654.627 441.363 653.225 454.776 646.726 466.689C623.687 509.157 564.172 558.678 519.395 572.587L519.301 572.612C477.648 584.013 425.629 526.893 395.702 436.824C384.278 398.099 390.14 365.535 412.319 345.026C437.736 321.501 480.516 316.914 529.73 332.427C589.681 351.843 633.967 384.388 648.229 419.534C649.307 422.254 650.222 424.922 650.926 427.551ZM517.656 566.845C561.083 553.298 618.843 505.25 641.202 463.967C648.07 451.382 648.473 436.852 642.408 421.858C628.774 388.311 585.872 357.019 527.617 338.15C480.695 323.361 440.176 327.437 416.523 349.344C396.155 368.221 390.805 398.595 401.608 435.002C430.036 520.411 479.952 577.14 517.656 566.845Z" fill="#91F195"/>
<path d="M626.105 432.053C629.341 444.127 628.361 455.947 623.092 466.671C604.75 504.298 556.872 540.385 518.496 545.56C481.503 549.933 441.076 501.216 426.441 434.842C420.453 405.597 427.168 381.066 445.282 365.705C466.044 348.108 498.969 344.776 535.569 356.649C578.461 370.752 611.183 395.746 623.113 423.495C624.379 426.355 625.341 429.201 626.105 432.053ZM435.048 443.662C450.638 501.853 485.887 543.362 517.841 539.574C553.664 534.75 600.228 499.541 617.487 464.209C623.159 452.565 623.115 439.349 617.362 425.895C606.083 399.644 574.699 375.915 533.444 362.328C499.031 351.159 468.378 354.024 449.324 370.162C432.998 383.992 427.041 406.506 432.524 433.498C433.339 436.909 434.153 440.321 435.048 443.662Z" fill="#91F195"/>
<path d="M602.276 435.957C604.879 445.67 604.306 455.279 600.555 464.211C587.518 495.164 551.338 520.284 519.898 520.209C488.748 519.913 460.095 482.701 454.666 435.589C452.405 414.658 458.893 397.112 472.949 386.182C488.863 373.799 512.61 371.447 538.102 379.706C567.23 389.236 589.449 406.538 599.026 427.181C600.397 430.061 601.488 433.016 602.276 435.957ZM520.083 514.19C548.63 514.277 582.845 490.399 594.789 462.079C599.035 452.011 598.536 440.827 593.357 429.703C584.55 410.812 563.117 394.206 536.011 385.329C512.602 377.753 491.058 379.753 476.828 390.778C464.503 400.336 458.855 415.985 460.893 434.78C465.857 478.292 492.434 513.911 520.083 514.19Z" fill="#91F195"/>
<path d="M579.153 439.525C580.956 446.253 580.881 453.246 578.494 459.998C570.693 482.527 545.676 498.783 522.775 496.276C499.956 493.699 481.069 467.767 480.695 438.403C480.508 424.842 485.902 413.464 495.791 406.373C506.691 398.581 522.04 396.951 537.848 401.884C559.561 408.72 574.832 423.396 579.153 439.525ZM572.625 458.228C579.359 438.802 562.884 416.091 535.828 407.583C521.984 403.27 508.687 404.541 499.472 411.165C491.257 417.043 486.786 426.646 486.937 438.21C487.294 464.714 503.75 488.098 523.626 490.317C543.748 492.518 565.719 478.13 572.625 458.228Z" fill="#91F195"/>
<path d="M556.559 443.383C557.538 447.037 557.607 450.839 556.615 454.591C553.214 467.441 539.738 475.875 526.524 473.352C513.473 470.879 503.832 457.083 505.065 442.665C505.653 435.726 508.979 429.868 514.501 426.239C520.313 422.39 528.045 421.416 535.679 423.621C546.47 426.794 554.184 434.516 556.559 443.383ZM512.073 451.484C514.234 459.549 520.33 466.081 527.913 467.535C537.856 469.408 548.041 463.049 550.573 453.297C553.164 443.577 545.596 432.854 533.741 429.441C527.838 427.728 522.263 428.362 517.939 431.24C514.033 433.815 511.666 438.031 511.229 443.114C511.048 445.98 511.357 448.811 512.073 451.484Z" fill="#91F195"/>
</g>
</svg>
