<svg width="1893" height="542" viewBox="0 0 1893 542" fill="none" xmlns="http://www.w3.org/2000/svg">
<g opacity="0.3">
<path d="M724.112 541.115C717.35 541.115 710.768 540.673 704.442 539.791C691.176 537.942 678.92 534.144 668.013 528.503C656.291 522.441 646.01 514.182 637.453 503.955C620.254 483.399 611.65 458.782 603.329 434.974C601.694 430.299 600.004 425.466 598.287 420.776C586.578 388.809 571.734 360.807 552.912 335.172C515.363 284.033 462.558 240.39 400.201 208.96C328.087 172.615 250.552 154.509 181.877 157.981C141.514 160.022 88.1829 179.433 64.3479 212.584C50.2029 232.259 49.0623 254.092 61.0517 275.721L60.8136 275.813C54.5272 264.469 51.7882 253.098 52.675 242.013C53.4886 231.845 57.3395 221.906 64.123 212.471C74.9116 197.465 92.7035 184.165 115.576 174.008C136.711 164.623 160.25 158.853 181.862 157.761C217.801 155.946 256.025 159.974 295.47 169.738C331.226 178.589 366.509 191.721 400.337 208.771C462.731 240.218 515.567 283.885 553.137 335.054C571.97 360.707 586.821 388.724 598.539 420.708C600.257 425.398 601.947 430.234 603.58 434.909C611.894 458.699 620.493 483.299 637.667 503.824C654.276 523.677 676.759 535.704 704.487 539.569C742.885 544.923 789.514 533.726 829.216 509.614C886.429 474.868 926.136 424.293 964.537 375.385C971.268 366.812 978.227 357.947 985.117 349.388C1003.01 327.16 1027.23 298.358 1056.03 272.698C1085.46 246.471 1115.36 227.201 1147.46 213.786C1167.1 205.574 1187.92 200.042 1209.34 197.343C1229.12 194.849 1250.05 194.694 1271.56 196.879C1308.46 200.629 1348.22 211.222 1393.1 229.26C1481.47 264.781 1569.75 307.895 1655.47 357.408C1736.96 404.468 1816.87 457.72 1893 515.679L1892.82 515.84C1735.02 395.693 1566.85 299.339 1392.98 229.456C1294.76 189.974 1216.78 185.055 1147.58 213.979C1077.17 243.404 1027.99 296.506 985.335 349.507C978.446 358.065 971.488 366.929 964.757 375.502C926.345 424.428 886.625 475.018 829.372 509.788C810.872 521.024 790.058 529.789 769.185 535.132C758.158 537.955 747.197 539.8 736.601 540.618C732.379 540.951 728.212 541.115 724.112 541.115Z" fill="#FFE492"/>
<path d="M730.724 528.925C713.479 528.925 697.505 526.194 683.229 520.803C667.31 514.792 653.574 505.477 642.398 493.119C641.409 492.025 640.428 490.893 639.481 489.752C622.466 469.286 613.48 444.988 604.792 421.49C603.034 416.741 601.218 411.829 599.376 407.063C588.407 378.683 575.199 353.669 558.992 330.597C556.996 327.757 554.929 324.911 552.844 322.138C514.744 271.439 461.51 228.348 398.897 197.524C326.262 161.799 248.507 144.442 179.955 148.653C139.885 151.141 86.7998 170.87 62.8628 203.766C48.5294 223.465 46.9074 245.342 58.167 267.034L57.9263 267.121C52.0244 255.751 49.5994 244.358 50.7217 233.261C51.7524 223.069 55.7602 213.107 62.6378 203.653C73.5364 188.673 91.2759 175.358 113.934 165.148C134.875 155.711 158.313 149.776 179.932 148.436C215.827 146.231 254.092 149.874 293.663 159.263C329.506 167.769 364.956 180.579 399.028 197.337C461.677 228.179 514.94 271.295 553.064 322.022C555.149 324.797 557.219 327.646 559.215 330.489C575.432 353.576 588.648 378.602 599.622 406.997C601.467 411.764 603.282 416.676 605.04 421.427C613.726 444.91 622.704 469.19 639.695 489.628C640.64 490.764 641.621 491.896 642.607 492.989C665.702 518.533 697.435 528.925 730.805 528.925C730.988 528.925 731.169 528.925 731.352 528.925C731.143 528.923 730.933 528.925 730.724 528.925ZM737.842 528.773C768.866 527.447 800.879 517.53 828.343 502.776C887.583 470.82 930.16 421.464 971.337 373.733C973.032 371.766 974.727 369.803 976.423 367.84C980.145 363.531 984.558 358.429 989.063 353.286C1009.27 330.223 1033.73 303.388 1061.9 279.235C1091.87 253.534 1121.81 234.462 1153.43 220.927C1172.86 212.62 1193.39 206.767 1214.46 203.533C1233.98 200.536 1254.6 199.69 1275.76 201.015C1312.31 203.307 1351.61 211.995 1395.9 227.578C1439.09 242.747 1474.59 257.027 1507.62 272.516C1554.42 294.48 1598.99 319.787 1636.43 341.645C1723.45 392.607 1808.84 450.475 1890.22 513.643L1890.04 513.802C1808.67 450.643 1723.29 392.779 1636.28 341.823C1598.85 319.968 1554.28 294.665 1507.5 272.708C1474.47 257.223 1438.98 242.948 1395.8 227.783C1299.31 193.835 1222.33 191.718 1153.55 221.123C1082.16 251.675 1031.32 305.43 989.275 353.417C984.768 358.56 980.357 363.659 976.634 367.97C974.939 369.931 973.244 371.897 971.549 373.864C930.359 421.61 887.767 470.983 828.484 502.963C813.784 510.859 798.143 517.131 781.991 521.604C766.957 525.763 752.136 528.168 737.842 528.773Z" fill="#FFE492"/>
<path d="M738.015 517.015C735.94 517.015 733.879 516.978 731.833 516.902C714.603 516.268 698.659 512.98 684.443 507.123C668.896 500.718 655.425 491.231 644.409 478.924C643.431 477.827 642.455 476.693 641.513 475.552C624.689 455.186 615.329 431.213 606.28 408.032C604.394 403.2 602.442 398.203 600.464 393.354C588.954 365.07 575.397 340.257 559.015 317.496C556.988 314.682 554.89 311.86 552.773 309.109C514.121 258.851 460.458 216.314 397.588 186.095C324.435 150.99 246.461 134.379 178.03 139.331C139.5 142.162 86.5693 160.766 61.4028 194.918C46.8627 214.649 44.7463 236.585 55.2812 258.353L55.0379 258.434C49.518 247.029 47.412 235.61 48.7724 224.493C50.0229 214.268 54.1981 204.281 61.1804 194.805C72.194 179.859 89.876 166.54 112.317 156.283C133.062 146.8 156.392 140.704 178.006 139.115C213.859 136.523 252.166 139.779 291.86 148.794C327.792 156.955 363.407 169.441 397.719 185.908C460.625 216.146 514.317 258.708 552.993 308.993C555.11 311.746 557.21 314.569 559.238 317.388C575.627 340.161 589.192 364.99 600.708 393.289C602.685 398.14 604.637 403.137 606.523 407.969C615.57 431.137 624.922 455.092 641.725 475.435C642.667 476.575 643.637 477.707 644.616 478.8C689.379 528.809 768.709 523.439 827.468 495.936C889.181 466.797 935.044 418.366 979.397 371.53L979.852 371.049C984.147 366.509 988.589 361.816 993.011 357.183C1039.66 308.301 1090.94 258.066 1159.4 228.064C1178.62 219.659 1198.87 213.487 1219.59 209.719C1238.86 206.215 1259.17 204.677 1279.96 205.147C1316.22 205.965 1355.06 212.751 1398.72 225.892C1444.59 239.654 1479.11 252.303 1510.65 266.908C1555.59 287.76 1599.12 314.11 1637.52 337.358C1723.03 389.398 1807.12 448.021 1887.45 511.596L1887.27 511.752C1806.94 448.184 1722.86 389.568 1637.37 337.532C1598.97 314.288 1555.45 287.943 1510.52 267.098C1479 252.496 1444.49 239.852 1398.63 226.095C1304.01 197.61 1228.03 198.296 1159.52 228.254C1091.11 258.236 1039.85 308.449 993.215 357.313C988.793 361.947 984.351 366.641 980.056 371.179L979.601 371.66C957.497 395 934.644 419.134 909.964 440.691C882.228 464.916 855.285 483.048 827.594 496.121C798.624 509.68 767.066 517.015 738.015 517.015Z" fill="#FFE492"/>
<path d="M1884.5 509.7C1805.21 445.722 1722.43 386.353 1638.46 333.24C1634.9 331.007 1631.34 328.763 1627.76 326.513C1591.39 303.613 1553.78 279.934 1513.56 261.487C1474.54 243.64 1435 232.728 1401.46 224.407C1308.88 201.299 1233.91 204.787 1165.51 235.383C1095.29 266.884 1040.88 319.185 997.162 361.211C994.538 363.733 991.92 366.26 989.296 368.789C987.36 370.657 985.421 372.524 983.483 374.389C958.591 398.342 935.949 419.758 910.931 439.3C882.351 461.623 854.804 477.972 826.71 489.283C800.382 499.884 772.256 505.493 746.095 505.495C741.329 505.495 736.633 505.31 732.018 504.933C715.171 503.56 699.574 499.701 685.662 493.464C670.481 486.658 657.277 476.991 646.413 464.729C645.442 463.63 644.474 462.494 643.538 461.351C626.913 441.091 617.189 417.455 607.787 394.599C605.762 389.676 603.666 384.583 601.547 379.641C589.487 351.446 575.58 326.831 559.036 304.388C556.977 301.595 554.845 298.799 552.7 296.072C513.493 246.256 459.403 204.272 396.28 174.655C322.609 140.17 244.417 124.311 176.107 129.996C129.407 133.959 81.6536 156.998 59.9769 186.02C45.2092 205.793 42.5904 227.798 52.3981 249.658L52.1522 249.734C47.0169 238.289 45.2274 226.834 46.8337 215.689C48.3118 205.427 52.6597 195.407 59.7545 185.905C70.8832 171.003 88.5077 157.684 110.723 147.389C131.27 137.868 154.48 131.613 176.081 129.78C211.892 126.799 250.238 129.669 290.055 138.309C326.073 146.127 361.858 158.291 396.411 174.464C459.573 204.097 513.692 246.106 552.922 295.952C555.07 298.681 557.202 301.48 559.261 304.272C575.816 326.728 589.728 351.356 601.796 379.565C603.915 384.509 606.01 389.6 608.035 394.525C617.432 417.368 627.151 440.989 643.755 461.225C644.691 462.365 645.657 463.499 646.625 464.596C693.356 517.339 772.782 510.751 826.597 489.085C890.803 463.234 939.936 415.958 983.287 374.245C985.225 372.378 987.161 370.511 989.099 368.646C991.721 366.117 994.342 363.59 996.966 361.067C1021.92 337.079 1046.56 313.768 1073.66 292.287C1104.81 267.583 1134.82 248.907 1165.39 235.192C1184.4 226.684 1204.37 220.192 1224.72 215.898C1243.75 211.882 1263.75 209.654 1284.18 209.271C1320.2 208.596 1358.59 213.48 1401.54 224.199C1435.08 232.523 1474.65 243.44 1513.69 261.297C1553.92 279.751 1591.54 303.437 1627.92 326.341C1631.5 328.591 1635.06 330.835 1638.62 333.068C1722.6 386.185 1805.39 445.561 1884.68 509.545L1884.5 509.7Z" fill="#FFE492"/>
<path d="M1881.73 507.648C1801.99 442.039 1720.51 381.914 1639.55 328.947C1634.71 325.778 1629.75 322.512 1624.96 319.354C1590.63 296.737 1555.14 273.349 1516.59 255.875C1478.1 238.488 1438.22 229.356 1404.29 222.718C1313.96 204.878 1239.99 211.168 1171.49 242.512C1106.15 272.518 1054.96 317.639 1005.46 361.273L1000.02 366.063C995.726 369.848 991.287 373.759 986.91 377.596C937.357 420.98 887.751 461.642 825.826 482.439C810.799 487.486 795.37 490.984 779.961 492.84C763.414 494.832 747.341 494.86 732.186 492.923C715.726 490.818 700.482 486.398 686.879 479.784C672.074 472.587 659.135 462.743 648.425 450.529C647.46 449.423 646.5 448.285 645.571 447.145C629.15 427.004 619.075 403.717 609.333 381.196C607.159 376.171 604.909 370.973 602.639 365.926C590.019 337.818 575.766 313.401 559.066 291.28C556.978 288.516 554.814 285.742 552.635 283.036C512.876 233.663 458.36 192.231 394.978 163.217C320.786 129.357 242.375 114.244 174.182 120.667C127.909 125.117 80.3722 148.318 58.5856 177.087C43.572 196.91 40.4354 219 49.5131 240.971L49.2646 241.043C44.5138 229.547 43.0462 218.049 44.901 206.871C46.6119 196.566 51.1403 186.507 58.3607 176.974C69.6097 162.123 87.1714 148.816 109.152 138.491C129.494 128.935 152.578 122.53 174.15 120.453C209.92 117.084 248.305 119.568 288.248 127.834C324.355 135.307 360.305 147.147 395.101 163.028C458.52 192.057 513.067 233.515 552.85 282.917C555.029 285.624 557.195 288.401 559.283 291.165C575.994 313.297 590.254 337.727 602.879 365.85C605.15 370.897 607.4 376.097 609.574 381.122C619.311 403.63 629.38 426.907 645.783 447.023C646.709 448.159 647.669 449.295 648.632 450.401C694.238 502.41 770.015 500.949 825.724 482.239C887.599 461.459 937.184 420.813 986.717 377.448C991.093 373.611 995.533 369.7 999.826 365.915L1005.26 361.125C1029.56 339.707 1054.69 317.558 1081.98 296.954C1112.88 273.619 1142.12 255.749 1171.36 242.32C1190.18 233.706 1209.86 226.894 1229.85 222.076C1248.64 217.544 1268.33 214.624 1288.38 213.394C1324.24 211.194 1362.17 214.175 1404.34 222.504C1438.29 229.147 1478.19 238.281 1516.71 255.683C1555.28 273.164 1590.78 296.558 1625.12 319.182C1629.91 322.34 1634.87 325.604 1639.71 328.775C1720.68 381.746 1802.17 441.876 1881.91 507.492L1881.73 507.648Z" fill="#FFE492"/>
<path d="M1878.95 505.598C1799.9 439.26 1719.72 378.382 1640.64 324.658C1634.7 320.621 1628.61 316.422 1622.71 312.363C1590.24 289.99 1556.66 266.855 1519.62 250.269C1481.31 233.18 1441.25 225.9 1407.11 221.033C1319.29 208.321 1246.32 217.414 1177.46 249.646C1117.37 277.894 1068.04 317.926 1020.32 356.64C1015.3 360.714 1010.11 364.925 1005.05 369.006C999.109 373.798 994.57 377.44 990.335 380.809C967.651 398.842 940.642 419.607 912.3 436.879C882.265 455.18 853.69 467.847 824.939 475.603C809.821 479.682 794.457 482.254 779.27 483.247C762.964 484.313 747.176 483.53 732.348 480.916C716.283 478.085 701.395 473.103 688.092 466.11C673.667 458.527 660.998 448.507 650.434 436.333C649.482 435.229 648.527 434.089 647.601 432.944C631.397 412.939 620.985 390.01 610.913 367.837C608.577 362.694 606.162 357.378 603.727 352.213C590.539 324.183 575.939 299.967 559.089 278.174C556.97 275.434 554.775 272.686 552.564 270.002C512.253 221.07 457.308 180.191 393.67 151.78C318.963 118.543 240.331 104.181 172.259 111.337C133.525 115.498 82.9358 134.668 57.2303 168.11C41.9472 187.993 38.2795 210.184 46.6274 232.281L46.3788 232.346C42.0126 220.792 40.872 209.244 42.9858 198.022C44.9374 187.665 49.6541 177.562 57.0105 167.992C68.3799 153.202 85.8762 139.917 107.613 129.57C127.752 119.986 150.697 113.435 172.227 111.121C207.955 107.365 246.382 109.461 286.445 117.352C322.638 124.482 358.756 135.999 393.793 151.589C457.468 180.015 512.444 220.918 552.779 269.878C554.989 272.561 557.187 275.315 559.306 278.057C576.164 299.86 590.772 324.09 603.967 352.132C606.406 357.299 608.82 362.616 611.156 367.759C621.22 389.921 631.63 412.836 647.815 432.82C648.742 433.963 649.694 435.101 650.646 436.202C688.587 479.934 753.714 494.586 824.858 475.392C889.286 458.012 941.843 419.056 990.154 380.648C994.39 377.278 998.926 373.637 1004.87 368.845C1009.93 364.764 1015.12 360.553 1020.14 356.479C1043.63 337.42 1067.92 317.713 1093.82 299.259C1123.12 278.39 1150.44 262.097 1177.34 249.453C1195.98 240.725 1215.38 233.593 1234.98 228.257C1253.56 223.201 1272.94 219.59 1292.58 217.521C1328.36 213.755 1365.84 214.833 1407.16 220.813C1441.31 225.684 1481.4 232.966 1519.74 250.071C1556.81 266.668 1590.4 289.809 1622.88 312.189C1628.77 316.248 1634.86 320.446 1640.81 324.484C1719.89 378.214 1800.08 439.097 1879.14 505.44L1878.95 505.598Z" fill="#FFE492"/>
<path d="M1876.18 503.548C1797.81 436.476 1718.93 374.843 1641.73 320.365C1635.16 315.732 1628.42 310.868 1621.89 306.164C1590.81 283.761 1558.68 260.595 1522.65 244.657C1484.31 227.773 1444.16 222.386 1409.94 219.344C1326.1 211.689 1252.01 223.934 1183.44 256.776C1128.84 283.045 1082.04 318.187 1036.77 352.173C1027.63 359.038 1018.18 366.137 1008.99 372.903C1003.37 377.045 998.386 380.682 993.755 384.02C972.222 399.529 943.579 419.415 912.971 435.666C882.217 451.993 853.128 462.821 824.046 468.765C792.326 475.248 760.669 475.296 732.499 468.906C716.837 465.352 702.302 459.811 689.297 452.435C675.257 444.472 662.857 434.278 652.437 422.14C651.492 421.034 650.545 419.892 649.625 418.747C633.651 398.894 622.915 376.342 612.534 354.535C610.023 349.259 607.427 343.805 604.809 338.506C591.043 310.55 576.095 286.529 559.109 265.074C556.958 262.358 554.732 259.633 552.49 256.974C511.627 208.484 456.255 168.155 392.361 140.352C317.138 107.739 238.287 94.1252 170.332 102.015C124.279 107.477 78.2964 130.417 55.9133 159.093C40.3373 179.048 36.128 201.354 43.7408 223.599L43.4896 223.657C39.5106 212.033 38.6996 200.424 41.0776 189.155C43.2751 178.739 48.1933 168.584 55.6936 158.973C67.1834 144.252 84.6116 130.998 106.095 120.642C126.021 111.038 148.823 104.343 170.296 101.797C205.981 97.6531 244.451 99.3638 284.636 106.879C320.918 113.665 357.203 124.86 392.481 140.156C456.412 167.977 511.815 208.327 552.705 256.847C554.947 259.507 557.173 262.234 559.326 264.952C576.32 286.42 591.276 310.452 605.049 338.421C607.668 343.72 610.263 349.176 612.775 354.452C623.15 376.249 633.881 398.789 649.839 418.623C650.76 419.768 651.704 420.906 652.649 422.012C689.938 465.461 753.987 482.859 823.983 468.554C887.794 455.511 943.208 420.138 993.583 383.857C998.21 380.519 1003.19 376.884 1008.81 372.742C1018 365.976 1027.46 358.879 1036.6 352.014C1081.87 318.021 1128.68 282.871 1183.31 256.591C1201.79 247.739 1220.9 240.289 1240.11 234.444C1258.48 228.855 1277.55 224.552 1296.78 221.655C1332.55 216.269 1369.57 215.444 1409.96 219.131C1444.21 222.175 1484.39 227.564 1522.77 244.468C1558.83 260.417 1590.97 283.591 1622.06 306.003C1628.59 310.707 1635.33 315.569 1641.9 320.202C1719.11 374.684 1798 436.321 1876.36 503.398L1876.18 503.548Z" fill="#FFE492"/>
<path d="M1873.4 501.499C1795.74 433.687 1718.16 371.303 1642.82 316.077C1635.9 311.002 1628.77 305.628 1621.89 300.431C1591.95 277.838 1560.98 254.475 1525.68 239.05C1487.17 222.31 1446.99 218.843 1412.77 217.659C1332.1 214.664 1259.04 229.792 1189.42 263.909C1140.6 287.95 1097.07 318.375 1054.98 347.798C1040.51 357.916 1026.84 367.473 1012.93 376.803C1007.28 380.601 1002.12 384.013 997.18 387.232C965.277 407.984 938.734 422.988 913.646 434.449C882.172 448.828 852.574 457.817 823.159 461.926C811.748 463.519 800.378 464.313 789.216 464.313C769.428 464.313 750.281 461.824 732.654 456.892C700.753 447.966 674.441 431.498 654.446 407.943C653.505 406.826 652.565 405.684 651.655 404.543C635.925 384.862 624.887 362.711 614.214 341.286C611.509 335.858 608.715 330.248 605.897 324.791C591.543 296.901 576.244 273.08 559.135 251.967C556.953 249.275 554.696 246.574 552.422 243.939C511.007 195.89 455.207 156.115 391.055 128.914C315.318 96.9278 236.25 84.061 168.412 92.6839C122.168 98.6842 77.5119 121.188 54.6501 150.016C38.7575 170.055 33.991 192.493 40.8608 214.908L40.607 214.962C37.0204 203.258 36.5443 191.579 39.1943 180.251C41.6482 169.765 46.7731 159.553 54.4329 149.897C66.043 135.256 83.3954 122.046 104.617 111.69C124.329 102.071 146.971 95.2455 168.373 92.4684C204.017 87.9372 242.528 89.2604 282.834 96.4011C319.205 102.845 355.655 113.719 391.176 128.718C455.364 155.936 511.196 195.734 552.637 243.81C554.91 246.448 557.168 249.149 559.352 251.843C576.472 272.967 591.778 296.801 606.138 324.702C608.956 330.158 611.752 335.771 614.455 341.199C625.123 362.613 636.155 384.755 651.872 404.419C652.783 405.557 653.719 406.7 654.661 407.814C691.997 451.803 753.397 471.448 823.115 461.708C889.482 452.437 948.265 418.77 997.018 387.058C1001.96 383.839 1007.11 380.429 1012.77 376.631C1026.67 367.301 1040.34 357.746 1054.81 347.628C1096.91 318.199 1140.44 287.769 1189.29 263.72C1207.63 254.731 1226.45 246.962 1245.24 240.624C1263.44 234.487 1282.2 229.492 1300.99 225.781C1336.83 218.706 1373.4 215.976 1412.78 217.439C1447.03 218.623 1487.25 222.094 1525.8 238.855C1561.13 254.29 1592.11 277.664 1622.06 300.266C1628.95 305.463 1636.07 310.836 1642.99 315.91C1718.33 371.14 1795.92 433.53 1873.59 501.347L1873.4 501.499Z" fill="#FFE492"/>
<path d="M1868.61 501.559C1790.56 432.036 1716.4 370.651 1641.89 313.895C1634.78 308.48 1627.79 302.95 1620.37 297.096C1591.41 274.209 1561.45 250.545 1526.69 235.552C1487.71 218.818 1445.76 217.425 1413.58 218.082C1336.58 219.449 1264.55 237.463 1193.38 273.153C1150.68 294.671 1111.25 320.512 1073.12 345.503C1053.08 358.638 1034.16 371.041 1014.85 382.813C1009.13 386.31 1003.8 389.497 998.585 392.554C966.248 411.48 938.831 425.074 912.299 435.338C880.096 447.795 849.987 454.945 820.253 457.195C804.975 458.351 789.802 458.133 775.155 456.549C759.647 454.871 744.719 451.652 730.789 446.984C699.911 436.635 674.224 419.435 654.439 395.858C653.505 394.739 652.574 393.595 651.668 392.454C636.202 372.976 624.888 351.247 613.945 330.233C611.025 324.627 608.006 318.829 604.969 313.192C590.013 285.363 574.369 261.74 557.142 240.975C554.926 238.307 552.637 235.63 550.338 233.019C508.371 185.412 452.144 146.189 387.736 119.592C328.288 95.1443 266.983 82.3885 210.767 82.3885C194.874 82.3885 179.4 83.4071 164.476 85.4681C118.789 91.9015 74.4121 114.486 51.4169 143.005C35.1868 163.137 29.8422 185.728 35.9612 208.334L35.7048 208.382C32.5106 196.586 32.3772 184.827 35.3072 173.433C38.0226 162.871 43.3699 152.592 51.1971 142.883C62.9276 128.334 80.1989 115.178 101.148 104.834C120.923 95.0682 142.807 88.2974 164.428 85.2548C200.03 80.3362 238.583 81.2742 279.012 88.0384C315.47 94.1367 352.089 104.686 387.851 119.394C452.295 146.007 508.556 185.251 550.55 232.886C552.852 235.497 555.143 238.177 557.359 240.847C574.594 261.623 590.246 285.256 605.21 313.099C608.247 318.736 611.268 324.534 614.188 330.142C625.126 351.146 636.435 372.867 651.888 392.33C652.793 393.468 653.725 394.613 654.656 395.73C691.655 439.817 752.002 462.138 820.232 456.975C889.273 451.75 951.734 419.705 998.439 392.372C1003.66 389.314 1008.98 386.128 1014.71 382.632C1034 370.864 1052.93 358.459 1072.97 345.327C1111.1 320.333 1150.53 294.486 1193.25 272.962C1229.89 254.587 1265.85 241.195 1303.18 232.02C1339.18 223.17 1375.3 218.539 1413.58 217.86C1435.42 217.414 1453.23 218.189 1469.65 220.295C1490.85 223.016 1509.55 227.941 1526.82 235.354C1561.61 250.36 1591.58 274.037 1620.56 296.935C1627.97 302.789 1634.97 308.317 1642.07 313.732C1716.59 370.49 1790.75 431.88 1868.81 501.406L1868.61 501.559Z" fill="#FFE492"/>
<path d="M1867.85 497.399C1790.52 427.115 1717.62 364.999 1645 307.494C1637.82 301.805 1630.73 295.944 1623.23 289.739C1595.13 266.491 1566.07 242.448 1531.74 227.832C1492.43 211.176 1450.53 211.842 1418.42 214.282C1345.76 219.612 1274.76 240.511 1201.38 278.172C1165.22 296.817 1130.79 318.154 1097.49 338.791C1071.17 355.103 1046.32 370.512 1020.81 384.595C1015.05 387.781 1009.4 390.828 1004.02 393.649C971.624 410.633 942.499 423.176 914.986 431.995C882.042 442.554 851.424 447.869 821.381 448.239C806.095 448.426 790.982 447.277 776.471 444.82C761.258 442.243 746.619 438.215 732.958 432.843C703.14 421.119 678.075 403.188 658.463 379.546C657.542 378.429 656.616 377.282 655.713 376.135C640.537 356.894 628.977 335.624 617.796 315.055C614.633 309.235 611.36 303.215 608.072 297.363C592.504 269.586 576.512 246.164 559.183 225.753C556.936 223.109 554.615 220.456 552.284 217.868C509.765 170.704 453.109 132.034 388.445 106.039C311.679 75.3083 232.169 63.9388 164.567 74.0242C119.472 80.869 75.3909 103.512 52.2675 131.707C35.6711 151.945 29.7327 174.706 35.0904 197.532L34.834 197.573C32.04 185.675 32.2546 173.825 35.475 162.353C38.4651 151.704 44.04 141.351 52.0504 131.583C63.8959 117.138 81.0808 104.048 101.748 93.7249C121.295 83.9616 143.001 77.0755 164.52 73.8088C200.083 68.5049 238.675 69.0533 279.224 75.4432C315.771 81.202 352.555 91.4288 388.558 105.841C453.261 131.849 509.948 170.543 552.491 217.736C554.824 220.323 557.148 222.978 559.395 225.625C576.734 246.046 592.731 269.479 608.307 297.267C611.598 303.12 614.868 309.14 618.034 314.961C629.21 335.522 640.765 356.783 655.93 376.011C656.833 377.156 657.759 378.303 658.677 379.417C696.066 424.486 753.847 448.853 821.376 448.017C876.169 447.342 934.162 430.005 1003.88 393.459C1009.26 390.639 1014.9 387.594 1020.67 384.408C1046.16 370.327 1071.02 354.922 1097.33 338.61C1130.63 317.971 1165.07 296.63 1201.24 277.98C1238.24 258.991 1273.62 244.618 1309.4 234.035C1345.65 223.314 1381.3 216.778 1418.4 214.057C1450.54 211.613 1492.49 210.95 1531.86 227.632C1566.23 242.266 1595.3 266.319 1623.42 289.578C1630.92 295.783 1638 301.642 1645.18 307.329C1717.81 364.836 1790.71 426.956 1868.05 497.245L1867.85 497.399Z" fill="#FFE492"/>
<path d="M1865.08 495.348C1788.47 424.3 1716.84 361.448 1646.09 303.204C1638.91 297.29 1631.82 291.147 1624.31 284.641C1597.01 260.977 1568.77 236.508 1534.77 222.222C1495.09 205.627 1453.26 208.359 1421.25 212.592C1352.89 221.461 1284.92 244.565 1207.35 285.303C1178.26 300.651 1149.84 317.487 1122.34 333.769C1088.95 353.544 1057.41 372.224 1024.76 388.492C1018.87 391.426 1013.05 394.242 1007.45 396.858C974.467 412.254 944.442 423.345 915.658 430.762C899.535 434.917 883.619 437.927 868.351 439.709C852.066 441.609 835.964 442.177 820.493 441.398C789.103 439.816 759.703 432.89 733.114 420.816C704.397 407.775 679.958 389.114 660.476 365.348C659.56 364.223 658.642 363.074 657.745 361.934C642.893 342.975 631.126 322.21 619.749 302.131C616.304 296.052 612.743 289.767 609.162 283.651C592.966 255.919 576.626 232.695 559.208 212.648C556.929 210.026 554.575 207.397 552.215 204.835C509.144 158.11 452.062 119.993 387.141 94.6055C309.863 64.5039 230.135 53.8831 162.646 64.6975C90.3824 76.4566 19.9658 127.264 32.209 188.845L31.95 188.88C28.8866 173.476 30.6812 158.3 37.2815 143.77C43.3089 130.501 53.2003 118.013 66.6809 106.656C79.2145 96.0963 94.2516 86.9794 111.371 79.5579C127.654 72.4999 145.367 67.2853 162.594 64.4821C198.115 58.7908 236.749 58.9541 277.421 64.9696C314.056 70.3866 351.008 80.2914 387.251 94.4096C452.208 119.815 509.325 157.954 552.422 204.705C554.784 207.268 557.139 209.898 559.42 212.522C576.845 232.578 593.193 255.815 609.397 283.557C612.979 289.673 616.539 295.958 619.984 302.039C631.359 322.112 643.121 342.868 657.965 361.816C658.859 362.956 659.775 364.106 660.69 365.229C698.134 410.902 754.892 437.874 820.509 441.182C876.058 443.979 937.164 429.421 1007.32 396.671C1012.92 394.055 1018.74 391.241 1024.62 388.307C1057.27 372.043 1088.8 353.365 1122.19 333.593C1149.69 317.309 1178.12 300.47 1207.21 285.12C1284.81 244.365 1352.81 221.252 1421.21 212.376C1442.72 209.532 1460.53 208.622 1477.26 209.517C1498.64 210.659 1517.49 214.751 1534.89 222.027C1568.92 236.328 1597.18 260.812 1624.5 284.489C1632.01 290.992 1639.09 297.136 1646.27 303.047C1717.02 361.296 1788.66 424.15 1865.27 495.203L1865.08 495.348Z" fill="#FFE492"/>
<path d="M1862.31 493.297C1786.42 421.474 1716.05 357.891 1647.18 298.911C1640.06 292.808 1633.02 286.416 1625.56 279.645C1598.99 255.529 1571.52 230.59 1537.8 216.611C1497.26 199.876 1453.48 205.337 1424.08 210.9C1344.28 225.812 1272.77 260.482 1213.34 292.434C1191.98 303.964 1170.67 316.178 1150.06 327.989C1108.73 351.684 1069.68 374.064 1028.7 392.389C1022.67 395.085 1016.68 397.669 1010.88 400.069C977.251 413.952 946.327 423.589 916.336 429.527C882.338 436.258 849.797 437.951 819.61 434.556C788.599 431.068 759.55 422.397 733.274 408.783C705.714 394.506 681.9 375.117 662.489 351.153C661.584 350.028 660.671 348.876 659.779 347.731C645.296 329.121 633.382 308.926 621.859 289.396C618.084 282.995 614.178 276.379 610.254 269.939C593.184 241.859 576.972 219.492 559.238 199.543C556.928 196.945 554.545 194.342 552.151 191.802C508.523 145.521 451.011 107.957 385.834 83.1697C308.043 53.6992 228.096 43.825 160.722 55.3685C88.1991 67.9589 19.2213 118.077 29.3245 180.158L29.0655 180.187C26.5593 164.784 28.728 149.624 35.5089 135.127C41.7247 121.844 51.6736 109.343 65.0835 97.9735C77.5883 87.3701 92.547 78.1858 109.546 70.6707C125.732 63.5147 143.411 58.1499 160.669 55.1531C196.151 49.0744 234.824 48.8524 275.617 54.4914C312.341 59.5668 349.461 69.1494 385.944 82.9717C451.16 107.772 508.703 145.358 552.352 191.667C554.746 194.209 557.132 196.814 559.444 199.413C577.189 219.37 593.406 241.75 610.484 269.841C614.408 276.281 618.314 282.899 622.089 289.3C633.61 308.824 645.521 329.012 659.993 347.614C660.885 348.759 661.796 349.908 662.701 351.033C700.435 397.616 756.17 427.202 819.641 434.341C876.567 440.744 939.08 429.468 1010.76 399.873C1016.56 397.475 1022.55 394.894 1028.58 392.197C1069.55 373.876 1108.59 351.501 1149.91 327.809C1170.52 315.998 1191.83 303.781 1213.19 292.249C1253.16 270.766 1286.4 254.893 1317.81 242.298C1354.78 227.473 1389.53 217.133 1424.02 210.686C1445.05 206.708 1463.38 204.906 1480.05 205.18C1501.53 205.533 1520.45 209.207 1537.92 216.415C1571.68 230.411 1599.17 255.366 1625.75 279.497C1633.21 286.266 1640.25 292.658 1647.37 298.756C1716.24 357.738 1786.61 421.326 1862.51 493.151L1862.31 493.297Z" fill="#FFE492"/>
<path d="M1859.54 491.246C1784.38 418.646 1715.28 354.329 1648.27 294.618C1641.25 288.356 1634.29 281.742 1626.93 274.738C1601.07 250.137 1574.32 224.697 1540.83 211.001C1499.85 194.306 1456.19 201.982 1426.91 209.21C1354.61 226.906 1290.12 260.601 1219.32 299.564C1206.55 306.618 1193.63 313.898 1181.14 320.941C1133.1 348.024 1083.42 376.028 1032.64 396.285C1026.47 398.749 1020.3 401.102 1014.3 403.278C980.445 415.536 947.713 423.949 917.008 428.287C882.225 433.201 849.158 433.008 818.717 427.715C788.141 422.398 759.445 411.979 733.426 396.749C707.095 381.336 683.901 361.219 664.49 336.959C663.592 335.832 662.687 334.678 661.8 333.534C647.755 315.359 635.765 295.821 624.171 276.928C619.993 270.12 615.674 263.082 611.334 256.233C593.597 228.181 577.048 206.006 559.253 186.444C556.917 183.876 554.5 181.295 552.072 178.775C507.9 132.929 449.964 95.9176 384.526 71.7357C306.224 42.8964 226.06 33.7708 158.796 46.0413C88.5754 58.9908 18.3235 107.35 26.436 171.471L26.177 171.493C24.228 156.09 26.7708 140.947 33.7322 126.483C40.1337 113.185 50.1428 100.673 63.4795 89.2905C88.0862 68.2927 122.807 52.4507 158.738 45.8258C194.178 39.3619 232.893 38.7525 273.809 44.015C310.622 48.7509 347.906 58.0092 384.631 71.5355C450.106 95.7304 508.075 132.766 552.276 178.633C554.706 181.156 557.124 183.737 559.462 186.307C577.265 205.88 593.822 228.064 611.564 256.126C615.904 262.977 620.226 270.016 624.404 276.823C635.995 295.712 647.982 315.245 662.02 333.412C662.904 334.556 663.809 335.708 664.707 336.835C703.542 385.373 756.816 416.724 818.767 427.499C876.132 437.476 941.879 429.26 1014.19 403.078C1020.19 400.902 1026.36 398.551 1032.52 396.09C1083.29 375.838 1132.95 347.839 1180.99 320.76C1193.48 313.718 1206.39 306.438 1219.16 299.384C1250.16 282.327 1286.22 262.764 1322.01 246.43C1359.45 229.345 1393.73 217.103 1426.83 209.003C1447.66 203.86 1465.99 201.192 1482.85 200.848C1504.11 200.413 1523.65 203.764 1540.94 210.807C1555.94 216.942 1571.04 226.098 1587.1 238.8C1601.29 250.015 1614.42 262.511 1627.12 274.595C1634.48 281.596 1641.44 288.21 1648.46 294.47C1715.47 354.183 1784.57 418.502 1859.73 491.104L1859.54 491.246Z" fill="#FFE492"/>
<path d="M1856.76 489.195C1782.34 415.812 1714.5 350.762 1649.36 290.328C1642.46 283.929 1635.63 277.115 1628.4 269.902C1603.21 244.789 1577.16 218.82 1543.86 205.394C1512.74 192.886 1475.41 193.583 1429.74 207.523C1365.87 226.903 1308.79 259.321 1248.34 293.645C1240.82 297.919 1233.04 302.337 1225.29 306.701C1222.26 308.414 1219.23 310.131 1216.19 311.846C1158.6 344.424 1099.05 378.112 1036.59 400.185C1030.27 402.418 1023.92 404.54 1017.72 406.49C983.127 417.357 949.471 424.274 917.691 427.046C882.104 430.15 848.506 428.074 817.835 420.874C787.735 413.807 759.393 401.641 733.595 384.713C708.591 368.306 686.02 347.465 666.506 322.765C665.617 321.635 664.72 320.479 663.838 319.332C650.326 301.728 638.376 282.978 626.815 264.847C622.135 257.503 617.293 249.91 612.43 242.519C594.007 214.487 577.123 192.503 559.287 173.338C556.917 170.792 554.471 168.237 552.012 165.74C507.279 120.339 448.915 83.8776 383.22 60.3008C304.411 32.0948 224.025 23.7157 156.873 36.7131C87.9421 50.1654 17.7896 98.9208 23.5528 162.785L23.2912 162.802C21.9021 147.398 24.8164 132.272 31.9582 117.845C38.5481 104.532 48.6148 92.0043 61.8808 80.613C86.3829 59.5717 120.983 43.4947 156.813 36.502C192.213 29.6507 230.968 28.6539 272.003 33.5421C308.906 37.9341 346.36 46.8703 383.325 60.1006C449.056 83.6926 507.457 120.173 552.208 165.599C554.667 168.095 557.118 170.655 559.488 173.201C577.333 192.377 594.227 214.367 612.655 242.41C617.521 249.801 622.36 257.397 627.043 264.74C638.598 282.867 650.548 301.612 664.055 319.211C664.937 320.358 665.832 321.511 666.721 322.641C706.399 372.863 758.676 406.756 817.904 420.659C876.37 434.383 943.566 429.545 1017.63 406.281C1023.82 404.331 1030.17 402.212 1036.48 399.981C1098.93 377.917 1158.47 344.235 1216.05 311.661C1219.08 309.944 1222.11 308.229 1225.14 306.516C1232.89 302.152 1240.67 297.734 1248.19 293.462C1308.65 259.131 1365.75 226.705 1429.64 207.316C1450.28 201.017 1468.6 197.485 1485.65 196.512C1506.99 195.296 1526.61 198.219 1543.97 205.196C1558.89 211.209 1573.8 220.407 1589.56 233.315C1603.47 244.704 1616.24 257.443 1628.6 269.761C1635.83 276.971 1642.66 283.783 1649.56 290.18C1714.7 350.616 1782.54 415.668 1856.96 489.054L1856.76 489.195Z" fill="#FFE492"/>
<path d="M1853.99 487.145C1786.07 418.763 1717.59 351.099 1650.45 286.035C1643.62 279.45 1636.85 272.374 1629.67 264.885C1606.35 240.523 1579.92 212.911 1546.89 199.785C1515.41 187.299 1478.01 189.277 1432.56 205.831C1378.52 225.449 1330.69 254.295 1280.06 284.834C1264.21 294.397 1247.81 304.289 1231.27 313.83C1202.4 330.521 1171.17 348.182 1138.44 364.268C1103.38 381.496 1071.35 394.518 1040.52 404.081C1034.04 406.089 1027.52 407.981 1021.14 409.698C985.811 419.193 951.24 424.597 918.384 425.76C882.013 427.044 847.884 423.1 816.941 414.029C759.801 397.07 709.86 361.589 668.508 308.568C667.626 307.436 666.737 306.278 665.861 305.131C653.034 288.303 641.293 270.55 629.939 253.381C624.595 245.3 619.07 236.943 613.51 228.809C594.387 200.784 577.163 178.994 559.306 160.236C556.901 157.711 554.424 155.18 551.936 152.71C506.66 107.746 447.866 71.8395 381.915 48.8655C302.596 21.2906 221.992 13.6624 154.95 27.3845C85.601 41.6595 17.2066 89.7686 20.6676 154.098L20.406 154.107C19.5767 138.698 22.8678 123.59 30.1849 109.199C36.9658 95.869 47.0899 83.3286 60.2801 71.9287C72.7064 61.1882 87.4349 51.7971 104.055 44.0143C120.191 36.4601 137.292 30.7928 154.885 27.1713C190.246 19.9348 229.043 18.5506 270.199 23.0622C307.19 27.1168 344.809 35.7288 382.015 48.6631C448.005 71.6501 506.832 107.578 552.135 152.564C554.623 155.036 557.105 157.57 559.51 160.094C577.375 178.863 594.607 200.662 613.738 228.696C619.297 236.832 624.822 245.189 630.167 253.272C641.521 270.439 653.259 288.19 666.08 305.011C666.954 306.16 667.846 307.316 668.725 308.448C710.046 361.428 759.942 396.881 817.027 413.822C875.829 431.059 946.382 429.562 1021.06 409.489C1027.44 407.772 1033.96 405.883 1040.43 403.876C1109.36 382.497 1172.43 347.582 1231.12 313.649C1247.66 304.108 1264.05 294.219 1279.91 284.656C1330.55 254.11 1378.39 225.258 1432.45 205.631C1477.98 189.051 1515.45 187.073 1547 199.587C1561.79 205.465 1576.48 214.68 1591.9 227.754C1605.5 239.282 1617.89 252.23 1629.88 264.748C1637.05 272.237 1643.82 279.31 1650.65 285.892C1717.79 350.957 1786.27 418.621 1854.19 487.005L1853.99 487.145Z" fill="#FFE492"/>
<path d="M1851.21 485.095C1784.33 416.334 1717.15 347.917 1651.55 281.744C1644.92 275.086 1638.35 267.887 1631.4 260.265C1608.65 235.335 1582.86 207.076 1549.92 194.173C1518.06 181.708 1480.6 184.969 1435.39 204.136C1388.02 224.189 1344.5 252.504 1302.41 279.89C1281.31 293.62 1259.48 307.819 1237.25 320.958C1202.15 341.717 1172.62 357.552 1144.31 370.795C1109.4 387.125 1076.74 399.286 1044.46 407.974C1037.84 409.759 1031.14 411.418 1024.56 412.904C990.279 420.645 956.615 424.563 924.412 424.565C922.622 424.565 920.843 424.552 919.064 424.528C881.832 424.023 847.175 418.186 816.054 407.182C801.033 401.841 786.322 395.062 772.334 387.031C759.186 379.483 746.265 370.593 733.931 360.608C711.738 342.644 690.993 320.976 670.514 294.369C669.635 293.224 668.759 292.077 667.888 290.926C656.006 275.228 644.764 258.818 633.895 242.948C627.619 233.787 621.131 224.313 614.596 215.092C594.476 186.681 577.432 165.718 559.326 147.126C556.891 144.625 554.382 142.118 551.863 139.671C506.037 95.1533 446.817 59.8001 380.61 37.429C300.783 10.4874 219.959 3.60788 153.027 18.0548C84.9782 32.7846 16.6727 81.2593 17.7845 145.408L17.5229 145.411C17.0049 115.531 31.239 87.1181 58.6841 63.2453C71.0895 52.4548 85.7395 42.9962 102.231 35.1264C118.278 27.4698 135.345 21.6545 152.962 17.8415C188.282 10.2176 227.12 8.44817 268.396 12.5833C305.476 16.2984 343.263 24.5883 380.706 37.2244C446.956 59.6107 506.21 94.9858 552.064 139.53C554.583 141.978 557.097 144.488 559.533 146.988C577.647 165.592 594.698 186.562 614.824 214.983C621.358 224.207 627.849 233.681 634.122 242.841C644.992 258.709 656.231 275.117 668.11 290.811C668.981 291.962 669.855 293.109 670.734 294.252C714.25 350.79 761.818 387.664 816.156 406.982C891.418 433.595 970.991 424.778 1024.49 412.695C1031.07 411.209 1037.76 409.552 1044.38 407.768C1118.62 387.784 1186.37 350.783 1237.09 320.782C1259.33 307.647 1281.15 293.449 1302.25 279.72C1344.35 252.33 1387.88 224.006 1435.27 203.945C1455.5 195.367 1473.81 190.101 1491.24 187.846C1512.74 185.064 1532.52 187.128 1550.03 193.979C1564.78 199.757 1579.33 209.046 1594.5 222.374C1607.86 234.118 1619.94 247.344 1631.61 260.137C1638.56 267.756 1645.13 274.954 1651.75 281.607C1717.35 347.78 1784.53 416.197 1851.42 484.958L1851.21 485.095Z" fill="#FFE492"/>
<path d="M1848.44 483.046L1652.64 277.455C1646.24 270.741 1639.89 263.435 1633.17 255.702C1610.98 230.182 1585.83 201.258 1552.95 188.567C1521.16 176.297 1482.55 180.967 1438.21 202.45C1395.59 223.102 1356.71 250.566 1319.11 277.127C1294.61 294.44 1269.26 312.341 1243.23 328.096C1164.97 375.449 1096.57 403.418 1027.99 416.117C999.534 421.384 971.467 424.035 944.246 424.035C935.995 424.035 927.828 423.791 919.747 423.304C881.636 421.006 846.45 413.279 815.17 400.343C786.178 388.351 759.657 371.423 734.098 348.588C713.687 330.355 694.122 308.617 672.526 280.178C661.128 265.17 650.09 249.576 639.417 234.496C615.26 200.37 590.282 165.082 559.357 134.025C511.923 86.3902 449.66 49.0347 379.301 25.9954C298.97 -0.310556 217.927 -6.44362 151.104 8.72798C86.409 23.4164 16.1912 69.7343 14.8988 136.724L14.6372 136.719C15.2154 106.776 29.8941 78.368 57.0855 54.5649C81.6713 33.0426 115.037 16.6892 151.036 8.51687C186.317 0.507768 225.197 -1.64903 266.591 2.10959C303.76 5.48299 341.714 13.4529 379.398 25.793C414.213 37.193 447.277 52.1992 477.676 70.3959C508.328 88.7451 535.878 110.104 559.556 133.881C590.494 164.949 615.48 200.246 639.642 234.38C650.315 249.458 661.353 265.05 672.748 280.056C704.256 321.551 748.933 372.698 815.287 400.143C891.383 431.615 972.924 426.083 1027.93 415.9C1096.48 403.209 1164.84 375.251 1243.07 327.915C1269.1 312.167 1294.44 294.266 1318.94 276.957C1356.55 250.392 1395.44 222.922 1438.08 202.259C1482.5 180.739 1521.19 176.064 1553.06 188.367C1567.78 194.05 1582.2 203.419 1597.12 217.015C1610.26 228.983 1622.01 242.5 1633.38 255.572C1640.1 263.304 1646.45 270.606 1652.84 277.318L1848.65 482.908L1848.44 483.046Z" fill="#FFE492"/>
<path d="M1846.86 467.24C1797 409.997 1754.22 363.546 1712.24 321.061C1691.85 300.422 1671.04 280.108 1650.37 260.681C1644.11 254.805 1637.92 248.555 1631.36 241.936C1614.88 225.302 1597.83 208.102 1578.22 195.338C1567.69 188.471 1557.55 183.555 1547.23 180.307C1515.54 170.242 1478.36 176.897 1436.73 200.091C1415.18 212.076 1395.56 225.716 1379.21 237.477C1361.9 249.928 1344.82 263.659 1328.31 276.937C1304.57 296.024 1280.03 315.759 1253.64 332.709C1237.59 343.053 1221.31 352.297 1205.27 360.184C1173.17 375.963 1138.72 388.964 1102.87 398.828C1080.72 404.854 1058.46 409.409 1036.72 412.365C1017.98 414.903 999.205 416.367 980.916 416.718C953.544 417.244 926.876 415.236 901.652 410.741C874.832 405.962 849.451 398.334 826.215 388.066C805.496 378.909 785.925 367.381 766.386 352.819C729.975 325.705 700.934 294.355 679.702 270.07C669.272 258.085 659.088 245.862 649.238 234.042C620.877 200.002 594.089 167.85 560.566 139.211C533.226 116.006 502.032 95.981 467.843 79.6886C441.569 67.1678 412.994 56.9279 382.912 49.2517C375.747 47.4258 368.445 45.7238 361.217 44.1982C330.096 37.6407 295.062 33.3706 257.09 31.5055C218.806 29.5815 185.684 31.2465 155.837 36.6004C138.964 39.6038 122.616 44.3157 107.241 50.6033C52.9631 72.8025 18.1092 110.069 14.0072 150.293L13.6802 150.269C14.7737 139.546 17.9836 128.984 23.2184 118.872C28.1915 109.268 35.0221 100.005 43.5191 91.3409C59.5739 74.9745 81.5593 60.8018 107.097 50.3574C122.496 44.0589 138.869 39.3405 155.769 36.3327C185.647 30.9744 218.796 29.3073 257.11 31.2334C295.104 33.0986 330.156 37.373 361.298 43.9348C368.534 45.4627 375.838 47.1646 383.009 48.9928C413.114 56.6732 441.713 66.9219 468.007 79.4535C502.22 95.7568 533.441 115.799 560.794 139.019C594.337 167.676 621.131 199.836 649.502 233.886C659.349 245.706 669.534 257.926 679.961 269.909C701.183 294.183 730.211 325.518 766.6 352.614C786.119 367.161 805.668 378.679 826.364 387.824C871.839 407.919 923.834 417.549 980.906 416.446C999.179 416.095 1017.94 414.631 1036.66 412.095C1058.39 409.14 1080.63 404.589 1102.76 398.567C1138.59 388.71 1173.02 375.717 1205.1 359.947C1221.14 352.066 1237.4 342.827 1253.44 332.491C1279.81 315.55 1304.35 295.819 1328.08 276.739C1344.6 263.459 1361.67 249.723 1378.99 237.268C1395.35 225.5 1414.98 211.856 1436.55 199.862C1455.08 189.535 1473.03 182.401 1489.9 178.656C1510.61 174.055 1529.95 174.525 1547.35 180.053C1557.7 183.311 1567.87 188.24 1578.42 195.122C1598.06 207.906 1615.12 225.117 1631.61 241.762C1638.17 248.378 1644.36 254.629 1650.61 260.501C1671.29 279.929 1692.11 300.246 1712.49 320.889C1754.48 363.379 1797.27 409.834 1847.13 467.082L1846.86 467.24Z" fill="#FFE492"/>
<path d="M1845.29 451.43C1799.06 393.218 1755.67 344.506 1712.64 302.513C1691.66 282 1669.94 262.282 1648.1 243.907C1642.3 239.032 1636.58 233.965 1630.52 228.603C1612.37 212.543 1593.61 195.937 1572.6 184.448C1561.99 178.622 1551.82 174.565 1541.51 172.045C1502.03 162.391 1461.94 180.681 1435.24 197.724C1416.33 209.764 1399.06 223.377 1381.57 237.43C1366.26 249.731 1351.85 262.964 1336.6 276.971C1313.96 297.764 1290.55 319.265 1264.06 337.318C1248.34 348.089 1231.94 357.401 1215.3 364.997C1184.31 379.148 1150.38 390.137 1111.56 398.594C1089.84 403.325 1067.59 406.697 1045.44 408.61C1026.75 410.205 1008.09 410.775 989.981 410.299C963.041 409.598 936.707 406.446 911.708 400.934C885.453 395.142 860.402 386.68 837.252 375.783C816.97 366.238 797.386 354.394 777.381 339.577C741.049 312.705 709.926 282.915 686.873 259.962C678.339 251.466 669.942 242.917 661.819 234.647C629.471 201.714 598.918 170.604 561.775 144.396C534.016 124.809 502.851 108.246 469.151 95.1706C443.652 85.2767 416.625 77.8639 386.53 72.5078C379.584 71.2738 372.518 70.1617 365.531 69.2019C334.839 65.008 302.083 63.4214 262.452 61.7804C233.885 60.5377 196.488 59.7194 160.562 64.4682C143.547 66.6751 127.1 70.5077 111.673 75.8551C57.358 94.6874 20.5133 127.586 13.1098 163.862L12.7227 163.807C14.6847 154.188 18.6611 144.753 24.5342 135.762C30.1326 127.196 37.489 118.982 46.3967 111.343C63.3252 96.8311 85.8444 84.454 111.521 75.5526C126.977 70.1943 143.455 66.3552 160.499 64.144C196.46 59.3886 233.885 60.2091 262.471 61.4518C302.115 63.0928 334.881 64.6794 365.594 68.8754C372.586 69.8374 379.658 70.9495 386.611 72.1835C416.735 77.5462 443.788 84.9655 469.315 94.8702C503.05 107.959 534.241 124.534 562.029 144.141C599.198 170.369 629.764 201.487 662.122 234.433C670.243 242.701 678.64 251.25 687.174 259.745C710.221 282.688 741.332 312.468 777.643 339.327C797.624 354.128 817.187 365.959 837.446 375.494C882.965 396.92 934.293 408.518 989.994 409.968C1008.09 410.442 1026.73 409.874 1045.4 408.279C1067.53 406.368 1089.76 403.001 1111.46 398.272C1150.25 389.823 1184.15 378.843 1215.11 364.705C1231.73 357.119 1248.11 347.819 1263.82 337.059C1290.28 319.021 1313.68 297.529 1336.31 276.747C1351.57 262.733 1365.98 249.498 1381.3 237.191C1398.8 223.129 1416.08 209.512 1435.01 197.459C1452.31 186.409 1469.38 178.461 1485.74 173.83C1505.57 168.215 1524.38 167.507 1541.63 171.725C1551.97 174.256 1562.18 178.326 1572.82 184.17C1593.87 195.681 1612.65 212.302 1630.81 228.374C1636.86 233.735 1642.59 238.799 1648.38 243.672C1670.23 262.054 1691.96 281.778 1712.95 302.297C1755.98 344.302 1799.38 393.022 1845.62 451.247L1845.29 451.43Z" fill="#FFE492"/>
<path d="M1843.71 435.622C1800.44 375.651 1757.7 326.045 1713.05 283.969C1691.46 263.583 1668.85 244.463 1645.83 227.137C1640.91 223.432 1635.85 219.502 1630.95 215.702C1610.72 200.001 1589.81 183.768 1566.98 173.563C1556.26 168.74 1546.06 165.541 1535.8 163.784C1496.4 157.04 1458.57 177.232 1433.76 195.357C1416.95 207.593 1401.58 221.461 1386.71 234.874L1383.93 237.385C1370.43 249.553 1357.77 262.899 1344.37 277.03C1323.02 299.532 1300.96 322.798 1274.48 341.928C1259.07 353.141 1242.54 362.523 1225.33 369.814C1195.32 382.527 1161.93 391.598 1120.25 398.362C1098.7 401.859 1076.46 404.044 1054.16 404.854C1035.51 405.505 1016.97 405.178 999.038 403.879C944.754 399.964 894.034 386.379 848.284 363.503C828.507 353.613 808.91 341.458 788.376 326.336C753.627 300.801 722.721 274.554 694.046 249.858C690.2 246.548 686.397 243.259 682.622 239.997C643.457 206.156 606.465 174.192 562.992 149.59C534.61 133.528 503.476 120.431 470.459 110.659C446.218 103.485 419.948 98.6144 390.151 95.7677C383.435 95.13 376.605 94.6055 369.847 94.2094C352.848 93.23 334.818 93.0711 315.729 92.9036C300.396 92.7686 284.542 92.6293 267.813 92.0613C235.502 90.8708 198.882 89.5236 165.281 92.3442C147.945 93.8002 131.398 96.7514 116.099 101.117C61.8053 116.613 22.9671 145.148 12.2072 177.448L11.7651 177.345C14.601 168.829 19.3413 160.522 25.8527 152.654C32.0789 145.13 39.9585 137.961 49.2717 131.347C67.0845 118.698 90.1425 108.121 115.947 100.756C131.28 96.3793 147.861 93.4215 165.232 91.9634C198.866 89.1406 235.504 90.4899 267.828 91.6804C284.548 92.2463 300.401 92.3878 315.729 92.5227C334.826 92.6903 352.861 92.8492 369.876 93.8307C376.639 94.229 383.477 94.7535 390.198 95.3912C420.031 98.2401 446.333 103.117 470.608 110.302C503.664 120.084 534.832 133.197 563.245 149.276C606.758 173.9 643.768 205.88 682.949 239.736C686.724 242.998 690.53 246.285 694.373 249.597C723.043 274.288 753.938 300.529 788.677 326.056C809.19 341.16 828.766 353.304 848.52 363.181C894.209 386.028 944.864 399.594 999.077 403.505C1016.99 404.802 1035.51 405.128 1054.13 404.478C1076.42 403.668 1098.63 401.485 1120.16 397.992C1161.8 391.234 1195.15 382.174 1225.12 369.479C1242.29 362.203 1258.79 352.838 1274.17 341.645C1300.62 322.539 1322.67 299.286 1344.01 276.798C1357.42 262.66 1370.08 249.308 1383.59 237.131L1386.37 234.619C1401.24 221.2 1416.62 207.323 1433.45 195.074C1458.34 176.89 1496.31 156.639 1535.89 163.414C1546.2 165.179 1556.44 168.389 1567.19 173.232C1590.08 183.459 1611.01 199.71 1631.26 215.428C1636.15 219.228 1641.22 223.158 1646.13 226.86C1669.16 244.195 1691.79 263.326 1713.39 283.723C1758.06 325.816 1800.81 375.44 1844.09 435.43L1843.71 435.622Z" fill="#FFE492"/>
<path d="M1842.13 419.811C1802.4 358.935 1759.12 306.991 1713.46 265.427C1691.27 245.169 1667.75 226.645 1643.57 210.37C1640.08 208.02 1636.5 205.58 1633.04 203.221C1610.18 187.636 1586.55 171.518 1561.37 162.681C1550.57 158.849 1540.34 156.509 1530.09 155.525C1490.81 151.756 1455.22 173.818 1432.28 192.99C1418.04 204.834 1405.18 218.005 1392.75 230.744C1390.6 232.948 1388.44 235.149 1386.29 237.34C1374.46 249.38 1363.41 262.83 1351.7 277.068C1331.8 301.274 1311.22 326.302 1284.9 346.543C1269.44 358.428 1253.24 367.617 1235.36 374.638C1197.95 389.322 1160.57 394.756 1128.94 398.138C1107.54 400.424 1085.32 401.425 1062.87 401.107C1044.29 400.813 1025.86 399.588 1008.1 397.468C955.444 391.198 905.388 375.641 859.321 351.229C840.153 341.073 820.546 328.603 799.374 313.105C777.988 297.487 758.059 282.459 738.783 267.925C725.685 258.046 713.311 248.716 701.227 239.765C655.551 205.926 613.712 176.175 564.218 154.79C535.227 142.265 504.125 132.628 471.774 126.149C448.588 121.504 423.804 119.243 393.779 119.027C387.302 118.988 380.704 119.051 374.172 119.217C364.249 119.484 353.983 120.044 343.119 120.638C322.269 121.776 298.633 123.067 273.173 122.344C263.478 122.068 253.587 121.678 244.02 121.3C219.413 120.327 193.969 119.321 169.998 120.22C152.394 120.882 135.746 122.954 120.52 126.379C66.3179 138.578 25.4889 162.751 11.2994 191.042L10.8154 190.874C14.5302 183.466 20.0345 176.288 27.1737 169.539C34.0304 163.058 42.4332 156.936 52.1441 151.345C70.8568 140.571 94.4511 131.794 120.379 125.959C135.641 122.525 152.326 120.446 169.969 119.785C193.966 118.884 219.421 119.891 244.041 120.864C253.605 121.243 263.496 121.633 273.189 121.909C298.625 122.631 322.243 121.343 343.082 120.205C353.952 119.611 364.22 119.051 374.153 118.784C380.693 118.618 387.296 118.555 393.782 118.594C423.848 118.808 448.669 121.075 471.895 125.726C504.284 132.214 535.429 141.862 564.457 154.405C586.813 164.063 609.469 176.301 633.717 191.815C655.425 205.702 676.542 220.898 701.573 239.44C713.656 248.394 726.03 257.724 739.131 267.603C758.404 282.135 778.333 297.163 799.714 312.778C820.865 328.261 840.452 340.719 859.596 350.863C905.6 375.243 955.585 390.778 1008.17 397.039C1025.9 399.157 1044.31 400.38 1062.88 400.674C1085.29 400.992 1107.5 399.993 1128.87 397.708C1160.46 394.332 1197.79 388.904 1235.13 374.246C1252.96 367.245 1269.12 358.08 1284.54 346.225C1310.81 326.019 1331.38 301.011 1351.26 276.824C1362.98 262.578 1374.04 249.121 1385.88 237.068C1388.03 234.877 1390.18 232.676 1392.33 230.474C1404.77 217.727 1417.64 204.546 1431.9 192.687C1446.83 180.214 1462.14 170.619 1477.41 164.168C1495.5 156.527 1513.24 153.475 1530.14 155.099C1540.44 156.087 1550.71 158.437 1561.57 162.285C1586.81 171.145 1610.47 187.283 1633.36 202.888C1636.82 205.247 1640.4 207.687 1643.89 210.035C1668.09 226.323 1691.62 244.864 1713.83 265.137C1738.07 287.208 1761.82 312.354 1784.39 339.877C1804.35 364.202 1823.92 391.028 1842.57 419.606L1842.13 419.811Z" fill="#FFE492"/>
<path d="M1840.55 403.994C1803.78 341.372 1761.16 288.512 1713.87 246.88C1691.07 226.751 1666.66 208.826 1641.31 193.6C1640.11 192.875 1638.9 192.15 1637.69 191.423C1611.33 175.571 1584.08 159.178 1555.77 151.798C1544.81 148.938 1534.54 147.456 1524.4 147.264C1485.28 146.529 1451.91 170.434 1430.81 190.616C1418.4 202.423 1407.37 215.364 1396.72 227.878C1394.08 230.973 1391.36 234.172 1388.67 237.289C1378.42 249.159 1368.89 262.655 1358.81 276.945C1340.47 302.937 1321.51 329.814 1295.33 351.151C1280.18 363.495 1263.84 372.754 1245.39 379.457C1209.03 392.661 1172.11 396.128 1137.63 397.909C1116.37 399.005 1094.15 398.818 1071.59 397.354C1053.06 396.113 1034.75 393.991 1017.16 391.049C966.295 382.561 916.904 365.032 870.361 338.948C851.722 328.503 832.661 316.085 810.38 299.866C768.034 269.127 736.589 247.476 708.424 229.667C652.406 194.246 609.652 173.407 565.469 159.988C535.889 151.004 504.818 144.829 473.114 141.634C451.118 139.419 427.775 139.617 397.428 142.283C391.21 142.836 384.848 143.486 378.517 144.22C372.537 144.923 366.462 145.728 360.029 146.579C336.278 149.724 309.356 153.289 278.544 152.623C262.303 152.272 245.715 151.313 229.673 150.385C211.442 149.332 192.59 148.242 174.717 148.094C156.797 147.946 140.047 149.138 124.944 151.641C70.9222 160.588 28.0972 180.404 10.389 204.647L9.88672 204.393C14.4858 198.094 20.7539 192.046 28.5158 186.416C36.0082 180.979 44.929 175.906 55.0322 171.333C74.658 162.449 98.7938 155.472 124.829 151.16C139.973 148.653 156.761 147.456 174.723 147.604C192.611 147.752 211.473 148.842 229.712 149.898C245.749 150.825 262.329 151.785 278.557 152.135C309.314 152.799 336.207 149.238 359.932 146.098C366.368 145.245 372.448 144.442 378.431 143.737C384.769 143.003 391.137 142.352 397.36 141.797C427.754 139.129 451.136 138.929 473.179 141.151C504.928 144.35 536.043 150.533 565.665 159.531C609.908 172.968 652.707 193.828 708.774 229.28C736.95 247.096 768.405 268.753 810.762 299.501C833.027 315.706 852.067 328.112 870.686 338.545C917.165 364.592 966.483 382.097 1017.27 390.572C1034.84 393.51 1053.13 395.628 1071.63 396.868C1094.16 398.331 1116.35 398.518 1137.59 397.423C1172.01 395.645 1208.87 392.187 1245.15 379.013C1263.54 372.336 1279.81 363.108 1294.91 350.807C1321.03 329.515 1339.98 302.667 1358.3 276.703C1368.39 262.404 1377.92 248.898 1388.18 237.01C1390.87 233.896 1393.6 230.696 1396.23 227.602C1406.9 215.076 1417.93 202.127 1430.36 190.3C1444.13 177.129 1458.57 166.711 1473.27 159.333C1490.49 150.69 1507.7 146.47 1524.41 146.781C1534.61 146.973 1544.93 148.464 1555.95 151.337C1584.35 158.743 1611.64 175.157 1638.03 191.034C1639.24 191.761 1640.45 192.488 1641.65 193.21C1667.03 208.454 1691.47 226.4 1714.3 246.551C1761.63 288.221 1804.28 341.122 1841.07 403.787L1840.55 403.994Z" fill="#FFE492"/>
<path d="M1150.64 397.683C1149.18 397.683 1147.73 397.681 1146.31 397.674C1125.16 397.6 1102.95 396.229 1080.3 393.596C1061.84 391.408 1043.64 388.39 1026.21 384.627C1001.31 379.26 976.312 371.546 951.917 361.703C928.36 352.196 904.635 340.409 881.399 326.665C858.631 313.2 837.365 298.196 821.381 286.628C783.982 259.637 748.398 237.076 715.618 219.571C662.528 191.222 615.216 173.939 566.722 165.183C537.467 159.901 506.079 157.116 475.858 157.116C475.39 157.116 474.924 157.116 474.456 157.118C448.494 157.192 423.846 161.205 401.081 165.532C395.155 166.666 389.026 167.904 382.862 169.216C379.485 169.943 376.102 170.692 372.524 171.484C347.281 177.08 318.669 183.419 283.91 182.899C262.74 182.582 241.119 180.758 220.208 178.993C206.707 177.852 192.748 176.675 179.432 175.963C161.127 174.986 144.282 175.299 129.36 176.899C75.6262 182.653 30.8051 198.114 9.46057 218.259L8.96875 217.9C19.917 207.569 36.3852 198.624 57.9154 191.311C78.4777 184.329 103.155 179.158 129.276 176.361C144.238 174.76 161.127 174.442 179.474 175.423C192.802 176.135 206.77 177.315 220.276 178.455C241.174 180.22 262.782 182.044 283.923 182.36C318.593 182.88 347.156 176.549 372.356 170.964C375.938 170.17 379.32 169.421 382.7 168.694C388.869 167.382 395.004 166.141 400.934 165.007C423.738 160.674 448.429 156.654 474.454 156.578C505.156 156.489 537.106 159.283 566.861 164.657C591.889 169.177 616.153 175.83 641.034 184.997C664.997 193.827 689.51 204.987 715.969 219.119C748.774 236.636 784.384 259.214 821.807 286.223C837.778 297.784 859.029 312.777 881.773 326.228C928.922 354.116 977.573 373.588 1026.37 384.106C1043.78 387.865 1061.95 390.879 1080.39 393.064C1103.01 395.694 1125.18 397.065 1146.31 397.136C1179.36 397.25 1217.74 396.323 1255.17 383.776C1274.11 377.425 1290.5 368.138 1305.27 355.387C1331.22 332.992 1348.42 304.248 1365.05 276.449C1373.61 262.15 1381.69 248.644 1390.48 236.952C1393.29 233.207 1396.13 229.348 1398.88 225.615C1408.16 213.005 1417.76 199.969 1428.81 187.918C1441.45 174.054 1455.01 162.809 1469.11 154.495C1485.46 144.856 1502.13 139.463 1518.66 138.466C1528.86 137.85 1539.21 138.479 1550.31 140.39C1579.98 145.496 1609.38 160.33 1639.41 176.385C1665.58 190.384 1691.64 208.219 1714.75 227.966C1740.42 249.836 1764.54 275.494 1786.44 304.224C1805.95 329.821 1823.82 357.996 1839.56 387.97L1838.96 388.187C1805.17 323.818 1763.22 270.04 1714.28 228.347C1691.2 208.629 1665.19 190.819 1639.05 176.845C1609.08 160.818 1579.73 146.012 1550.18 140.923C1539.14 139.023 1528.84 138.399 1518.71 139.01C1488.34 140.845 1456.6 158.33 1429.33 188.249C1418.3 200.278 1408.71 213.303 1399.44 225.9C1396.69 229.635 1393.85 233.496 1391.03 237.242C1382.26 248.911 1374.18 262.407 1365.64 276.693C1357.48 290.332 1349.04 304.438 1339.35 317.996C1328.37 333.368 1317.38 345.721 1305.75 355.766C1290.91 368.574 1274.45 377.902 1255.41 384.283C1238.63 389.911 1220.58 393.63 1200.25 395.659C1183.04 397.367 1165.74 397.683 1150.64 397.683Z" fill="#FFE492"/>
<path d="M1192.6 398.773C1179.26 398.773 1166.44 398.111 1154.98 397.441C1133.9 396.209 1111.7 393.652 1089 389.838C1070.62 386.707 1052.54 382.793 1035.25 378.203C987.933 365.661 941.212 344.783 892.425 314.381C871.149 301.124 851.091 286.86 832.376 273.389C795.427 246.869 758.566 225.366 722.812 209.474C670.229 186.102 621.032 173.677 567.983 170.373C537.757 168.491 505.883 169.259 475.803 172.593C450.626 175.384 426.891 182.117 404.733 188.773C399.189 190.446 393.293 192.274 387.21 194.205C385.69 194.69 384.157 195.184 382.603 195.683C357.084 203.892 328.207 213.181 291.148 213.181C290.523 213.181 289.9 213.179 289.27 213.172C264.197 212.961 238.599 209.984 213.841 207.102C204.025 205.96 193.875 204.78 184.135 203.825C165.111 201.962 148.635 201.411 133.763 202.147C79.6705 204.824 34.0123 215.653 8.50037 231.865L8.06348 231.389C20.6755 223.375 38.9122 216.417 60.7956 211.268C82.3206 206.203 107.537 202.843 133.718 201.548C148.633 200.81 165.151 201.361 184.216 203.228C193.966 204.184 204.119 205.365 213.938 206.506C238.672 209.383 264.247 212.358 289.272 212.569C327.103 212.891 356.45 203.448 382.339 195.119C383.89 194.621 385.426 194.127 386.946 193.639C393.034 191.706 398.933 189.878 404.481 188.205C426.676 181.536 450.456 174.794 475.701 171.995C505.828 168.656 537.754 167.886 568.03 169.771C594.319 171.407 619.384 175.273 644.655 181.584C670.682 188.085 696.356 197.032 723.145 208.941C758.943 224.855 795.85 246.384 832.839 272.929C851.547 286.397 871.591 300.652 892.849 313.896C941.571 344.256 988.22 365.104 1035.47 377.627C1052.72 382.208 1070.78 386.117 1089.14 389.244C1111.81 393.053 1133.97 395.608 1155.02 396.836C1190.44 398.903 1228.11 399.965 1265.18 388.524C1284.68 382.502 1301.19 373.156 1315.63 359.952C1341.37 336.432 1357.39 304.35 1371.52 276.044C1378.63 261.801 1385.35 248.349 1392.76 236.882C1395.43 232.744 1398.13 228.468 1400.73 224.333C1408.87 211.394 1417.29 198.016 1427.25 185.521C1438.78 170.965 1451.47 158.893 1464.95 149.639C1480.44 139.012 1496.57 132.448 1512.9 130.134C1523.1 128.687 1533.49 128.456 1544.66 129.423C1575.85 132.128 1607.55 145.495 1637.15 159.539C1664.49 172.506 1691.47 189.735 1715.19 209.361C1741.58 231.13 1765.9 257.044 1787.46 286.379C1806.74 312.614 1823.76 341.464 1838.04 372.134L1837.37 372.349C1807.01 307.157 1764.58 250.943 1714.69 209.784C1691.01 190.194 1664.08 172.998 1636.8 160.057C1607.27 146.046 1575.65 132.711 1544.59 130.017C1533.49 129.055 1523.16 129.285 1513.02 130.722C1482.87 134.994 1452.63 154.571 1427.86 185.848C1417.91 198.316 1409.5 211.681 1401.37 224.607C1398.77 228.744 1396.08 233.021 1393.4 237.163C1386 248.604 1379.29 262.043 1372.19 276.27C1358.03 304.62 1341.99 336.754 1316.17 360.353C1301.64 373.629 1285.04 383.026 1265.43 389.083C1248.41 394.337 1230.05 397.38 1209.3 398.379C1203.68 398.662 1198.1 398.773 1192.6 398.773Z" fill="#FFE492"/>
<path d="M1218.93 401.13C1218.73 401.13 1218.55 401.13 1218.36 401.13C1199.5 401.091 1181 399.172 1163.65 397.209C1142.6 394.828 1120.42 391.082 1097.7 386.081C1079.41 382.009 1061.44 377.197 1044.3 371.782C998.873 357.446 954.12 335.306 903.459 302.1C885.215 290.145 867.261 277.272 849.896 264.825C847.724 263.267 845.55 261.711 843.376 260.155C806.236 233.642 768.096 213.195 730.019 199.383C677.879 180.473 625.293 172.681 569.257 175.565C538.531 177.147 506.686 181.472 477.163 188.071C453.87 193.279 433.114 201.634 408.397 212.015C403.388 214.129 398.038 216.409 391.566 219.195L391.205 219.352C378.718 224.762 364.565 230.893 348.691 235.555C330.459 240.909 312.772 243.486 294.635 243.455C266.353 243.397 237.49 239.018 209.579 234.78C202.74 233.742 195.667 232.669 188.839 231.699C169.257 228.919 152.682 227.515 138.165 227.409C84.7139 227.017 37.0962 233.607 7.52418 245.486L7.18408 244.898C21.6693 239.079 41.2087 234.356 63.6885 231.239C86.2103 228.116 111.968 226.567 138.173 226.758C152.732 226.865 169.349 228.271 188.972 231.056C195.805 232.027 202.879 233.1 209.72 234.138C237.597 238.369 266.423 242.744 294.638 242.802C294.763 242.802 294.891 242.802 295.017 242.802C335.375 242.802 366.122 229.483 390.844 218.773L391.207 218.616C397.682 215.828 403.032 213.547 408.044 211.434C432.803 201.035 453.595 192.665 476.962 187.442C506.534 180.83 538.432 176.499 569.21 174.914C596.631 173.504 622.496 174.579 648.288 178.205C676.081 182.112 702.92 188.843 730.333 198.787C768.483 212.625 806.689 233.104 843.889 259.661C846.063 261.217 848.237 262.775 850.408 264.333C867.766 276.776 885.715 289.645 903.943 301.591C954.538 334.755 999.226 356.865 1044.58 371.177C1061.69 376.585 1079.63 381.388 1097.9 385.456C1120.59 390.451 1142.74 394.19 1163.76 396.567C1201.39 400.828 1238.24 403.783 1275.21 393.302C1295.27 387.613 1311.88 378.209 1326 364.55C1351.51 339.876 1365.44 305.687 1377.74 275.52C1383.49 261.398 1388.93 248.056 1395.06 236.846C1397.42 232.532 1399.79 228.07 1402.08 223.755C1409.23 210.261 1416.64 196.31 1425.71 183.156C1436.16 167.902 1447.96 155 1460.8 144.811C1475.43 133.197 1491.02 125.467 1507.14 121.837C1517.14 119.586 1527.34 118.489 1538.3 118.489C1538.54 118.489 1538.77 118.489 1539.01 118.491C1573.09 118.639 1608.16 131.519 1634.91 142.723C1663.4 154.661 1691.32 171.28 1715.65 190.785C1742.76 212.453 1767.26 238.622 1788.49 268.567C1807.53 295.438 1823.7 324.966 1836.54 356.332L1835.8 356.543C1816.69 309.872 1780.23 243.314 1715.11 191.257C1690.83 171.796 1662.98 155.216 1634.55 143.307C1607.89 132.133 1572.92 119.29 1539.01 119.144C1527.84 119.09 1517.49 120.182 1507.35 122.468C1477.48 129.195 1448.73 150.863 1426.39 183.481C1417.34 196.604 1409.94 210.54 1402.79 224.018C1400.5 228.336 1398.13 232.8 1395.77 237.116C1389.66 248.298 1384.23 261.622 1378.48 275.729C1366.16 305.95 1352.2 340.205 1326.6 364.974C1312.38 378.724 1295.66 388.192 1275.46 393.918C1258.34 398.769 1239.84 401.13 1218.93 401.13Z" fill="#FFE492"/>
<path d="M1239.86 404.195C1235.8 404.195 1231.65 404.086 1227.4 403.868C1208.81 402.917 1190.74 400.064 1172.32 396.974C1150.97 393.391 1129.41 388.599 1106.4 382.322C1088.2 377.312 1070.35 371.606 1053.35 365.357C1010.22 349.53 967.394 326.232 914.494 289.817C901.356 280.774 888.224 271.289 875.523 262.116C868.608 257.123 861.461 251.959 854.38 246.916C816.797 220.225 777.384 200.837 737.232 189.289C684.181 174.031 629.657 171.236 570.539 180.747C539.306 185.772 507.489 193.653 478.532 203.536C455.27 211.476 435.006 222.625 413.551 234.43L412.068 235.246C408.717 237.096 405.329 238.972 401.899 240.87C399.924 241.965 397.936 243.066 395.929 244.176C383.419 251.134 369.907 258.392 354.413 263.979C336.422 270.464 318.627 273.655 300.006 273.733C269.006 273.86 237.385 267.866 206.809 262.064C202.445 261.234 197.93 260.379 193.548 259.567C173.004 255.759 156.808 253.567 142.571 252.666C90.0353 249.343 40.4556 251.684 6.54088 259.093L6.32373 258.409C40.3274 250.981 90.0091 248.631 142.637 251.961C156.912 252.864 173.15 255.062 193.734 258.877C198.118 259.691 202.633 260.547 207 261.376C237.202 267.106 268.422 273.028 299.012 273.028C299.342 273.028 299.671 273.028 300.004 273.026C339.569 272.861 367.733 259.006 395.461 243.588C397.468 242.478 399.456 241.377 401.431 240.282C404.861 238.382 408.246 236.508 411.6 234.656L413.083 233.84C434.574 222.016 454.872 210.847 478.21 202.881C507.22 192.978 539.091 185.085 570.379 180.051C629.646 170.516 684.317 173.319 737.512 188.619C777.763 200.198 817.268 219.628 854.934 246.378C862.016 251.423 869.166 256.586 876.08 261.58C888.776 270.752 901.906 280.234 915.036 289.271C967.873 325.645 1010.64 348.91 1053.69 364.711C1070.67 370.948 1088.49 376.648 1106.67 381.65C1129.64 387.918 1151.17 392.703 1172.49 396.279C1204.85 401.709 1245.13 408.469 1285.23 398.057C1305.85 392.706 1322.58 383.243 1336.37 369.127C1361.63 343.271 1373.34 306.906 1383.68 274.824C1388.17 260.886 1392.41 247.721 1397.36 236.796C1399.29 232.539 1401.22 228.136 1403.09 223.877C1409.35 209.593 1415.84 194.824 1424.16 180.778C1433.55 164.814 1444.48 151.083 1456.64 139.966C1470.42 127.369 1485.47 118.474 1501.38 113.527C1511.59 110.352 1522.05 108.395 1533.36 107.544C1548.52 106.404 1564.64 107.623 1582.67 111.262C1597.92 114.343 1614.27 119.127 1632.66 125.889C1662.31 136.795 1691.16 152.807 1716.1 172.192C1743.93 193.758 1768.63 220.185 1789.51 250.738C1808.31 278.249 1823.63 308.453 1835.03 340.514L1834.22 340.714C1810.13 273.028 1767.98 213.363 1715.52 172.71C1690.65 153.377 1661.88 137.411 1632.31 126.538C1592.7 111.969 1561.29 106.156 1533.44 108.249C1522.2 109.094 1511.81 111.037 1501.68 114.189C1463.83 125.957 1439.05 157.066 1424.92 181.089C1416.62 195.1 1410.15 209.852 1403.88 224.118C1402.01 228.38 1400.08 232.785 1398.15 237.044C1393.22 247.937 1388.98 261.086 1384.5 275.007C1374.14 307.158 1362.4 343.6 1337.03 369.573C1323.13 383.8 1306.27 393.339 1285.48 398.734C1271.4 402.391 1256.37 404.195 1239.86 404.195Z" fill="#FFE492"/>
<path d="M1258 407.707C1230.34 407.707 1203.74 401.793 1180.98 396.735C1159.58 391.978 1138.03 386.032 1115.1 378.56C1097 372.619 1079.26 366.016 1062.39 358.931C1011.81 337.72 966.716 307.275 925.523 277.532C917.113 271.46 908.616 265.201 900.401 259.148C888.995 250.743 877.199 242.053 865.38 233.678C827.235 206.724 786.547 188.392 744.45 179.192C689.991 167.294 633.523 169.494 571.82 185.922C540.051 194.379 508.266 205.816 479.9 218.996C458.022 229.16 439.51 241.992 419.913 255.577C418.524 256.539 417.132 257.505 415.733 258.472L414.974 258.998C410.21 262.304 405.284 265.721 400.29 269.151C388.324 277.406 375.147 285.944 359.906 292.467C342.213 300.038 324.377 303.814 305.371 304.01C272.011 304.356 238.01 296.554 205.131 289.008C202.827 288.48 200.532 287.953 198.249 287.433C176.567 282.484 160.75 279.55 146.968 277.918C95.7511 271.854 44.204 269.948 5.54379 272.688L5.46533 271.928C44.1884 269.182 95.8112 271.09 147.097 277.162C160.917 278.799 176.768 281.739 198.489 286.697C200.773 287.217 203.067 287.744 205.375 288.275C238.191 295.805 272.126 303.588 305.358 303.249C346.632 302.822 375.699 285.121 399.704 268.563C404.698 265.133 409.624 261.717 414.388 258.413L415.147 257.886C416.546 256.918 417.938 255.953 419.327 254.991C438.958 241.383 457.501 228.529 479.452 218.33C507.871 205.126 539.716 193.67 571.541 185.197C600.793 177.41 628.27 172.913 655.537 171.451C685.954 169.821 715.945 172.178 744.68 178.457C786.911 187.684 827.719 206.068 865.971 233.097C877.798 241.476 889.597 250.169 901.006 258.576C909.22 264.629 917.712 270.886 926.12 276.956C967.271 306.665 1012.31 337.078 1062.8 358.25C1079.65 365.324 1097.36 371.918 1115.43 377.851C1138.32 385.312 1159.84 391.249 1181.22 396C1214.04 403.295 1254.89 412.375 1295.25 402.821C1316.43 397.806 1333.26 388.284 1346.72 373.711C1371.72 346.639 1381.08 308.037 1389.33 273.976C1392.65 260.291 1395.78 247.365 1399.64 236.751C1401.07 232.825 1402.5 228.768 1403.89 224.844C1409.32 209.496 1414.93 193.624 1422.6 178.404C1430.95 161.718 1441 147.154 1452.46 135.12C1465.4 121.542 1479.92 111.483 1495.6 105.221C1505.79 101.156 1516.29 98.3371 1527.7 96.6026C1543.07 94.2673 1560.13 94.3456 1578.39 96.8354C1594.39 99.0162 1611.89 103.127 1630.39 109.058C1661.2 118.932 1690.99 134.335 1716.54 153.6C1745.1 175.066 1769.98 201.748 1790.52 232.91C1809.07 261.061 1823.54 291.944 1833.52 324.699L1832.63 324.886C1811.49 255.481 1770.05 194.851 1715.93 154.166C1690.46 134.964 1660.76 119.611 1630.06 109.77C1590.26 97.0139 1556.83 92.9506 1527.86 97.3534C1516.53 99.0749 1506.11 101.874 1496 105.909C1458.68 120.806 1435.94 153.713 1423.44 178.698C1415.79 193.878 1410.19 209.729 1404.77 225.057C1403.38 228.981 1401.95 233.04 1400.52 236.971C1396.67 247.55 1393.54 260.459 1390.23 274.126C1386.26 290.512 1381.76 309.083 1375.23 326.495C1367.74 346.443 1358.66 362.039 1347.45 374.175C1340.97 381.192 1333.53 387.164 1325.32 391.926C1316.49 397.047 1306.46 400.96 1295.5 403.554C1282.96 406.525 1270.37 407.707 1258 407.707Z" fill="#FFE492"/>
<path d="M1274.35 411.562C1265.21 411.562 1255.62 410.822 1245.5 409.345C1225.57 406.435 1206.49 401.155 1189.65 396.5C1168.43 390.63 1146.27 383.328 1123.8 374.799C1105.81 367.934 1088.19 360.435 1071.43 352.504C1023.33 329.767 981.889 299.535 936.553 265.248C932.524 262.201 928.432 259.093 924.477 256.085C908.898 244.248 892.791 232.008 876.381 220.443C837.603 193.173 795.643 175.899 751.667 169.099C696.196 160.522 636.116 167.922 573.102 191.096C540.768 202.988 509.011 217.979 481.268 234.452C460.379 246.855 443.183 261.478 424.978 276.961C423.128 278.535 421.271 280.113 419.403 281.697C414.754 285.645 409.747 289.883 404.654 294.124C393.972 303.05 380.955 313.22 365.402 320.953C347.992 329.61 330.112 333.974 310.742 334.29C275.284 334.871 239.19 325.103 204.284 315.658L202.955 315.298C185.864 310.676 167.785 306.005 151.371 303.169C101.342 294.527 49.2008 288.527 4.55762 286.274L4.61778 285.46C49.3081 287.715 101.496 293.72 151.57 302.371C168.03 305.215 186.142 309.892 203.258 314.521L204.587 314.881C239.418 324.304 275.438 334.048 310.724 333.471C351.474 332.805 379.618 313.888 403.961 293.543C409.054 289.304 414.056 285.066 418.705 281.12C420.573 279.538 422.43 277.958 424.28 276.387C442.516 260.878 459.743 246.229 480.7 233.784C508.496 217.278 540.313 202.259 572.707 190.345C602.272 179.474 631.365 171.983 659.174 168.083C690.948 163.628 722.129 163.698 751.85 168.292C795.994 175.117 838.107 192.452 877.016 219.816C893.44 231.392 909.555 243.636 925.141 255.48C929.097 258.486 933.188 261.594 937.217 264.641C982.509 298.895 1023.91 329.095 1071.92 351.792C1088.66 359.71 1106.25 367.199 1124.21 374.054C1146.65 382.571 1168.77 389.862 1189.96 395.723C1223.18 404.911 1264.52 416.344 1305.28 407.584C1327.02 402.911 1343.97 393.333 1357.09 378.298C1381.82 349.973 1388.97 307.278 1394.72 272.972C1396.96 259.609 1399.08 246.988 1401.94 236.716C1402.85 233.477 1403.76 230.141 1404.64 226.913C1409.22 210.146 1413.96 192.807 1421.06 176.04C1432.03 149.947 1452.87 115.042 1489.84 96.9282C1500.05 91.9269 1510.59 88.2444 1522.05 85.672C1552.03 78.8446 1587.72 81.0536 1628.14 92.2338C1660.1 101.076 1690.83 115.869 1717 135.015C1746.28 156.378 1771.36 183.318 1791.55 215.091C1800.82 229.664 1809 245.23 1815.89 261.354C1822.46 276.757 1827.89 292.751 1832.01 308.893L1831.05 309.063C1812.88 237.934 1772.15 176.34 1716.35 135.627C1690.28 116.553 1659.67 101.816 1627.83 93.0064C1587.6 81.8763 1552.1 79.6738 1522.3 86.4576C1510.93 89.0105 1500.47 92.6647 1490.34 97.629C1453.62 115.617 1432.9 150.343 1421.99 176.308C1414.9 193.031 1410.17 210.346 1405.6 227.092C1404.71 230.319 1403.8 233.658 1402.9 236.898C1400.04 247.136 1397.93 259.74 1395.69 273.083C1392.8 290.346 1389.52 309.912 1383.92 328.379C1377.48 349.598 1368.97 366.084 1357.89 378.777C1351.57 386.018 1344.17 392.125 1335.92 396.926C1327.02 402.099 1316.8 405.952 1305.53 408.372C1295.63 410.5 1285.3 411.562 1274.35 411.562Z" fill="#FFE492"/>
<path d="M1289.42 415.632C1278.46 415.632 1266.9 414.45 1254.55 412.08C1234.54 408.243 1215.29 401.875 1198.31 396.256C1176.93 389.182 1154.78 380.697 1132.49 371.031C1114.62 363.251 1097.12 354.854 1080.47 346.072C1034.66 321.925 995.367 290.803 953.766 257.857C951.707 256.227 949.649 254.594 947.585 252.962C928.239 237.658 908.236 221.831 887.384 207.206C847.931 179.59 804.7 163.371 758.893 159.001C701.355 153.51 639.278 166.048 574.384 196.263C541.924 211.376 509.341 230.426 482.636 249.902C462.471 264.608 446.299 281.155 429.177 298.675C427.149 300.749 425.117 302.83 423.068 304.915C418.977 309.087 414.108 314.034 409.012 319.094C399.573 328.489 386.713 340.429 370.896 349.411C353.763 359.142 335.843 364.102 316.11 364.57C299.891 364.907 281.992 362.824 261.387 358.199C243.698 354.23 226.586 349.041 207.651 343.165C190.366 337.735 172.125 332.126 155.758 328.422C107.28 317.449 56.0732 307.84 3.56348 299.857L3.75183 299.001C56.2929 306.987 107.529 316.604 156.033 327.582C172.444 331.297 190.712 336.914 208.017 342.349C239.755 352.201 279.255 364.467 316.082 363.699C358.185 362.698 385.243 341.4 408.209 318.532C413.302 313.477 418.168 308.532 422.257 304.362C424.306 302.277 426.338 300.196 428.363 298.124C445.514 280.576 461.715 264.001 481.945 249.247C508.705 229.731 541.351 210.644 573.874 195.503C638.964 165.197 701.256 152.626 759.013 158.137C781.158 160.25 802.911 165.158 823.661 172.723C845.927 180.839 867.593 192.219 888.059 206.542C908.935 221.183 928.95 237.018 948.307 252.333C950.371 253.968 952.432 255.598 954.491 257.228C996.052 290.146 1035.31 321.238 1081.04 345.339C1097.66 354.108 1115.14 362.493 1132.98 370.261C1155.24 379.911 1177.35 388.386 1198.7 395.448C1232.25 406.548 1274.01 420.361 1315.31 412.35C1337.67 408.01 1354.73 398.373 1367.45 382.89C1391.96 353.318 1396.32 308.142 1399.83 271.844C1401.09 258.862 1402.27 246.601 1404.23 236.685C1404.64 234.639 1405.05 232.582 1405.45 230.515C1409.12 211.839 1412.91 192.526 1419.51 173.678C1428.92 146.569 1447.76 109.81 1484.07 88.6382C1494.2 82.7315 1504.77 78.1872 1516.39 74.7442C1532.53 69.9148 1550.52 67.6448 1569.86 67.993C1587.51 68.3108 1606.36 70.8071 1625.88 75.4101C1658.99 83.2168 1690.65 97.4004 1717.44 116.426C1747.44 137.685 1772.72 164.886 1792.57 197.268C1801.68 212.127 1809.57 228.012 1816.01 244.483C1822.19 260.257 1827.06 276.611 1830.5 293.088L1829.47 293.236C1814.49 221.435 1773.41 157.231 1716.77 117.088C1690.09 98.1447 1658.56 84.0199 1625.59 76.2437C1584.93 66.6545 1547.29 66.4195 1516.73 75.5603C1505.21 78.9772 1494.72 83.4867 1484.67 89.3477C1448.61 110.374 1429.87 146.944 1420.51 173.918C1413.93 192.715 1410.14 212 1406.48 230.652C1406.08 232.72 1405.67 234.778 1405.27 236.824C1403.31 246.703 1402.12 258.949 1400.87 271.912C1397.35 308.314 1392.98 353.62 1368.31 383.382C1362.18 390.845 1354.85 397.091 1346.52 401.943C1337.56 407.161 1327.14 410.948 1315.54 413.199C1307.17 414.818 1298.5 415.632 1289.42 415.632Z" fill="#FFE492"/>
<path d="M1303.58 419.869C1291.09 419.869 1277.86 418.189 1263.6 414.816C1243.42 410.043 1224.05 402.589 1206.97 396.014C1185.38 387.704 1163.24 378.03 1141.18 367.266C1123.44 358.582 1106.06 349.287 1089.51 339.643C1048.76 315.903 1013.93 286.82 977.055 256.028C971.028 250.994 964.793 245.791 958.609 240.674C936.87 222.697 918.306 207.873 898.379 193.969C858.223 165.987 813.723 150.824 766.114 148.9C706.289 146.482 642.209 164.154 575.656 201.425C542.594 219.942 510.04 242.641 483.992 265.345C464.369 282.45 449.028 301.069 432.787 320.78C430.776 323.222 428.756 325.673 426.723 328.126C423.103 332.502 418.31 338.27 413.363 344.052C392.544 368.445 365.345 393.559 321.471 394.843C320.103 394.88 318.729 394.897 317.359 394.897C283.099 394.897 248.122 383.617 212.339 371.022L210.105 370.23C192.381 363.936 175.638 357.992 160.141 353.665C101.737 337.36 45.2536 323.596 2.56982 313.428L2.87592 312.538C45.5701 322.711 102.069 336.476 160.494 352.788C176.033 357.126 192.795 363.078 210.542 369.379L212.773 370.171C249.867 383.227 286.091 394.873 321.432 393.92C364.819 392.649 391.791 367.729 412.455 343.519C417.4 337.741 422.187 331.978 425.808 327.603C427.84 325.148 429.857 322.7 431.869 320.258C448.136 300.516 463.5 281.866 483.186 264.708C509.286 241.956 541.906 219.21 575.033 200.657C605.78 183.437 636.537 170.215 666.449 161.355C700.769 151.189 734.321 146.689 766.166 147.975C814.022 149.907 858.746 165.144 899.091 193.257C919.046 207.184 937.628 222.022 959.389 240.014C965.576 245.131 971.81 250.337 977.84 255.371C1014.68 286.132 1049.47 315.187 1090.14 338.879C1106.67 348.512 1124.03 357.792 1141.74 366.463C1163.77 377.214 1185.87 386.873 1207.43 395.169C1241.28 408.195 1283.4 424.405 1325.33 417.107C1348.24 413.118 1365.41 403.424 1377.81 387.474C1402 356.554 1403.46 308.836 1404.63 270.495C1405.01 257.985 1405.37 246.167 1406.52 236.645L1406.55 236.428C1409.14 215.106 1411.81 193.059 1417.95 171.306C1423.26 152.332 1430.66 135.273 1439.94 120.6C1450.4 104.057 1463.31 90.5116 1478.29 80.337C1488.32 73.5293 1498.92 68.1209 1510.71 63.8051C1542.57 52.0766 1581.6 50.2658 1623.6 58.5731C1640.51 61.916 1657.18 66.9805 1673.16 73.6228C1689.24 80.3043 1704.29 88.4506 1717.89 97.8308C1748.61 118.988 1774.08 146.445 1793.59 179.441C1811.12 209.099 1823.36 242.931 1828.99 277.276L1827.88 277.4C1815.85 203.891 1775.5 138.699 1717.18 98.5425C1689.9 79.7341 1657.46 66.2231 1623.35 59.4785C1581.59 51.2191 1542.8 53.0102 1511.16 64.6583C1499.47 68.9414 1488.95 74.3062 1479 81.0596C1451.02 100.057 1430.29 131.339 1419.03 171.521C1412.91 193.218 1410.24 215.234 1407.66 236.526L1407.63 236.743C1406.48 246.23 1406.12 258.031 1405.74 270.523C1404.56 308.982 1403.1 356.843 1378.74 387.981C1372.76 395.672 1365.48 402.053 1357.1 406.946C1348.07 412.221 1337.46 415.945 1325.55 418.019C1318.46 419.251 1311.16 419.869 1303.58 419.869Z" fill="#FFE492"/>
<path d="M322.284 425.198C306.965 425.198 290.282 422.715 271.454 417.644C252.747 412.606 234.246 405.65 217.037 398.886C213.922 397.654 210.829 396.424 207.758 395.203C192.47 389.125 178.029 383.383 164.533 378.911C110.718 361.084 59.4219 345.062 9.81345 329.57L1.59375 327.002L2.00708 326.086L10.2268 328.654C59.8379 344.15 111.142 360.172 164.967 378.003C178.5 382.487 192.959 388.235 208.266 394.322C211.334 395.543 214.427 396.773 217.54 398.002C252.864 411.888 290.395 425.344 326.795 424.145C371.54 422.595 398.354 393.597 416.714 368.51C421.418 362.094 425.949 355.7 429.371 350.846C431.259 348.172 433.135 345.499 435.006 342.833C450.519 320.732 465.171 299.856 484.441 280.173C509.877 254.195 542.466 227.787 576.208 205.816C607.512 185.432 639.101 169.327 670.101 157.949C705.659 144.897 740.39 138.124 773.329 137.817C822.893 137.203 868.927 151.389 910.136 179.976C932.979 195.842 953.46 213.005 970.486 227.702C979.749 235.7 989.013 243.899 997.973 251.827C1029.69 279.896 1062.48 308.918 1099.26 332.425C1115.69 342.929 1132.94 353.105 1150.51 362.671C1172.27 374.482 1194.36 385.325 1216.17 394.896C1250.28 409.857 1292.72 428.476 1335.36 421.868C1358.83 418.232 1376.1 408.482 1388.17 392.061C1412.04 359.739 1410.43 309.408 1409.13 268.966C1408.75 257.007 1408.39 245.709 1408.82 236.614C1409.8 216.111 1411.28 192.281 1416.4 168.942C1420.72 149.165 1427.23 131.273 1435.76 115.764C1445.42 98.2199 1457.79 83.5119 1472.52 72.0467C1482.29 64.4489 1493.24 58.0003 1505.05 52.8771C1521.92 45.5426 1540.84 40.9309 1561.3 39.1723C1580.46 37.5248 1600.66 38.391 1621.34 41.7448C1638.78 44.5741 1655.97 49.2273 1672.43 55.578C1689 61.9678 1704.44 69.9291 1718.34 79.2396C1734.35 89.9605 1749.08 102.621 1762.1 116.869C1774.45 130.37 1785.38 145.426 1794.62 161.618C1811.89 191.911 1823.25 226.442 1827.48 261.471L1826.31 261.569C1817.23 186.346 1777.6 120.169 1717.6 80.0036C1690.12 61.587 1655.85 48.3415 1621.11 42.7068C1578.16 35.7402 1538.22 39.5576 1505.6 53.7454C1493.87 58.8273 1483.02 65.2259 1473.33 72.7627C1445.56 94.3655 1426.79 126.783 1417.56 169.118C1412.45 192.394 1410.98 216.182 1410 236.653C1409.56 245.716 1409.93 256.996 1410.31 268.94C1410.95 288.891 1411.67 311.506 1409.24 333.368C1406.43 358.736 1399.86 378.101 1389.17 392.572C1383.35 400.49 1376.13 407.008 1367.7 411.944C1358.6 417.276 1347.79 420.939 1335.57 422.83C1329.41 423.786 1323.26 424.219 1317.14 424.219C1280.5 424.219 1244.99 408.64 1215.63 395.761C1193.78 386.174 1171.65 375.316 1149.87 363.487C1132.27 353.909 1115 343.717 1098.55 333.198C1061.69 309.643 1028.86 280.59 997.117 252.495C988.16 244.569 978.899 236.373 969.641 228.379C952.639 213.699 932.187 196.56 909.385 180.725C868.399 152.29 822.634 138.187 773.347 138.792C695.945 139.515 623.815 176.054 576.935 206.582C543.261 228.509 510.738 254.861 485.357 280.786C466.145 300.411 451.513 321.254 436.023 343.32C434.153 345.986 432.274 348.659 430.386 351.336C426.961 356.192 422.428 362.59 417.721 369.013C410.014 379.544 397.915 394.875 381.889 406.366C374.106 411.946 365.824 416.332 357.272 419.403C347.736 422.826 337.497 424.75 326.844 425.118C325.335 425.172 323.815 425.198 322.284 425.198Z" fill="#FFE492"/>
<path d="M327.203 455.499C311.865 455.499 295.216 452.824 276.488 447.366C257.098 441.716 237.927 433.772 221.734 426.745C216.758 424.581 211.793 422.388 206.99 420.266C193.564 414.335 180.881 408.731 168.923 404.156C125.98 387.724 83.3176 371.682 42.057 356.167C28.409 351.035 14.2979 345.729 0.621094 340.575L1.13383 339.633C14.8106 344.786 28.9217 350.092 42.5697 355.224C83.8303 370.74 126.498 386.784 169.444 403.218C181.433 407.806 194.132 413.414 207.573 419.354C212.373 421.476 217.339 423.667 222.309 425.831C255.894 440.399 294.85 455.821 332.153 454.37C377.952 452.546 403.676 420.881 420.973 393.5C425.408 386.486 429.695 379.443 432.934 374.091C434.598 371.345 436.251 368.6 437.902 365.862C452.74 341.237 466.755 317.977 485.7 295.641C510.341 266.591 542.903 236.524 577.383 210.98C625.401 175.559 699.616 132.353 780.489 127.668C831.921 124.608 879.259 137.74 921.181 166.703C940.017 179.722 958.643 194.739 981.581 215.4C993.173 225.84 1004.68 236.661 1015.8 247.123C1044.74 274.343 1074.66 302.49 1108.38 325.984C1124.72 337.369 1141.84 348.44 1159.29 358.891C1180.41 371.534 1202.49 383.561 1224.92 394.639C1259.36 411.551 1302.23 432.604 1345.38 426.645C1369.04 423.445 1386.92 413.358 1398.53 396.665C1422.07 362.881 1417.02 307.609 1413.33 267.252C1412.29 255.926 1411.31 245.23 1411.12 236.6C1410.69 217.422 1410.73 192.134 1414.86 166.594C1421.98 122.338 1439.44 87.7417 1466.76 63.7731C1476.33 55.3287 1487.32 47.9921 1499.39 41.9657C1516.58 33.382 1535.97 27.6081 1557.02 24.8071C1576.86 22.1693 1597.74 22.2106 1619.07 24.9311C1637.08 27.2773 1654.79 31.5299 1671.7 37.5672C1688.78 43.6655 1704.62 51.4352 1718.79 60.6609C1735.16 71.3208 1750.12 84.0244 1763.24 98.4212C1775.68 112.065 1786.58 127.335 1795.64 143.81C1812.65 174.741 1823.13 209.968 1825.97 245.682L1824.73 245.75C1818.62 168.81 1779.72 101.644 1718.02 61.477C1690.05 43.2541 1654.84 30.6376 1618.89 25.954C1574.57 20.3063 1533.47 26.1499 1500.04 42.8537C1488.06 48.83 1477.17 56.1079 1467.67 64.4848C1440.53 88.2945 1423.18 122.694 1416.09 166.734C1411.98 192.204 1411.94 217.441 1412.37 236.583C1412.56 245.182 1413.54 255.866 1414.57 267.176C1416.48 288.037 1418.64 311.683 1417.4 334.768C1415.96 361.649 1410.14 382.066 1399.61 397.185C1393.94 405.34 1386.77 412 1378.29 416.979C1369.11 422.379 1358.11 425.974 1345.59 427.667C1326.18 430.347 1305.29 427.94 1281.72 420.307C1261.23 413.671 1241.6 404.034 1224.29 395.533C1201.83 384.44 1179.72 372.396 1158.57 359.736C1141.1 349.27 1123.94 338.183 1107.59 326.783C1073.8 303.241 1043.84 275.063 1014.87 247.815C1003.75 237.355 992.252 226.541 980.671 216.109C957.772 195.486 939.18 180.497 920.389 167.509C878.715 138.711 831.678 125.657 780.573 128.697C700.048 133.365 626.078 176.438 578.204 211.752C543.793 237.244 511.298 267.248 486.71 296.238C467.817 318.511 453.823 341.737 439.009 366.326C437.358 369.066 435.705 371.81 434.041 374.557C430.799 379.913 426.509 386.962 422.07 393.983C404.62 421.608 378.638 453.556 332.208 455.403C330.557 455.467 328.885 455.499 327.203 455.499Z" fill="#FFE492"/>
<path d="M333.573 486.882C291.663 486.882 247.69 465.468 208.708 446.483C196.729 440.651 185.414 435.14 174.662 430.48L1 355.227L1.60433 354.263L175.267 429.516C186.048 434.187 197.375 439.704 209.37 445.545C249.859 465.263 295.752 487.613 338.863 485.676C385.672 483.576 410.331 449.245 426.585 419.575C431.9 409.87 437.033 399.996 441.998 390.446C455.578 364.329 469.619 337.322 488.305 312.187C503.144 292.23 521.577 271.299 541.61 251.662C563.588 230.118 587.12 210.352 611.546 192.914C638.478 173.69 665.863 157.787 692.937 145.65C722.883 132.226 752.384 123.461 780.627 119.598C837.205 111.861 888.663 123.603 933.568 154.501C970.886 180.176 1002.6 211.925 1033.28 242.63C1059.98 269.356 1087.58 296.989 1118.85 320.612C1154.96 347.895 1194.04 373.074 1235.01 395.445C1269.53 414.295 1312.49 437.756 1356.76 432.483C1394.16 428.03 1415.78 407.215 1422.86 368.845C1428.88 336.208 1423.15 297.492 1418.55 266.385C1416.98 255.784 1415.5 245.77 1414.77 237.65C1410.76 192.886 1413.32 155.933 1422.59 124.682C1428.38 105.184 1436.92 87.8035 1447.97 73.0236C1460.32 56.5135 1476.17 42.75 1495.08 32.1162C1511.44 22.9166 1529.89 16.2351 1549.9 12.2566C1568.94 8.46972 1589 7.20089 1609.5 8.48496C1649.83 11.0096 1689.28 23.3192 1720.58 43.144C1737.31 53.7408 1752.5 66.4901 1765.73 81.0349C1778.26 94.8202 1789.12 110.305 1798.01 127.063C1814.74 158.632 1824.35 194.558 1825.8 230.953L1824.49 230.99C1821.41 153.485 1782.26 83.5856 1719.78 44.0123C1653.43 1.98625 1559.23 -2.63857 1495.81 33.0194C1432.98 68.3422 1406.9 135.251 1416.07 237.57C1416.8 245.664 1418.28 255.664 1419.85 266.252C1424.46 297.427 1430.2 336.225 1424.15 369.01C1420.85 386.868 1414.23 401.219 1404.46 411.668C1398.97 417.542 1392.35 422.343 1384.78 425.934C1376.72 429.756 1367.36 432.322 1356.95 433.562C1352.69 434.069 1348.36 434.324 1343.96 434.324C1327.91 434.324 1310.82 430.948 1292.1 424.11C1271 416.406 1250.64 405.289 1234.29 396.357C1193.26 373.953 1154.12 348.742 1117.96 321.419C1086.63 297.747 1058.99 270.08 1032.26 243.326C1001.63 212.661 969.952 180.951 932.728 155.341C888.124 124.654 837.019 112.989 780.832 120.673C667.174 136.217 550.094 231.143 489.409 312.762C470.773 337.827 456.75 364.797 443.189 390.879C438.221 400.433 433.085 410.314 427.764 420.027C416.973 439.726 406.315 453.831 394.224 464.413C386.676 471.016 378.488 476.222 369.887 479.884C360.322 483.956 349.905 486.272 338.923 486.766C337.149 486.842 335.362 486.882 333.573 486.882Z" fill="#FFE492"/>
</g>
</svg>
