<svg width="319" height="319" viewBox="0 0 319 319" fill="none" xmlns="http://www.w3.org/2000/svg">
<circle cx="159.303" cy="159.091" r="159.091" fill="#D7FED9"/>
<g filter="url(#filter0_i_368_18724)">
<path d="M159.303 99.4317C159.303 99.4317 146.377 82.1968 116.216 82.1968C86.055 82.1968 73.1289 99.4317 73.1289 99.4317V220.076C73.1289 220.076 86.055 211.458 116.216 211.458C146.377 211.458 159.303 220.076 159.303 220.076M159.303 99.4317V220.076M159.303 99.4317C159.303 99.4317 172.229 82.1968 202.39 82.1968C232.551 82.1968 245.477 99.4317 245.477 99.4317V220.076C245.477 220.076 232.551 211.458 202.39 211.458C172.229 211.458 159.303 220.076 159.303 220.076" stroke="#3D7D40" stroke-width="10" stroke-linecap="round" stroke-linejoin="round"/>
</g>
<defs>
<filter id="filter0_i_368_18724" x="68.1289" y="77.1968" width="182.348" height="151.879" filterUnits="userSpaceOnUse" color-interpolation-filters="sRGB">
<feFlood flood-opacity="0" result="BackgroundImageFix"/>
<feBlend mode="normal" in="SourceGraphic" in2="BackgroundImageFix" result="shape"/>
<feColorMatrix in="SourceAlpha" type="matrix" values="0 0 0 0 0 0 0 0 0 0 0 0 0 0 0 0 0 0 127 0" result="hardAlpha"/>
<feOffset dy="4"/>
<feGaussianBlur stdDeviation="2"/>
<feComposite in2="hardAlpha" operator="arithmetic" k2="-1" k3="1"/>
<feColorMatrix type="matrix" values="0 0 0 0 0 0 0 0 0 0 0 0 0 0 0 0 0 0 0.25 0"/>
<feBlend mode="normal" in2="shape" result="effect1_innerShadow_368_18724"/>
</filter>
</defs>
</svg>
