<svg width="1204" height="118" viewBox="0 0 1204 118" fill="none" xmlns="http://www.w3.org/2000/svg">
<path d="M1126.03 62.125C1124.39 62.2234 1122.73 62.291 1121.12 62.4386C1120.08 62.5308 1119.63 62.2604 1118.93 62.1189C1118.7 62.0698 1118.45 61.9713 1118.24 61.9836C1116.61 62.082 1114.99 62.1927 1113.36 62.3034C1112.86 62.5431 1112.55 62.8629 1111.79 62.9797C1111.04 63.0904 1110.16 63.0904 1109.33 63.1457C1108.24 63.2133 1107.14 63.281 1106.05 63.3425C1105.5 63.3732 1105.05 63.49 1104.87 63.7114C1104.84 63.7483 1105.2 63.8405 1105.4 63.8958C1106.07 64.0803 1106.71 64.2893 1107.44 64.4307C1108.14 64.566 1109 64.3447 1109.75 64.5168C1111.42 64.9042 1111.44 64.898 1112.71 64.8242C1113.81 64.7566 1114.9 64.6829 1116 64.6337C1116.21 64.6214 1116.46 64.7136 1116.69 64.7628C1117.39 64.898 1117.84 65.2055 1118.87 65.0887C1119.65 64.9964 1120.51 64.978 1121.32 64.9288C1122 65.1071 1122.63 65.31 1123.36 65.4514C1124.04 65.5867 1124.24 65.6912 1123.87 65.8695C1123.54 66.0355 1123.08 66.1032 1122.46 66.1155C1121.92 66.1216 1121.37 66.1769 1120.82 66.2077C1120.54 66.2261 1120.28 66.2384 1120.01 66.2569C1118.97 66.3245 1118.97 66.3245 1117.06 65.931C1116.31 65.7773 1115.47 65.9925 1114.75 65.8449C1114.27 65.7465 1113.86 65.599 1113.39 65.4945C1113.2 65.4514 1112.88 65.4453 1112.63 65.4576C1111.8 65.5006 1110.97 65.5313 1110.18 65.6113C1109.61 65.6666 1109.28 65.8388 1109.35 66.0109C1109.37 66.0786 1109.76 66.177 1110 66.1831C1110.53 66.1954 1111.09 66.1093 1111.6 66.1523C1112.1 66.1954 1112.62 66.3183 1112.98 66.4536C1113.73 66.7364 1114.57 66.4844 1115.28 66.5582C1116.03 66.6381 1116.64 66.8841 1117.36 67.0316C1117.54 67.0685 1117.89 67.007 1118.17 66.9885C1118.98 66.9455 1119.79 66.9086 1120.61 66.8656C1121.29 67.0439 1122.02 67.2038 1122.63 67.4067C1123.74 67.7756 1124.93 67.9169 1126.38 67.7386C1127.19 67.6403 1127.99 67.6772 1128.63 67.917C1129.3 68.1629 1130.06 68.1383 1130.9 68.0891C1131.68 68.04 1132.48 67.9047 1133.27 68.0768C1135 68.458 1135.02 68.4765 1137.06 68.3289C1137.67 68.2859 1138.13 68.2736 1138.6 68.415C1139.03 68.5442 1139.49 68.6548 1139.94 68.7778C1140.75 68.7347 1141.58 68.6917 1142.39 68.6425C1143.44 68.5749 1144.02 68.661 1144.27 69.0053C1144.42 69.2143 1144.48 69.4049 1144.85 69.5463C1145.28 69.7185 1145.74 69.7123 1146.37 69.6631C1146.97 69.6201 1147.4 69.5525 1147.65 69.3312C1147.75 69.2389 1147.95 69.1528 1148.13 69.0791C1148.28 69.0237 1148.51 68.9377 1148.64 68.95C1148.89 68.9745 1149.23 69.0421 1149.31 69.1221C1150.12 69.866 1150.12 69.8722 1150.95 70.0874C1151.86 70.3272 1152.81 70.5424 1153.64 70.8129C1154.38 71.0527 1155.13 70.9482 1155.94 70.9482C1156.55 70.9482 1156.95 71.1081 1156.9 71.268C1156.87 71.3602 1156.64 71.4954 1156.44 71.5077C1154.81 71.6307 1153.17 71.7352 1151.53 71.8213C1151.33 71.8336 1151.08 71.7229 1150.85 71.6676C1150.39 71.5569 1149.97 71.3847 1149.47 71.3478C1148.98 71.3109 1148.4 71.4032 1147.85 71.4339C1147.3 71.4647 1146.72 71.5446 1146.22 71.4955C1145.73 71.4463 1145.33 71.2679 1144.86 71.1511C1144.65 71.0958 1144.35 71.0159 1144.17 71.0343C1142.96 71.1819 1142.06 70.979 1141.2 70.7084C1141.02 70.6531 1140.7 70.6162 1140.47 70.6285C1138.55 70.733 1136.64 70.856 1134.72 70.9728C1133.94 71.022 1133.31 70.8068 1133.14 70.444C1133.06 70.2411 1132.89 70.0382 1132.89 69.8353C1132.89 69.4664 1131.98 69.2635 1131.32 69.3065C1130.22 69.368 1129.11 69.4172 1128.04 69.5094C1127.16 69.5832 1126.41 69.5094 1125.81 69.2881C1125.12 69.036 1124.32 69.0852 1123.53 69.1528C1122.93 69.202 1122.76 69.4049 1122.8 69.9152C1122.83 70.3272 1122.55 70.4563 1121.47 70.5239C1120.11 70.61 1118.73 70.6961 1117.36 70.7637C1117.14 70.776 1116.89 70.6715 1116.68 70.6162C1116.21 70.5055 1115.8 70.3272 1115.3 70.2903C1114.8 70.2473 1114.22 70.3395 1113.68 70.3764C1113.13 70.4071 1112.55 70.4932 1112.05 70.4502C1111.55 70.4071 1111.14 70.2227 1110.69 70.1059C1110.48 70.0505 1110.21 69.9706 1110 69.9829C1108.9 70.0321 1107.81 70.1059 1106.71 70.1735C1105.49 70.2473 1105.49 70.2473 1103.74 69.8661C1102.95 69.6939 1102.15 69.8292 1101.37 69.8784C1100.54 69.9276 1099.76 69.9522 1099.12 69.7062C1098.69 69.5464 1098.21 69.448 1097.69 69.4787C1096.32 69.5525 1094.96 69.6447 1093.58 69.7185C1093.35 69.7308 1093.03 69.7001 1092.85 69.6447C1091.97 69.3865 1091.11 69.1836 1089.88 69.3127C1088.82 69.4234 1087.68 69.4295 1086.62 69.534C1086.04 69.5894 1085.77 69.7861 1085.89 69.9399C1085.95 70.0198 1086.3 70.112 1086.53 70.112C1087.06 70.1182 1087.64 70.0259 1088.14 70.0628C1089.17 70.1366 1089.68 70.653 1091.03 70.5116C1091.82 70.4256 1092.65 70.3948 1093.48 70.3702C1093.7 70.3641 1093.93 70.4809 1094.16 70.5424C1094.82 70.7084 1095.4 70.9236 1096.37 70.8129C1097.16 70.7268 1098.01 70.7023 1098.82 70.6531C1100.11 70.5732 1100.11 70.5793 1101.79 70.9544C1102.58 71.1327 1103.38 70.9913 1104.16 70.9482C1104.74 70.9175 1105.29 70.856 1105.75 70.9421C1106.46 71.0712 1106.98 71.3663 1107.86 71.3478C1108.69 71.3294 1109.5 71.2433 1110.33 71.2126C1110.84 71.1941 1111.32 71.2925 1111.74 71.4585C1112.17 71.6245 1112.63 71.6983 1113.2 71.6614C1114.01 71.6122 1114.84 71.5507 1115.67 71.52C1115.9 71.5139 1116.16 71.5692 1116.38 71.6184C1116.84 71.7291 1117.29 71.8582 1117.74 71.975C1118.55 71.9381 1119.38 71.9258 1120.18 71.852C1120.79 71.7967 1121.22 71.8213 1121.72 71.9443C1122.35 72.1103 1122.86 72.4054 1123.89 72.264C1124.4 72.1964 1125 72.2148 1125.51 72.1533C1126.15 72.0734 1126.58 72.1041 1127.02 72.2886C1127.87 72.639 1128.93 72.6452 1130.02 72.5099C1131.22 72.3623 1132.11 72.5346 1133.01 72.8051C1133.95 73.0879 1133.95 73.0817 1134.68 73.7642C1134.9 73.961 1135.51 74.0532 1136.03 74.0163C1136.89 73.9549 1137.64 73.9856 1138.27 74.2192C1138.93 74.4713 1139.72 74.4406 1140.54 74.3729C1141.61 74.2807 1142.69 74.2008 1143.57 74.5574C1144 74.7296 1144.47 74.7726 1145.05 74.7295C1146.69 74.6188 1148.35 74.5513 1149.95 74.416C1150.93 74.3299 1151.5 74.5267 1152.16 74.6927C1153.06 74.9202 1154.03 75.1231 1154.03 75.6088C1154.03 75.6887 1154.27 75.781 1154.46 75.8424C1154.9 75.9716 1155.36 76.0822 1155.81 76.2052C1156.47 76.3896 1157.12 76.5434 1158.03 76.445C1158.83 76.3651 1159.67 76.3405 1160.48 76.2851C1161.3 76.2298 1162.04 76.199 1162.77 76.4327C1163.62 76.6971 1164.51 76.9492 1165.47 77.1459C1166.15 77.2873 1167.05 77.0476 1167.78 77.2382C1168.23 77.355 1168.66 77.4902 1169.14 77.5886C1169.34 77.6316 1169.65 77.6009 1169.92 77.5886C1170.47 77.564 1171.03 77.5456 1171.56 77.4841C1172.17 77.4165 1172.64 77.4288 1173.1 77.5702C1173.53 77.6993 1173.96 77.8776 1174.46 77.9145C1175.21 77.9698 1176.04 77.7239 1176.78 78.0067C1177.16 78.1482 1177.64 78.2834 1178.14 78.3265C1178.64 78.3695 1179.22 78.2772 1179.75 78.2834C1179.98 78.2834 1180.26 78.3818 1180.4 78.4617C1180.48 78.5048 1180.36 78.6216 1180.25 78.6831C1180.1 78.7568 1179.88 78.8552 1179.67 78.8675C1178.03 78.9782 1176.38 79.0704 1174.74 79.175C1173.76 79.2365 1173.76 79.2364 1171.79 78.8491C1171.33 78.7569 1170.81 78.7753 1170.23 78.8183C1169.45 78.8736 1168.66 78.9782 1167.85 78.8675C1166.78 78.4494 1165.47 78.4125 1164.08 78.5724C1163.5 78.64 1162.97 78.64 1162.54 78.5232C1161.63 78.2895 1160.67 78.0744 1159.85 77.7977C1159.22 77.5825 1158.93 77.564 1158.66 77.8592C1158.58 77.9514 1158.49 78.0498 1158.51 78.1358C1158.61 78.4433 1158.79 78.7445 1158.89 79.052C1158.92 79.138 1158.79 79.2365 1158.71 79.3287C1158.44 79.5869 1158.1 79.5684 1157.52 79.3532C1156.94 79.138 1156.24 78.9967 1155.31 79.095C1154.51 79.1811 1153.65 79.1688 1152.86 79.2611C1151.63 79.3963 1150.77 79.1996 1149.89 78.9352C1149.71 78.8798 1149.39 78.8491 1149.16 78.8614C1146.69 79.0028 1144.23 79.1627 1141.76 79.3041C1141.23 79.3348 1140.75 79.2426 1140.34 79.0766C1139.91 78.9106 1139.43 78.8245 1138.9 78.8552C1136.71 78.9844 1134.52 79.1012 1132.33 79.2611C1131.43 79.3287 1130.72 79.2487 1130.11 79.0335C1129.64 78.8736 1129.21 78.8245 1128.63 78.8429C1128 78.8614 1127.55 78.9229 1127.24 79.1012C1126.94 79.2734 1127.16 79.3778 1127.82 79.5131C1128.53 79.6607 1129.2 79.8513 1129.88 80.0235C1130.42 79.9989 1130.97 79.9496 1131.5 79.9558C1131.73 79.9558 1131.95 80.0665 1132.18 80.1279C1132.84 80.3063 1133.46 80.4846 1134.4 80.3862C1135.2 80.3001 1136.04 80.2817 1136.86 80.2263C1137.98 80.1587 1137.98 80.1587 1139.81 80.5461C1140.27 80.6445 1140.77 80.6383 1141.37 80.5829C1141.88 80.5399 1142.41 80.626 1142.78 80.8104C1142.92 80.8842 1142.88 81.0072 1142.56 81.413C1142.56 81.7143 1142.91 81.579 1143.02 81.3823C1143.21 81.0994 1142.86 81.0072 1142.19 81.1609C1141.73 81.2716 1141.5 81.4315 1141.61 81.5606C1141.68 81.6282 1142 81.7143 1142.56 81.413C1144.02 81.0441 1145.13 81.001 1146.19 80.9027C1146.82 80.8473 1147.22 80.8719 1147.72 81.0318C1148.31 81.2224 1148.91 81.4253 1149.89 81.327C1150.95 81.2163 1152.08 81.2039 1153.15 81.1117C1154.15 81.0256 1154.66 81.2962 1155.29 81.4561C1156.06 81.6467 1156.9 81.4315 1157.6 81.5421C1158.33 81.6528 1158.84 81.9233 1159.69 81.9725C1160.91 81.8065 1161.69 82.114 1162.62 82.3169C1163.35 82.4706 1164.21 82.3353 1164.99 82.2676C1165.87 82.1938 1166.6 82.2615 1167.22 82.4829C1167.91 82.735 1168.69 82.6796 1169.49 82.6243C1171.34 82.5013 1171.41 82.4828 1172.49 82.821C1173.27 83.067 1174.01 82.9563 1174.79 82.9256C1175.47 83.0916 1176.14 83.2698 1176.85 83.4174C1177.03 83.4543 1177.38 83.3928 1177.66 83.3744C1178.47 83.3252 1179.3 83.276 1180.12 83.2268C1180.66 83.1961 1181.24 83.1039 1181.74 83.1407C1182.24 83.1838 1182.65 83.3621 1183.1 83.4789C1183.55 83.5958 1184.01 83.7126 1184.44 83.8355C1185.11 84.02 1185.74 84.1737 1186.66 84.0815C1187.46 84.0016 1188.29 83.977 1189.12 83.9216C1190.16 83.854 1190.13 83.8724 1192.07 84.2414C1193.11 84.4443 1194.19 84.1983 1195.25 84.1737C1195.78 84.1614 1196.3 84.2291 1196.66 84.4074C1196.81 84.4812 1196.76 84.6041 1196.81 84.7087C1194.08 84.8747 1191.32 85.0161 1188.62 85.219C1187.58 85.2989 1187.03 85.0775 1186.47 84.8931C1185.54 84.5979 1184.31 85.0283 1183.43 84.6471C1182.9 84.4196 1182.14 84.2906 1181.23 84.4012C1180.7 84.4627 1180.13 84.4565 1179.58 84.5119C1178.19 84.6471 1176.91 84.6533 1175.8 84.229C1175.42 84.0815 1174.88 84.0016 1174.48 83.8602C1174.01 83.7064 1173.57 83.6203 1173.02 83.651C1170.55 83.7986 1168.09 83.9462 1165.64 84.106C1165.42 84.1183 1165.21 84.2106 1165.03 84.2782C1164.56 84.4504 1164.71 84.5857 1165.46 84.6963C1165.71 84.7332 1165.91 84.8131 1166.14 84.8746C1166.59 84.9914 1167 85.1759 1167.5 85.219C1167.99 85.262 1168.58 85.1759 1169.12 85.1452C1169.67 85.1144 1170.25 85.0222 1170.75 85.0591C1171.24 85.1021 1171.66 85.2805 1172.12 85.3911C1172.34 85.4465 1172.6 85.5387 1172.82 85.5325C1173.91 85.4956 1174.99 85.428 1176.09 85.3727C1176.77 85.5387 1177.35 85.7785 1178.16 85.8338C1178.67 85.8707 1179.22 85.803 1179.75 85.8153C1179.98 85.8215 1180.28 85.9137 1180.4 85.9937C1180.46 86.0429 1180.25 86.1658 1180.08 86.2273C1179.45 86.461 1178.59 86.4179 1177.81 86.4917C1176.96 86.5716 1176.2 86.547 1175.56 86.3073C1175.12 86.1474 1174.64 86.0613 1174.11 86.0921C1172.74 86.172 1171.38 86.2642 1170 86.3319C1169.77 86.3442 1169.49 86.2888 1169.27 86.2458C1167.53 85.8707 1167.53 85.8584 1166.3 85.9384C1164.5 86.0552 1164.5 86.0551 1163.29 85.7293C1163.05 85.6678 1162.8 85.551 1162.61 85.5572C1160.68 85.6555 1158.78 85.7539 1156.87 85.8953C1156.24 85.9383 1155.81 85.9384 1155.34 85.7785C1154.95 85.6432 1154.48 85.4895 1153.98 85.4526C1153.47 85.4157 1152.91 85.5079 1152.36 85.5387C1151.81 85.5694 1151.23 85.6493 1150.75 85.6002C1150.25 85.551 1149.82 85.3789 1149.39 85.2559C1148.94 85.1268 1148.46 85.1328 1147.85 85.182C1145.96 85.3234 1145.94 85.305 1144.07 84.9238C1143.85 84.8808 1143.57 84.8316 1143.34 84.8439C1141.96 84.9177 1140.6 85.0099 1139.23 85.0837C1138.7 85.1144 1138.18 85.0345 1137.82 84.8562C1137.67 84.7824 1137.72 84.6594 1137.62 84.4196C1137.5 84.3643 1137.64 84.4627 1137.67 84.5549C1137.92 84.5426 1138.22 84.5549 1138.4 84.5057C1138.86 84.3889 1139.09 84.2352 1138.98 84.106C1138.91 84.0384 1138.6 83.9523 1138.4 83.9523C1138.03 83.9523 1137.72 84.0876 1137.62 84.4196C1136.57 84.6225 1135.46 84.6656 1134.39 84.764C1133.76 84.8255 1133.36 84.7947 1132.86 84.6349C1132.26 84.4381 1131.65 84.2475 1130.67 84.3458C1129.61 84.4565 1128.48 84.475 1127.39 84.5611C1126.13 84.6595 1125.58 84.106 1124.52 84.1183C1123.43 84.1306 1122.33 84.2352 1121.24 84.309C1120.28 84.3705 1120.28 84.3704 1118.29 83.9708C1117.56 83.8232 1116.69 84.0384 1115.98 83.8847C1115.5 83.7863 1115.09 83.6388 1114.62 83.5343C1114.42 83.4912 1114.11 83.4912 1113.86 83.5035C1112.48 83.5773 1111.09 83.6265 1109.76 83.7618C1108.25 83.9216 1107.11 83.7495 1106.03 83.3867C1104.67 83.4543 1103.3 83.4912 1101.95 83.608C1100.98 83.6941 1100.41 83.4912 1099.75 83.3252C1099.52 83.2699 1099.32 83.1776 1099.07 83.1531C1098.82 83.1285 1098.52 83.1776 1098.26 83.1961C1097.16 83.2637 1096.03 83.2945 1094.97 83.4052C1093.66 83.5466 1093.17 83.0424 1092.15 82.9809C1091.47 83.2822 1091.11 83.6941 1089.77 83.7248C1088.67 83.7494 1087.58 83.8478 1086.48 83.9155C1085.94 83.9462 1085.39 83.9831 1084.84 84.0139C1083.96 84.0692 1083.55 84.309 1083.73 84.6779C1083.83 84.8808 1083.91 85.0837 1084 85.2866C1084.16 85.6493 1083.75 85.9568 1083.05 85.9998C1081.13 86.1167 1079.22 86.2396 1077.3 86.3441C1076.78 86.3749 1076.29 86.2703 1075.87 86.1043C1075.44 85.9383 1074.96 85.8645 1074.43 85.8953C1072.51 86.0121 1070.6 86.1351 1068.68 86.2396C1068.46 86.2519 1068.18 86.1904 1067.96 86.1412C1067.5 86.0306 1067.05 85.9015 1066.6 85.7846C1065.51 85.84 1064.43 85.8768 1063.35 85.9506C1061.61 86.0613 1061.61 86.0674 1060.34 85.7293C1060.1 85.6678 1059.87 85.551 1059.66 85.5572C1058.83 85.5817 1058.01 85.6432 1057.19 85.6986C1054.75 85.8584 1054.75 85.8584 1054.04 85.6739C1053.39 85.5018 1052.81 85.2928 1051.83 85.3911C1050.77 85.5018 1049.64 85.5387 1048.55 85.6002C1047.73 85.6432 1046.92 85.6924 1046.11 85.7047C1045.89 85.7109 1045.66 85.594 1045.43 85.5325C1044.77 85.3419 1044.12 85.1882 1043.21 85.2927C1042.68 85.3542 1042.11 85.3665 1041.57 85.3973C1040.14 85.4834 1040.14 85.4833 1037.8 85.1144C1037.57 85.0775 1037.29 85.0345 1037.06 85.0529C1035.13 85.1636 1033.23 85.2866 1031.3 85.3911C1031.07 85.4034 1030.79 85.3665 1030.56 85.3357C1027.94 84.9791 1027.94 84.9792 1025.15 85.1513C1024.09 85.2128 1024.06 85.2374 1022.95 84.9115C1022.45 84.7701 1022.03 84.7025 1021.45 84.7455C1019.27 84.8931 1017.06 84.9915 1014.89 85.1636C1013.91 85.2374 1013.35 85.0529 1012.68 84.8869C1012.45 84.8316 1012.2 84.7087 1012 84.7148C1009.81 84.8316 1007.63 84.973 1005.44 85.0899C1005.24 85.1022 1004.99 84.9792 1004.76 84.9238C1004.31 84.8132 1003.88 84.6471 1003.38 84.6103C1002.87 84.5734 1002.3 84.6656 1001.74 84.6963C1000.36 84.7763 1000.36 84.7701 998.772 84.4074C998.556 84.3582 998.274 84.2905 998.059 84.3028C995.87 84.4258 993.665 84.5303 991.493 84.7087C990.249 84.807 989.404 84.6287 988.525 84.3705C988.343 84.3151 988.028 84.2905 987.796 84.3028C985.325 84.4442 982.871 84.6041 980.401 84.7455C979.887 84.7762 979.389 84.6717 978.974 84.5119C978.311 84.2598 977.532 84.2905 976.703 84.3458C974.796 84.475 974.78 84.4689 973.652 84.1737C973.42 84.1122 973.221 84.0323 972.972 84.0016C972.74 83.9708 972.442 83.9893 972.193 84.0016C971.099 84.063 970.005 84.1306 968.91 84.1983C967.816 84.2659 966.705 84.3029 965.627 84.4074C964.3 84.5365 963.67 84.1368 962.742 83.9523C961.382 84.0323 959.99 84.0815 958.647 84.2106C957.619 84.309 957.138 84.0384 956.458 83.897C956.226 83.8478 955.977 83.7433 955.762 83.7556C953.291 83.8909 950.821 84.0384 948.367 84.2044C947.77 84.2413 947.372 84.1921 946.874 84.0446C945.764 83.7125 945.714 83.7249 943.857 83.8478C943.044 83.9032 942.265 83.9524 941.568 83.7003C940.955 83.4728 940.209 83.4174 939.33 83.4912C938.252 83.5834 937.142 83.6326 936.047 83.6941C934.953 83.7618 933.859 83.854 932.764 83.8847C931.885 83.9154 931.355 83.6265 930.658 83.4789C930.443 83.4359 930.145 83.4297 929.896 83.442C928.802 83.4974 927.674 83.5404 926.613 83.6449C925.32 83.774 924.607 83.4359 923.695 83.2391C923.496 83.1961 923.164 83.2207 922.915 83.2391C920.992 83.3498 919.085 83.4728 917.162 83.5896C916.482 83.4236 915.785 83.2637 915.106 83.0977C914.011 83.1592 912.917 83.2268 911.823 83.2883C910.994 83.3375 910.148 83.3559 909.369 83.4482C908.357 83.5711 907.86 83.2822 907.18 83.1407C906.948 83.0916 906.699 82.987 906.484 82.9993C905.107 83.067 903.731 83.1408 902.372 83.2453C901.078 83.3498 900.564 82.7964 899.503 82.8025C898.409 82.8087 897.281 82.8887 896.22 82.9993C894.993 83.1285 894.131 82.9317 893.252 82.6673C893.07 82.612 892.755 82.5812 892.523 82.5935C891.147 82.6673 889.787 82.7595 888.411 82.8333C888.179 82.8456 887.897 82.8149 887.665 82.778C885.045 82.4152 885.045 82.4091 883.901 82.4829C883.089 82.5321 882.26 82.5935 881.43 82.6243C881.198 82.6366 880.916 82.5812 880.701 82.532C878.976 82.157 878.976 82.1508 877.733 82.2246C876.638 82.2923 875.544 82.3599 874.45 82.4275C873.77 82.2615 873.073 82.1017 872.394 81.9357C871.034 82.0156 869.641 82.077 868.298 82.1877C867.668 82.2369 867.254 82.2185 866.773 82.0648C866.176 81.8803 865.579 81.6651 864.584 81.7696C863.523 81.8803 862.396 81.8926 861.318 81.9848C860.025 82.0955 859.494 81.536 858.449 81.5421C857.355 81.5483 856.228 81.6282 855.166 81.7389C853.94 81.868 853.077 81.6713 852.198 81.4069C852.016 81.3516 851.701 81.3208 851.469 81.3331C848.451 81.5114 845.45 81.6897 842.433 81.8803C840.576 81.9971 840.576 82.0033 837.044 81.6651C836.795 81.6405 836.53 81.6159 836.281 81.6282C835.187 81.6836 834.059 81.7266 832.998 81.8311C831.705 81.9602 830.992 81.6282 830.08 81.4253C829.881 81.3822 829.566 81.4068 829.3 81.4191C828.471 81.4622 827.659 81.5176 826.83 81.5668C825.736 81.6344 824.641 81.702 823.547 81.7696C822.867 81.6098 822.171 81.4437 821.491 81.2839C820.131 81.3638 818.739 81.4069 817.396 81.536C816.368 81.6344 815.887 81.3761 815.207 81.2286C814.975 81.1794 814.726 81.0749 814.511 81.081C812.04 81.2163 809.57 81.3577 807.116 81.5298C806.104 81.6036 805.64 81.3269 804.96 81.1855C804.728 81.1424 804.463 81.0626 804.247 81.0748C802.606 81.1609 800.964 81.2654 799.323 81.37C798.394 81.4315 798.394 81.4314 796.371 81.0502C796.139 81.0072 795.874 80.9642 795.642 80.9764C790.436 81.2839 785.246 81.6098 780.039 81.9172C779.509 81.9479 779.028 81.8557 778.614 81.6897C778.182 81.5237 777.701 81.4376 777.171 81.4684C774.982 81.5975 772.777 81.7143 770.605 81.8742C769.71 81.9418 768.996 81.8618 768.383 81.6466C767.919 81.4868 767.488 81.4253 766.907 81.4622C765.813 81.536 764.719 81.5974 763.624 81.6651C762.53 81.7327 761.436 81.8004 760.342 81.868C759.247 81.9357 758.136 81.9725 757.059 82.0771C755.732 82.2062 755.085 81.825 754.174 81.6344C752.532 81.7266 750.89 81.8188 749.265 81.9172C747.077 82.0463 744.888 82.1877 742.699 82.3107C742.5 82.323 742.252 82.2123 742.02 82.157C741.34 82.0033 740.842 81.7881 739.831 81.8557C734.923 82.1816 729.982 82.4583 725.058 82.778C724.03 82.8456 723.582 82.5812 722.886 82.4398C722.653 82.3968 722.388 82.3107 722.173 82.323C719.437 82.4767 716.701 82.6488 713.965 82.8149C712.854 82.8825 712.854 82.8825 710.997 82.5013C710.782 82.4582 710.5 82.4029 710.267 82.4152C706.703 82.6242 703.154 82.8456 699.59 83.0608C699.059 83.0916 698.578 83.0055 698.147 82.8395C697.733 82.6735 697.235 82.5812 696.721 82.612C693.438 82.8087 690.139 82.9993 686.872 83.2145C685.994 83.276 685.264 83.2207 684.634 82.9993C684.186 82.8395 683.739 82.7718 683.175 82.8087C678.25 83.11 673.326 83.399 668.401 83.7187C667.456 83.7802 666.793 83.6634 666.196 83.4605C665.715 83.3006 665.301 83.2699 664.704 83.2945C664.074 83.3252 663.693 83.3928 663.344 83.5773C662.897 83.8171 662.615 84.1184 661.554 84.1368C660.459 84.1553 659.348 84.2291 658.271 84.3336C657.243 84.4381 656.762 84.1614 656.115 83.9954C655.634 83.8786 655.187 83.8601 654.573 83.9155C654.009 83.9647 653.661 84.0691 653.33 84.2659C652.6 84.684 652.534 84.684 651.638 84.4196C651.157 84.2782 650.726 84.1675 650.196 84.1921C648.007 84.3151 645.818 84.4504 643.63 84.5918C642.37 84.6717 642.353 84.684 641.408 84.3766C640.944 84.2229 640.496 84.1491 639.949 84.186C633.93 84.5549 627.911 84.9115 621.893 85.2989C620.964 85.3604 620.334 85.2312 619.671 85.0468C619.455 84.9853 619.24 84.8992 618.991 84.8746C618.742 84.85 618.46 84.8746 618.195 84.8869C613.818 85.1513 609.424 85.4034 605.063 85.6986C604.068 85.7662 603.538 85.5695 602.858 85.4096C602.626 85.3543 602.427 85.2682 602.178 85.2436C601.929 85.2251 601.631 85.2681 601.366 85.2866C596.988 85.551 592.594 85.8031 588.234 86.0982C587.189 86.1659 586.741 85.9076 586.062 85.7723C585.829 85.7231 585.581 85.6309 585.365 85.6432C583.989 85.7108 582.63 85.803 581.253 85.883C577.97 86.0859 574.687 86.2765 571.404 86.4856C570.144 86.5655 569.597 86.0182 568.536 86.0428C567.159 86.0736 565.8 86.1966 564.424 86.2826C563.329 86.3503 562.235 86.4118 561.141 86.4856C560.063 86.5532 560.063 86.5532 557.377 86.1965C557.145 86.1658 556.863 86.1228 556.631 86.1351C552.801 86.3626 548.954 86.5901 545.14 86.836C544.262 86.8914 543.532 86.8606 542.902 86.6331C542.454 86.4733 541.99 86.3933 541.443 86.4302C535.69 86.7807 529.952 87.1312 524.199 87.4755C523.983 87.4878 523.702 87.4263 523.486 87.3771C523.022 87.2664 522.574 87.1373 522.126 87.0205C521.795 87.1619 521.364 87.291 521.148 87.4509C520.85 87.6661 520.452 87.7276 519.822 87.7645C519.192 87.8013 518.794 87.7891 518.296 87.6292C517.7 87.4325 517.086 87.2787 516.108 87.3402C510.089 87.7275 504.07 88.078 498.051 88.4592C497.056 88.5207 496.592 88.2502 495.896 88.1087C495.664 88.0657 495.398 87.9981 495.183 88.0104C492.712 88.1518 490.258 88.3055 487.788 88.4531C480.94 88.8712 474.092 89.2709 467.261 89.7136C466.017 89.7935 465.172 89.6398 464.293 89.3754C464.111 89.32 463.796 89.2893 463.563 89.3016C453.98 89.8796 444.396 90.4636 434.829 91.0478C434.315 91.0785 433.817 90.9801 433.403 90.8203C432.972 90.6542 432.491 90.5743 431.961 90.6051C427.583 90.8695 423.206 91.1339 418.829 91.4044C417.734 91.472 417.718 91.4781 416.59 91.183C416.358 91.1215 416.11 91.0048 415.927 91.0171C415.546 91.0478 415.181 91.2014 414.916 91.4105C414.65 91.6318 414.236 91.6933 413.622 91.7364C412.992 91.7794 412.578 91.761 412.097 91.6134C411.483 91.429 410.92 91.2507 409.925 91.3122C397.34 92.0992 384.755 92.8554 372.17 93.6363C371.159 93.6977 370.695 93.4396 369.998 93.2981C369.766 93.2551 369.534 93.1936 369.285 93.1813C369.02 93.169 368.738 93.2059 368.473 93.2244C347.946 94.4725 327.419 95.7268 306.892 96.9749C305.665 97.0487 305.682 97.0488 304.339 97.6144C304.173 97.6821 303.957 97.7742 303.725 97.7865C297.441 98.18 291.141 98.5612 284.84 98.9424C282.104 99.1085 279.368 99.2807 276.633 99.4405C275.654 99.4959 275.654 99.4959 273.316 100.16C273.118 100.215 272.885 100.289 272.653 100.301C261.71 100.972 250.766 101.642 239.807 102.3C238.944 102.349 238.248 102.459 237.85 102.755C237.568 102.964 237.204 103.087 236.656 103.123C228.996 103.591 221.336 104.064 213.659 104.519C212.747 104.575 212.2 104.747 211.752 105.005C211.603 105.091 211.47 105.189 211.255 105.251C211.056 105.306 210.757 105.325 210.509 105.343C203.943 105.743 197.377 106.155 190.794 106.536C189.816 106.591 189.418 106.819 188.937 107.059C188.771 107.138 188.655 107.249 188.44 107.305C188.224 107.354 187.909 107.354 187.644 107.366C182.172 107.698 176.701 108.036 171.229 108.368C170.168 108.337 169.936 108.694 169.422 108.909C169.239 108.983 169.107 109.081 168.891 109.131C168.659 109.18 168.36 109.174 168.078 109.186C163.701 109.45 159.324 109.733 154.93 109.979C153.919 110.034 153.72 110.348 153.172 110.563C152.99 110.631 152.808 110.735 152.592 110.754C149.856 110.932 147.121 111.098 144.385 111.258C143.473 111.313 143.473 111.307 141.865 111.916C141.682 111.984 141.466 112.057 141.234 112.076C137.139 112.334 133.027 112.58 128.915 112.832C128.384 112.863 128.02 113.01 127.754 113.219C127.489 113.428 127.108 113.564 126.577 113.594C123.294 113.797 120.011 114.006 116.728 114.191C115.816 114.24 115.219 114.394 114.821 114.67C114.523 114.879 114.158 114.984 113.578 115.021C110.295 115.218 107.012 115.433 103.712 115.605C102.751 115.654 102.253 115.863 101.855 116.121C101.54 116.331 101.175 116.404 100.562 116.441C94.543 116.798 88.5078 117.154 82.5056 117.548C81.4942 117.616 80.9801 117.4 80.3168 117.247C79.3717 117.031 78.4932 116.798 78.4932 116.318C78.4932 116.244 78.2113 116.158 78.0123 116.097C76.5366 115.636 76.5366 115.636 76.3044 115.144C76.1718 114.843 76.0226 114.535 75.9065 114.228C75.691 113.724 75.1602 113.594 73.6348 113.687C73.0876 113.717 72.5405 113.76 71.9933 113.785C71.1808 113.828 70.5674 113.625 70.4182 113.256C70.3353 113.053 70.236 112.85 70.1531 112.648C70.9821 112.598 70.9653 112.592 72.4244 111.848C73.0379 111.535 73.0382 111.535 71.8609 111.221C71.4132 111.104 70.982 110.975 70.5012 110.864C70.2856 110.815 70.0039 110.785 69.7717 110.797C68.3955 110.871 67.036 110.957 65.6764 111.043C63.4877 111.178 63.4874 111.178 61.2656 110.551C61.0832 110.502 60.8014 110.41 60.8345 110.36C61.0169 110.133 61.4645 110.034 62.0283 110.01C62.8573 109.973 63.6697 109.911 64.4822 109.862C65.0293 109.832 65.5765 109.795 66.1237 109.764C66.6377 109.53 67.1685 109.303 67.6494 109.063C68.4121 108.694 68.4118 108.682 67.3672 108.424C66.704 108.251 65.991 108.098 65.3112 107.938C64.4988 107.987 63.6698 108.042 62.8573 108.085C61.8293 108.141 61.4147 108.024 61.1494 107.624C60.9173 107.274 61.1992 106.972 61.9951 106.899C62.8075 106.825 63.5706 106.776 63.9851 106.462C64.383 106.161 65.0793 106.044 65.9415 106.019C66.4887 106.001 67.0358 105.958 67.583 105.921C68.2959 105.872 68.6774 105.558 68.5282 105.208C68.4453 104.98 68.2794 104.79 67.6328 104.741C64.7643 104.525 64.731 104.531 63.305 104.113C63.1724 104.076 63.0731 103.966 63.1229 103.911C63.2058 103.818 63.3882 103.683 63.5872 103.665C65.4939 103.529 67.4006 103.406 69.3074 103.314C69.9375 103.283 70.4018 103.24 70.6174 103.013C70.9158 102.699 70.7832 102.41 70.2029 102.195C70.0205 102.127 69.7218 102.041 69.5228 102.047C67.3341 102.158 65.1621 102.3 62.9735 102.41C62.7745 102.423 62.4099 102.318 62.327 102.238C62.1612 102.091 62.4098 101.894 62.9901 101.826C63.7528 101.734 64.5321 101.728 65.0461 101.42C65.759 100.984 66.6377 100.584 67.4336 100.166C67.5662 100.092 67.7821 99.9508 67.7323 99.9385C67.3178 99.8032 66.8369 99.6987 66.4058 99.5696C65.6763 99.3544 65.6761 99.0532 65.8419 98.7642C65.9746 98.5305 66.472 98.4383 67.0855 98.4383C67.3508 98.4383 67.6824 98.4383 67.8979 98.383C68.4617 98.2477 68.6441 98.0755 68.3622 97.9464C68.1964 97.8726 67.8981 97.7681 67.6992 97.7804C64.1509 97.9833 60.5858 98.1801 57.0541 98.4321C56.0095 98.5059 55.529 98.2723 54.8989 98.1063C54.4181 97.9771 53.9701 97.9279 53.3732 98.0202C52.8095 98.1062 52.2625 98.0571 51.9143 97.8542C51.6324 97.6882 52.1297 97.5468 53.4728 97.3869C53.7215 97.3562 54.0032 97.3377 54.1856 97.2762C56.109 96.6122 56.1089 96.606 57.4354 96.52C58.7287 96.44 58.729 96.4339 59.4088 96.0773C59.7238 95.9113 60.0718 95.7452 60.3702 95.5731C60.4863 95.5054 60.6855 95.3825 60.6192 95.3456C60.2544 95.155 59.7568 95.112 59.1764 95.155C57.8831 95.2595 56.3579 95.1734 55.6781 95.7576C55.4128 95.9789 54.9983 96.0404 54.4014 96.0773C48.3992 96.4339 42.3968 96.8151 36.378 97.1594C35.3997 97.2148 34.9523 97.4423 34.5709 97.6944C34.2393 97.9034 33.8745 97.9649 33.2444 98.0018C32.6143 98.0387 32.1167 98.0571 31.7519 97.8542C31.5363 97.7313 31.7188 97.5591 32.2162 97.3869C32.9292 97.141 32.7965 96.8336 32.5643 96.5446C32.3985 96.354 31.8845 96.2187 31.3374 96.231C30.5249 96.2556 29.7458 96.3232 29.066 96.0773C28.6681 95.9359 28.1706 95.8374 27.7229 95.7145C26.8607 95.4624 25.9985 95.2042 24.7881 95.3702C23.959 95.3087 23.3787 95.0874 22.7155 94.9152C21.6046 94.6324 21.5051 94.5893 22.301 94.288C23.1963 93.9499 22.4998 93.5071 22.9972 93.1751C23.5278 92.8185 24.2576 92.505 24.9043 92.173C25.0701 92.0869 25.2194 92.007 25.3852 91.9209C25.0038 91.7979 24.6557 91.6442 24.208 91.5581C23.6277 91.4475 23.3292 91.3122 23.3624 90.931C23.2463 90.8756 23.2957 91.017 23.4283 91.0539C23.5776 91.0908 23.9426 91.0601 24.125 91.0171C24.5893 90.9002 24.8212 90.7465 24.7051 90.6174C24.6388 90.5498 24.324 90.4637 24.125 90.4637C23.7602 90.4637 23.4452 90.5989 23.3458 90.931C21.4887 91.1831 19.5651 91.306 17.6417 91.4044C17.4427 91.4167 17.1942 91.2937 16.962 91.2322C16.1993 91.0232 16.1992 91.0293 13.9608 90.9678C13.7287 90.9617 13.4138 90.8756 13.2978 90.7896C12.8169 90.4145 12.8336 90.0025 12.6015 89.6029C13.0326 89.3446 13.4634 89.0925 13.911 88.8404C14.8064 88.3301 15.9673 87.8813 16.6637 87.3218C16.5145 87.0205 16.3155 86.7192 17.045 86.4733C19.1176 86.1659 19.1012 86.1659 19.6649 85.8707C21.2732 85.0345 22.8649 84.1921 24.5395 83.3682C24.9872 83.153 24.9873 83.0363 24.1914 82.944C23.9427 82.9194 23.677 82.9133 23.4117 82.9256C22.5827 82.9686 21.7537 83.0793 20.9412 83.0547C20.1288 83.0362 19.5319 82.7657 18.8686 82.5997C18.1888 82.4275 17.5091 82.2492 16.8293 82.0709C16.05 82.0894 15.2708 82.2615 14.4915 81.9848C13.8946 81.7696 13.1485 81.6159 12.4687 81.4376C12.9827 80.9703 13.9446 80.6137 14.6907 80.2017C15.3705 79.8267 15.3867 79.8328 17.2106 79.5439C18.0728 79.4086 18.3712 78.7138 17.6417 78.5109C16.7629 78.2649 15.8346 78.0374 14.9392 77.8038C14.1599 77.8222 13.3642 77.9883 12.6181 77.7116C12.0378 77.5026 11.3744 77.3611 10.4127 77.441C8.78782 77.5763 7.1298 77.644 5.48831 77.7546C4.92457 77.7915 4.3109 77.767 4.06219 77.5579C3.89638 77.4103 4.37726 77.2074 4.92442 77.1644C5.75346 77.1029 6.49951 77.0291 6.91402 76.7217C7.31196 76.4143 8.04143 76.322 8.90363 76.279C9.13576 76.2667 9.40124 76.1929 9.51731 76.1191C10.1142 75.7625 10.7775 75.4551 12.0542 75.4674C12.5848 75.3444 12.8665 75.1907 12.7007 75.0431C12.6012 74.9632 12.2532 74.8587 12.0542 74.871C10.678 74.9325 9.30186 74.994 7.95882 75.1046C7.32875 75.1538 6.84765 75.1661 6.44972 74.9816C6.16784 74.8587 6.31705 74.6926 6.84764 74.5143C7.3119 74.3606 7.44469 74.1823 7.41153 73.9733C7.32862 73.4875 6.8311 73.3461 5.23936 73.3769C4.09529 73.4015 3.8134 73.3215 3.56469 72.9034C3.49837 72.805 3.33285 72.6698 3.44892 72.6021C4.16189 72.184 4.62618 71.6676 5.96922 71.4708C6.4998 71.3971 7.06332 71.3971 7.39493 71.2372C7.72654 71.0773 8.02514 70.8928 8.37334 70.7391C8.80444 70.5547 9.1026 70.3826 8.90363 70.2658C8.57201 70.0567 8.04161 70.0383 7.42812 70.112C6.89754 70.1735 6.33381 70.1796 5.78665 70.2165C4.80839 70.2841 4.01269 70.1243 3.89663 69.8538C3.58159 69.1405 3.24988 68.4335 2.96801 67.7202C2.93485 67.6342 3.01753 67.5235 3.15017 67.4497C3.61443 67.1914 4.11205 66.9455 4.59289 66.6934C5.15663 66.4044 6.05214 66.4598 6.81485 66.4045C7.89259 66.3245 7.89222 66.3306 9.33474 65.7404C9.89849 65.5067 10.8768 65.599 11.4571 65.3899C11.6395 65.3223 11.9214 65.2116 11.8716 65.1501C11.8053 65.0702 11.4739 65.0087 11.2252 64.9718C10.993 64.9349 10.7112 64.9165 10.4625 64.9349C7.44483 65.1133 4.44381 65.3039 1.42612 65.476C0.912117 65.5068 0.348357 65.3715 0.165969 65.1809C-0.0164188 65.0026 0.0331614 64.7873 0 64.5844C0.48084 64.3323 1.02779 64.0987 1.44231 63.8282C1.75734 63.6191 2.12218 63.5269 2.75225 63.5146C3.58129 63.4962 4.39382 63.4224 5.32234 63.367C7.04674 62.4694 8.73785 61.5287 10.5949 60.631C11.341 60.2682 11.1589 59.8993 11.3082 59.5119C11.4574 59.1553 12.5682 59.2107 13.3144 59.1061C13.9113 59.0201 14.11 58.8233 13.8778 58.688C13.7452 58.6081 13.4469 58.5158 13.2148 58.5158C12.6676 58.5158 12.1205 58.5712 11.5733 58.6019C11.0261 58.6327 10.3961 58.6143 9.94842 58.7188C9.51733 58.8172 9.23529 59.0262 8.95342 59.2045C8.63839 59.4012 8.22416 59.4689 7.59409 59.4812C6.78164 59.4935 5.96923 59.5488 5.15678 59.5918C4.26142 59.352 3.33271 59.1184 2.47051 58.8663C2.3047 58.8172 2.27136 58.6758 2.28794 58.5835C2.3211 58.3437 2.07246 58.1961 1.5253 58.0793C1.06104 57.9809 0.679647 57.8395 0.248549 57.7166C0.580163 57.5506 0.945068 57.3907 1.21036 57.2123C1.79068 56.8373 2.52032 56.5668 3.78045 56.5791C4.27787 56.3393 4.67569 56.0442 5.32234 55.8782C5.93583 55.7183 6.98046 55.8781 7.44472 55.5153C7.67685 55.337 8.02524 55.1341 8.47292 55.0604C9.18589 54.9435 10.1144 55.0051 10.5289 54.6608C10.7776 54.464 11.1423 54.2857 11.6231 54.2365C12.1703 54.1811 12.7339 54.1689 13.1318 54.0521C13.3473 53.9906 13.5795 53.8922 13.5795 53.8061C13.5795 53.7508 13.2481 53.6647 13.016 53.6278C12.8005 53.5847 12.5183 53.554 12.2696 53.5663C11.4405 53.6032 10.6281 53.6708 9.79905 53.7077C9.56692 53.72 9.30171 53.677 9.053 53.6401C8.32345 53.5417 8.37309 53.4188 8.95342 53.1974C9.53374 52.9822 9.94849 52.7055 10.4293 52.4534C10.9599 52.4103 11.623 52.4288 11.9878 52.312C12.6013 52.1214 13.0323 51.8447 13.5297 51.6049C14.0769 51.568 14.6406 51.5557 15.1546 51.4881C15.3701 51.4635 15.4697 51.3282 15.6521 51.2483C15.9837 51.0946 16.2658 50.8733 16.7135 50.7995C17.443 50.6888 18.3384 50.7318 18.7695 50.3936C19.0182 50.1969 19.3994 49.9879 19.8637 49.9756C21.1569 49.951 21.7041 49.6128 22.3674 49.293C22.8648 49.0532 23.926 49.1762 24.4731 48.9364C24.8379 48.7827 25.1034 48.5921 25.4681 48.4445C25.6174 48.383 25.9323 48.3523 26.181 48.3339C27.5406 48.2417 28.9168 48.174 30.2764 48.0756C30.4919 48.0572 30.6911 47.965 30.8569 47.8912C31.2051 47.7314 31.4204 47.51 31.8515 47.4055C32.2826 47.3009 32.896 47.301 33.4266 47.2702C35.1344 47.178 35.2671 47.2025 36.0464 46.6799C36.6765 46.2557 38.2187 46.557 38.7327 46.0897C39.0312 45.8191 39.5781 45.5978 40.5563 45.5671C41.9325 45.524 43.2921 45.4072 44.6683 45.3273C45.8953 45.2535 45.8788 45.2534 47.2052 44.6816C47.8021 44.4234 48.6811 44.4603 49.4604 44.4111C50.2894 44.3619 51.052 44.2882 51.45 43.9808C51.8479 43.6795 52.5774 43.5811 53.423 43.538C54.2023 43.495 55.0812 43.5258 55.6947 43.2798C57.187 42.6896 57.1705 42.6834 58.215 42.6219C59.8565 42.5235 61.498 42.4251 63.1395 42.3206C64.2338 42.253 65.3778 42.2407 66.4058 42.1054C67.1519 42.0071 67.4835 41.6627 67.9643 41.423C69.3239 41.3307 70.6835 41.2385 72.0431 41.1524C73.9499 41.0294 75.8732 40.9188 77.7965 40.8019C78.6256 40.5683 78.7419 40.0518 80.1347 40.0272C80.9637 40.0149 81.7762 39.935 82.6052 39.8858C83.9814 39.7997 85.341 39.6891 86.7172 39.646C87.7618 39.6153 87.9439 39.2832 88.491 39.0742C88.6734 39.0004 88.8394 38.8959 89.0549 38.8775C91.2104 38.7053 93.4321 38.6684 95.5378 38.4163C95.7534 38.3917 95.9524 38.2626 96.0021 38.1704C96.0353 38.1212 95.7534 38.029 95.571 37.9859C95.3555 37.9368 95.0737 37.8876 94.8416 37.8999C87.9937 38.3118 81.1461 38.7299 74.2982 39.1419C73.3366 39.2034 73.3366 39.1972 70.9987 39.8735C70.7997 39.9288 70.5673 39.9903 70.3186 40.0088C69.2243 40.0825 68.1134 40.1256 67.0357 40.2179C66.1569 40.2916 65.4276 40.2178 64.7975 39.9965C64.3498 39.8366 63.8854 39.7874 63.3216 39.7997C62.6916 39.8182 62.2773 39.8858 61.9125 40.0518C61.4317 40.2793 61.1829 40.5744 60.1714 40.6359C55.5123 40.9003 50.8528 41.1954 46.2102 41.4783C45.5636 41.3922 45.2486 41.2631 45.4144 41.1094C45.5139 41.0171 45.7129 40.8942 45.9119 40.8819C47.8187 40.7528 49.742 40.6421 51.6487 40.5191C51.914 40.5007 52.2788 40.5129 52.428 40.4514C53.1575 40.1748 53.4231 39.7259 54.7993 39.6952C55.5952 39.6767 56.4075 39.5845 57.1702 39.4985C57.3858 39.4739 57.5848 39.3447 57.6345 39.2525C57.6511 39.2033 57.3858 39.1111 57.1868 39.068C56.4573 38.8897 55.6118 39.105 54.8823 38.982C54.6336 38.939 54.2852 38.8775 54.2354 38.8037C54.2023 38.736 54.4842 38.6254 54.6831 38.5577C54.8655 38.4962 55.1141 38.4409 55.3628 38.4225C57.5515 38.2811 59.7404 38.1335 61.9291 38.0228C62.8245 37.9798 63.4544 37.826 63.8523 37.5432C64.1508 37.3341 64.5155 37.2235 65.0793 37.1928C68.9094 36.9653 72.7395 36.7132 76.5862 36.5041C77.5479 36.4549 78.0455 36.2521 78.4434 35.9877C78.7584 35.7786 79.1233 35.7048 79.7368 35.6679C85.225 35.3482 90.6799 34.9916 96.1681 34.6842C97.1795 34.6289 97.4781 34.3645 97.9921 34.137C98.1745 34.057 98.2903 33.9587 98.5224 33.9095C98.7546 33.8603 99.053 33.8664 99.3349 33.8541C103.712 33.5897 108.09 33.3069 112.484 33.061C113.512 33.0056 113.71 32.6982 114.241 32.483C114.423 32.4153 114.589 32.3047 114.805 32.2862C118.088 32.0772 121.371 31.8804 124.654 31.6775C126.842 31.5423 129.031 31.407 131.22 31.2779C132.297 31.2164 132.297 31.2102 133.756 30.6261C133.922 30.5585 134.155 30.4785 134.37 30.4601C140.671 30.0666 146.955 29.6916 153.255 29.3042C153.786 29.2735 154.167 29.132 154.433 28.9229C154.698 28.7139 155.079 28.5725 155.593 28.5417C160.518 28.2343 165.442 27.9331 170.383 27.6441C171.279 27.5949 171.909 27.4473 172.307 27.1706C172.605 26.9616 172.97 26.8509 173.534 26.8202C178.458 26.5251 183.383 26.2114 188.324 25.9286C189.269 25.8733 189.733 25.6642 190.197 25.4183C190.363 25.3322 190.496 25.1908 190.695 25.1785C193.149 25.0063 195.586 24.828 198.056 24.7112C199.084 24.662 199.433 24.4038 199.847 24.1578C200.179 23.9611 200.56 23.8935 201.19 23.8689C202.567 23.8135 203.926 23.709 205.269 23.6045C205.468 23.5861 205.717 23.4508 205.734 23.3647C205.767 23.2049 205.385 23.0942 204.755 23.0388C198.189 23.4385 191.607 23.8381 185.041 24.2378C183.963 24.3054 183.963 24.3054 182.504 24.8895C182.338 24.9572 182.106 25.0371 181.874 25.0556C175.573 25.4429 169.289 25.8241 162.988 26.2115C162.458 26.2422 162.077 26.3836 161.811 26.5927C161.546 26.8017 161.164 26.9432 160.65 26.9739C154.631 27.3428 148.613 27.7179 142.577 28.0684C141.682 28.1175 141.052 28.2589 140.654 28.5417C140.356 28.7508 139.991 28.8615 139.427 28.8922C133.674 29.2366 127.937 29.5993 122.167 29.9313C121.586 29.962 121.155 29.7837 121.189 29.6177C121.205 29.5316 121.453 29.3903 121.652 29.378C124.654 29.1751 127.638 28.966 130.656 28.8123C131.667 28.7631 131.966 28.4926 132.48 28.2651C132.645 28.1851 132.778 28.0806 132.994 28.0376C133.226 27.9884 133.524 27.9946 133.806 27.9823C140.919 27.5457 148.033 27.103 155.162 26.6911C156.19 26.6296 156.389 26.3283 156.92 26.1131C157.102 26.0393 157.268 25.9287 157.484 25.9164C159.672 25.7688 161.861 25.6397 164.049 25.5105C167.88 25.2769 171.71 25.0432 175.556 24.8096C176.667 24.742 176.667 24.7419 178.093 24.164C178.259 24.0963 178.491 24.0103 178.707 23.998C188.838 23.377 198.969 22.756 209.099 22.1412C209.63 22.1104 210.011 21.969 210.277 21.76C210.542 21.5571 210.923 21.4095 211.437 21.3726C225.133 20.5364 238.812 19.7002 252.508 18.8763C253.403 18.8209 254.033 18.6918 254.431 18.4028C254.713 18.1938 255.094 18.0831 255.658 18.0462C270.713 17.1301 285.768 16.214 300.84 15.2917C310.971 14.6768 321.102 14.0497 331.233 13.4471C332.161 13.3918 332.659 13.2011 333.123 12.9491C333.272 12.863 333.421 12.7216 333.62 12.7093C335.792 12.5555 337.964 12.4142 340.136 12.2727C340.816 12.4387 341.496 12.5986 342.176 12.7646C342.69 12.531 343.188 12.2912 343.702 12.0576C346.984 11.8792 350.218 11.6026 353.534 11.5165C353.749 11.5103 353.981 11.6272 354.213 11.6887C355.755 12.076 356.634 12.0453 357.613 11.5288C357.961 11.3443 358.259 11.1783 358.79 11.1476C360.431 11.0369 362.09 10.9631 363.715 10.834C364.593 10.7664 365.323 10.8278 365.953 11.0492C366.4 11.209 366.865 11.2767 367.412 11.2398C370.43 11.0554 373.431 10.877 376.448 10.6803C376.664 10.668 376.863 10.5634 377.028 10.4896C377.377 10.3298 377.675 10.1577 378.007 9.99165C378.455 10.0962 378.952 10.1761 379.317 10.3114C379.781 10.4712 380.212 10.4712 380.842 10.4282C392.88 9.6842 404.934 8.95868 416.972 8.20856C418 8.14708 418.447 8.40534 419.144 8.54061C419.376 8.5898 419.608 8.65125 419.857 8.66355C420.122 8.67584 420.404 8.63899 420.669 8.62054C429.706 8.06717 438.742 7.51991 447.779 6.96655C448.972 6.89276 448.973 6.89276 450.747 7.27397C450.962 7.32316 451.244 7.37851 451.476 7.36006C455.588 7.12027 459.7 6.86205 463.795 6.61611C464.326 6.58537 464.774 6.68373 465.255 6.82514C466.2 7.10183 466.266 7.10185 466.962 6.69605C467.294 6.50544 467.642 6.38857 468.189 6.33323C468.786 6.27174 469.267 6.29026 469.731 6.40093C470.395 6.55464 470.876 6.81284 471.887 6.74521C476.264 6.45623 480.658 6.21646 485.019 5.92133C486.014 5.85369 486.544 6.06273 487.208 6.21644C487.44 6.27178 487.655 6.35787 487.904 6.37631C488.153 6.39476 488.451 6.35167 488.716 6.33323C494.188 6.00121 499.676 5.6754 505.131 5.31878C506.159 5.25115 506.607 5.51548 507.303 5.65075C507.535 5.69994 507.801 5.78606 508.016 5.77377C511.299 5.58316 514.599 5.3802 517.882 5.1773C519.059 5.10352 519.059 5.10967 520.85 5.48473C521.065 5.53392 521.347 5.58311 521.579 5.57082C525.41 5.34332 529.256 5.10967 533.086 4.87603C534.264 4.80225 534.264 4.80226 537.663 5.12199C537.911 5.14658 538.177 5.18352 538.425 5.17122C542.803 4.90684 547.196 4.64856 551.574 4.36573C552.452 4.31039 553.182 4.35956 553.812 4.58091C554.26 4.74077 554.724 4.80844 555.271 4.77155C560.196 4.47027 565.137 4.18131 570.045 3.86158C570.99 3.8001 571.603 3.93531 572.266 4.11362C572.482 4.1751 572.698 4.2612 572.946 4.28579C573.195 4.31039 573.477 4.28578 573.742 4.26733C578.667 3.96605 583.608 3.68323 588.515 3.35736C589.51 3.28973 590.041 3.49876 590.704 3.65248C590.936 3.70781 591.185 3.81849 591.384 3.81235C593.307 3.70782 595.231 3.61563 597.137 3.46191C598.165 3.37583 598.613 3.65861 599.31 3.79388C599.542 3.83692 599.807 3.92919 600.022 3.9169C604.134 3.6771 608.247 3.42503 612.342 3.16679C612.922 3.1299 613.353 3.18519 613.818 3.34505C614.431 3.56025 615.144 3.64633 616.04 3.5787C617.946 3.43728 619.87 3.33893 621.793 3.22211C622.921 3.15448 622.921 3.1545 626.369 3.47422C626.618 3.49881 626.883 3.53568 627.132 3.52338C630.415 3.32663 633.714 3.13604 636.981 2.92084C637.86 2.85935 638.589 2.91467 639.219 3.13602C639.667 3.29588 640.115 3.36355 640.678 3.32666C643.696 3.14221 646.697 2.95773 649.715 2.77328C650.809 2.70564 651.904 2.58879 652.998 2.58879C653.794 2.59494 654.374 2.89006 655.087 3.03762C655.286 3.08066 655.618 3.03153 655.883 3.01924C659.713 2.78559 663.56 2.57037 667.373 2.30598C668.368 2.23835 668.899 2.44739 669.562 2.6011C669.794 2.65644 670.043 2.76712 670.242 2.76097C671.618 2.69334 672.978 2.6011 674.354 2.52117C675.995 2.42279 677.653 2.34901 679.278 2.21374C680.605 2.10307 681.102 2.63797 682.163 2.65642C682.976 2.67486 683.805 2.57036 684.617 2.52117C686.259 2.42279 687.9 2.31213 689.542 2.22605C690.122 2.19531 690.57 2.09689 690.752 1.87554C690.786 1.8325 690.504 1.74031 690.321 1.68498C688.116 1.05783 688.116 1.0578 685.894 1.19306C684.518 1.27914 683.158 1.36524 681.782 1.43902C681.55 1.45132 681.285 1.40213 681.052 1.36524C680.389 1.26072 680.456 1.13776 681.019 0.916409C681.583 0.695062 682.014 0.424551 682.495 0.172461C683.175 0.332323 683.838 0.492127 684.518 0.651989C685.065 0.621247 685.612 0.584409 686.159 0.553667C688.895 0.393805 691.631 0.227782 694.367 0.0802176C694.566 0.0679206 694.814 0.190909 695.047 0.252395C695.71 0.430702 696.307 0.584373 697.268 0.51674C699.722 0.338432 702.193 0.209313 704.647 0.0555995C705.725 -0.0120344 705.725 -0.0120284 707.615 0.369181C707.83 0.41222 708.112 0.461412 708.344 0.449115C710.815 0.307698 713.269 0.154003 715.739 0.00643822C716.27 -0.0243045 716.784 0.0556235 717.165 0.233931C717.315 0.307713 717.281 0.43066 717.911 1.43902C719.868 2.25677 721.211 2.17074 722.571 2.09695C723.151 2.06621 723.665 2.03544 724.046 1.91247C724.245 1.84483 724.494 1.74644 724.494 1.66651C724.494 1.60503 724.129 1.50663 723.897 1.49434C722.256 1.37136 720.697 1.62964 719.089 1.68498C718.342 1.70957 717.696 1.49437 717.563 1.1439C717.53 1.04553 717.48 0.941006 717.43 0.84263C717.381 0.744253 717.348 0.639734 717.298 0.541358C716.651 0.510615 716.27 0.621271 715.988 0.830321C715.756 1.00248 715.424 1.19923 714.977 1.29146C714.529 1.38984 713.915 1.37142 713.368 1.40217C712.838 1.43291 712.257 1.51283 711.76 1.46979C711.263 1.4206 710.865 1.24227 710.4 1.13159C710.185 1.07626 709.92 0.996355 709.704 1.00865C707.797 1.11318 705.907 1.21766 704.017 1.35293C703.022 1.42671 702.525 1.16851 701.895 1.00865C701.397 0.885682 700.899 0.916385 700.817 1.19922C700.601 1.87556 701.364 2.15837 703.055 2.02925C704.448 1.91858 705.708 1.90019 706.802 2.31829C706.952 2.37363 707.3 2.39822 707.515 2.38592C708.875 2.31214 710.218 2.2199 711.577 2.14612C711.826 2.13382 712.092 2.15837 712.324 2.18297C715.706 2.51499 715.706 2.52117 716.85 2.44739C717.398 2.4105 717.928 2.37975 717.878 1.44517C718.923 0.442963 720.581 0.375341 722.189 0.227776C723.234 0.135548 723.681 0.406096 724.361 0.547512C724.593 0.596701 724.842 0.695059 725.058 0.682762C728.623 0.47986 732.171 0.264632 735.719 0.0371359C736.316 0.000244649 736.747 0.0371419 737.211 0.197004C737.808 0.399905 738.471 0.529052 739.416 0.455269C741.307 0.307704 743.23 0.215497 745.153 0.0925267C746.132 0.0310414 746.132 0.0309783 748.105 0.412187C748.32 0.455227 748.602 0.504418 748.834 0.492121C750.758 0.387596 752.665 0.258516 754.571 0.147842C755.102 0.1171 755.583 0.20317 755.997 0.369181C756.412 0.535191 756.909 0.621262 757.423 0.590519C759.347 0.479845 761.253 0.356914 763.16 0.24624C763.392 0.233943 763.674 0.27698 763.89 0.320019C765.912 0.701229 765.913 0.701166 766.841 0.63968C768.201 0.547452 769.593 0.504461 770.936 0.38149C772.246 0.258519 772.926 0.615104 773.821 0.811857C776.275 0.670441 778.746 0.553649 781.183 0.38149C782.178 0.307707 782.709 0.510591 783.372 0.670453C783.604 0.72579 783.836 0.842624 784.052 0.836475C784.881 0.811881 785.693 0.744259 786.506 0.695071C787.318 0.645883 788.147 0.596701 788.96 0.547512C789.888 0.72582 790.502 1.14391 791.828 1.0025C792.624 0.916418 793.47 0.897973 794.282 0.848784C795.095 0.799596 795.924 0.750414 796.736 0.701226C797.283 0.670483 797.847 0.65201 798.378 0.596674C799.356 0.504445 799.837 0.80576 800.533 0.941027C800.765 0.984067 801.03 1.0578 801.246 1.0455C802.887 0.959425 804.545 0.885649 806.154 0.744232C807.397 0.633559 808.243 0.818039 809.122 1.07628C809.304 1.13161 809.619 1.16235 809.851 1.15006C811.775 1.04553 813.681 0.916376 815.588 0.805703C816.102 0.77496 816.6 0.873334 817.014 1.0332C817.445 1.19921 817.926 1.2792 818.457 1.24845C820.363 1.13778 822.287 1.01477 824.194 0.9041C824.426 0.891803 824.708 0.941 824.923 0.990189C826.78 1.3714 826.78 1.37755 827.875 1.30377C828.14 1.28532 828.422 1.27298 828.687 1.25453C830.047 1.16845 831.456 1.13775 832.783 0.990189C834.308 0.824178 835.419 1.03324 836.497 1.3837C837.856 1.30992 839.249 1.26687 840.575 1.1439C841.57 1.05167 842.101 1.28531 842.764 1.43902C842.996 1.49436 843.245 1.60503 843.444 1.59273C845.367 1.48821 847.29 1.39601 849.181 1.2423C850.209 1.15622 850.656 1.43285 851.353 1.57427C851.585 1.62346 851.834 1.70958 852.049 1.69729C853.143 1.6481 854.238 1.57428 855.332 1.50664C856.609 1.42671 856.609 1.43286 858.3 1.80792C859.096 1.98622 859.892 1.8448 860.671 1.80176C861.5 1.75257 862.28 1.71569 862.943 1.96778C863.357 2.12765 863.855 2.22603 864.369 2.20143C865.463 2.1461 866.574 2.09079 867.652 1.99856C868.514 1.92477 869.26 1.97394 869.89 2.20143C870.338 2.36129 870.802 2.44127 871.349 2.40438C873.803 2.25682 876.274 2.10305 878.728 1.96163C878.943 1.94933 879.241 2.00469 879.44 2.06003C879.905 2.1707 880.353 2.29364 880.8 2.41662C881.878 2.36128 882.989 2.33675 884.05 2.25067C885.177 2.16459 886.206 2.13384 887.084 2.47201C887.267 2.54579 887.532 2.65026 887.747 2.64411C888.576 2.61951 889.389 2.55805 890.201 2.50886C891.014 2.45967 891.843 2.41049 892.655 2.3613C893.6 2.51501 894.198 2.9577 895.524 2.81629C896.32 2.73021 897.166 2.71176 897.978 2.66257C898.79 2.61338 899.619 2.55805 900.432 2.51501C900.697 2.50272 900.996 2.47196 901.228 2.49655C901.476 2.52114 901.692 2.60724 901.907 2.66873C902.571 2.84703 903.184 3.02536 904.129 2.92084C904.925 2.83476 905.771 2.81631 906.583 2.76097C907.694 2.69334 907.694 2.69335 909.535 3.08071C910.281 3.24057 911.126 3.03153 911.839 3.16679C912.32 3.25902 912.735 3.4127 913.199 3.51723C913.398 3.56027 913.713 3.57869 913.945 3.56639C915.039 3.51105 916.15 3.45574 917.228 3.36351C918.107 3.28973 918.836 3.36351 919.45 3.58485C919.898 3.74471 920.345 3.81238 920.909 3.77549C923.645 3.60333 926.381 3.45572 929.1 3.26512C930.029 3.19748 930.774 3.30203 931.288 3.52338C932.167 3.90459 933.411 3.45576 934.323 3.76318C934.887 3.95379 935.45 4.17515 936.478 4.08292C938.369 3.92306 940.292 3.83693 942.199 3.72626C942.878 3.89227 943.558 4.05831 944.255 4.22432C945.349 4.15669 946.443 4.08901 947.538 4.02753C948.35 3.97834 949.179 3.92301 949.991 3.87997C950.257 3.86767 950.539 3.84307 950.787 3.87382C951.036 3.90456 951.235 3.98451 951.467 4.04599C952.611 4.34727 952.611 4.35345 954.501 4.23048C955.314 4.17514 956.093 4.13825 956.773 4.38419C957.403 4.61169 958.149 4.6547 959.011 4.58707C960.636 4.4641 962.278 4.37187 963.936 4.28579C964.45 4.25505 964.931 4.35958 965.362 4.51944C966.008 4.77153 966.804 4.74694 967.617 4.67931C968.695 4.59323 969.756 4.50717 970.668 4.85149C970.85 4.92527 971.132 5.02974 971.331 5.02359C972.691 4.9744 974.067 4.93754 975.393 4.82071C976.72 4.70389 977.366 5.08509 978.278 5.26954C979.638 5.18961 981.014 5.10967 982.374 5.02974C982.639 5.0113 982.954 4.95599 983.186 4.98674C984.164 5.11586 984.728 5.57698 986.071 5.43557C986.85 5.35564 987.696 5.33107 988.508 5.31263C988.724 5.30648 989.006 5.41095 989.155 5.49088C989.238 5.53392 989.155 5.65074 989.056 5.71222C988.757 5.88438 988.392 6.04429 988.127 6.2226C988.094 6.24719 988.409 6.35782 988.591 6.40701C989.039 6.51768 989.553 6.49928 990.15 6.45009C990.664 6.40705 991.195 6.49313 991.559 6.67758C991.709 6.75137 991.659 6.87432 991.344 7.28013C991.344 7.58141 991.692 7.44611 991.808 7.24935C991.99 6.96652 991.642 6.8743 990.979 7.02802C990.515 7.13869 990.283 7.29857 990.399 7.42769C990.465 7.49532 990.78 7.58141 991.344 7.28013C992.803 6.91122 993.897 6.84361 994.992 6.77598C995.274 6.75754 995.605 6.69601 995.804 6.7329C996.517 6.88046 997.18 7.0588 997.877 7.22481C998.673 7.18792 999.419 7.09565 1000.2 7.33544C1001.29 7.67361 1001.34 7.64288 1002.4 7.57525C1002.95 7.53835 1003.5 7.50767 1004.04 7.47692C1004.59 7.44618 1005.02 7.53838 1005.5 7.6798C1006.48 7.96878 1006.56 7.96875 1007.21 7.57525C1007.59 7.33545 1007.86 7.25554 1008.34 7.36622C1009.93 7.74128 1009.95 7.76585 1011.31 7.65518C1012.43 7.56295 1013.5 7.53836 1014.32 7.88883C1014.89 8.13477 1015.07 8.07944 1015.52 7.8212C1016.71 7.13871 1017.26 7.15099 1019.5 7.64287C1020.54 7.87651 1021.62 7.62445 1022.68 7.59371C1023.58 7.56911 1024.21 7.71665 1024.27 8.10401C1024.32 8.3438 1024.47 8.51599 1025.07 8.59592C1025.3 8.62667 1025.58 8.66969 1025.81 8.65739C1027.19 8.58361 1028.55 8.49752 1029.93 8.41144C1030.62 8.3684 1031 8.07947 1030.87 7.69826C1030.72 7.29246 1030.99 7.14484 1031.98 7.02802C1032.58 6.96038 1033.06 6.97273 1033.54 7.08341C1034.07 7.20638 1033.92 7.31705 1033.46 7.53839C1032.35 8.07946 1032.48 8.41143 1033.91 8.78649C1034.4 8.91561 1034.8 9.03248 1034.92 9.22309C1034.98 9.32146 1034.92 9.45058 1035.07 9.52436C1035.88 9.93631 1037.01 10.2007 1038.27 10.3975C1039.48 10.2315 1040.31 10.5081 1041.24 10.7294C1041.96 10.9016 1042.83 10.7541 1043.61 10.6926C1044.48 10.625 1045.21 10.6741 1045.84 10.9016C1046.29 11.0615 1046.76 11.1352 1047.3 11.1045C1048.4 11.0369 1049.51 10.9938 1050.59 10.8955C1051.51 10.8094 1052.21 10.9324 1052.79 11.1414C1053.52 11.4058 1054.33 11.2275 1055.1 11.2644C1056.12 11.3074 1056.64 11.8546 1057.98 11.707C1058.78 11.621 1059.61 11.5902 1060.44 11.5656C1060.65 11.5595 1060.92 11.664 1061.1 11.7378C1061.98 12.076 1063.01 12.0575 1064.13 11.9592C1064.91 11.8915 1065.67 11.8301 1066.44 12.0637C1067.7 12.4572 1069.09 12.8016 1070.42 13.1643C1070.6 13.4471 1070.47 13.7791 1071.41 13.9451C1071.91 14.0312 1072.37 14.1604 1072.76 14.3018C1073.22 14.4678 1073.65 14.5108 1074.25 14.4678C1075.32 14.3817 1076.45 14.3632 1077.51 14.2525C1078.49 14.1542 1079.11 14.3571 1079.7 14.5477C1080.18 14.7015 1080.63 14.7752 1081.21 14.6645C1081.81 14.56 1082.24 14.6276 1082.72 14.7936C1083.4 15.0211 1083.45 14.9966 1085.7 15.0642C1085.94 15.0703 1086.22 15.1625 1086.35 15.2424C1086.42 15.2855 1086.27 15.4085 1086.15 15.47C1086 15.5438 1085.77 15.6298 1085.56 15.6483C1083.1 15.8081 1080.63 15.9496 1078.18 16.1094C1077.93 16.1279 1077.66 16.1709 1077.48 16.2324C1077.28 16.3001 1077.03 16.3922 1077.03 16.4783C1077.03 16.5398 1077.36 16.6136 1077.6 16.6566C1078.33 16.7981 1079.19 16.5829 1079.9 16.7427C1080.38 16.8473 1080.78 16.9948 1081.26 17.0932C1081.46 17.1362 1081.78 17.1301 1082.02 17.1178C1082.85 17.0747 1083.67 17.0133 1084.49 16.9764C1084.73 16.9702 1084.99 17.0317 1085.21 17.0809C1086.8 17.4498 1086.8 17.4498 1088.18 17.3699C1088.72 17.3392 1089.3 17.2469 1089.82 17.2838C1090.31 17.3207 1090.75 17.4867 1091.19 17.5912C1092.12 17.8126 1093 18.0278 1093.07 18.5074C1093.1 18.6918 1093.65 18.8516 1094.19 18.8639C1094.72 18.8762 1095.29 18.8087 1095.84 18.7718C1097.13 18.698 1097.13 18.698 1098.8 19.073C1099.27 19.1776 1099.76 19.1899 1100.36 19.1284C1100.59 19.1038 1100.88 19.1284 1101.12 19.1591C1101.94 19.2514 1101.94 19.3682 1101.41 19.5895C1100.66 19.9154 1100.73 19.9461 1102.82 20.2228C1103.61 20.3273 1104.23 20.5241 1104.89 20.6963C1105.97 20.973 1105.95 20.9729 1105.24 21.3357C1105.07 21.4156 1104.92 21.5017 1104.76 21.5878C1104.28 21.8276 1103.89 22.0858 1102.9 22.1104C1101.8 22.135 1100.71 22.2334 1099.62 22.301C1098.55 22.3687 1098.27 22.5162 1098.37 22.9343C1098.49 23.4385 1098.7 23.4938 1100.61 23.4877C1101.16 23.4877 1101.64 23.5368 1102.05 23.7028C1101.85 23.8996 1101.49 24.0533 1100.96 24.0902C1099.6 24.1824 1098.22 24.2624 1096.86 24.3423C1095.77 24.4099 1094.67 24.4776 1093.58 24.5452C1092.9 24.5882 1092.47 24.908 1092.65 25.2646C1092.75 25.4675 1092.83 25.6704 1092.92 25.8733C1093.1 26.2791 1093.45 26.3836 1094.56 26.3652C1094.84 26.3591 1095.11 26.3098 1095.37 26.3221C1096.45 26.3652 1096.96 26.8755 1098.26 26.771C1099.33 26.6849 1100.46 26.6664 1101.52 26.5558C1102.5 26.4574 1103.05 26.6788 1103.73 26.8448C1103.96 26.9001 1104.21 27.0169 1104.41 27.0108C1105.78 26.9431 1107.16 26.8755 1108.5 26.7587C1109.13 26.7095 1109.51 26.7464 1110.01 26.894C1111.21 27.2506 1111.24 27.2321 1113.01 27.1215C1114.31 27.0354 1114.32 27.0477 1115.98 27.4227C1116.45 27.5273 1116.94 27.5272 1117.54 27.478C1118.32 27.4166 1119.13 27.3182 1119.94 27.4104C1120.19 27.435 1120.51 27.5088 1120.59 27.5888C1120.64 27.6441 1120.41 27.7794 1120.21 27.8224C1118.75 28.1421 1117.04 28.0868 1115.45 28.2159C1114.95 28.2528 1114.46 28.136 1114.04 27.97C1113.61 27.804 1113.15 27.7363 1112.58 27.7671C1111.49 27.8347 1110.38 27.8777 1109.3 27.9761C1108.37 28.0622 1107.72 27.9208 1107.08 27.7302C1106.86 27.6687 1106.61 27.5518 1106.4 27.558C1103.94 27.681 1101.47 27.804 1099.04 27.9761C1098.06 28.0499 1097.49 27.8532 1096.83 27.6872C1096.6 27.6318 1096.37 27.515 1096.15 27.5211C1095.32 27.5457 1094.51 27.6133 1093.68 27.6625C1090.66 27.847 1087.66 28.0314 1084.64 28.2036C1084.44 28.2159 1084.2 28.0868 1083.96 28.0314C1083.52 27.9208 1083.05 27.8162 1082.59 27.7117C1081.76 27.7609 1080.95 27.8224 1080.12 27.8593C1079.52 27.8838 1078.99 27.97 1078.91 28.2036C1078.86 28.3573 1079.4 28.4987 1079.98 28.4864C1080.55 28.4741 1081.11 28.4003 1081.58 28.4803C1083.88 28.8738 1083.88 28.8799 1085.32 28.8C1086.58 28.7262 1086.45 28.6647 1087.56 29.0029C1088.04 29.1504 1088.47 29.2366 1089.02 29.1997C1090.38 29.1136 1091.76 29.0275 1093.13 28.9537C1093.35 28.9414 1093.63 29.0029 1093.85 29.0521C1095.47 29.421 1095.47 29.4333 1096.81 29.3411C1098.57 29.2304 1098.64 29.1997 1099.81 29.5747C1100.63 29.833 1101.37 29.6546 1102.15 29.6423C1103.05 29.8821 1104.03 30.0974 1104.84 30.3679C1105.8 30.6876 1106.81 30.6322 1107.91 30.54C1108.72 30.4724 1109.51 30.4478 1110.18 30.6999C1110.81 30.9335 1111.57 30.9582 1112.43 30.8967C1113.21 30.8413 1114.01 30.7245 1114.82 30.8597C1115.04 30.8966 1115.37 30.9889 1115.35 31.0442C1115.33 31.1303 1115.12 31.2533 1114.9 31.2902C1113.38 31.5423 1111.7 31.5361 1110.09 31.6529C1109.88 31.6714 1109.6 31.6037 1109.38 31.5545C1108.92 31.4439 1108.47 31.3148 1108.02 31.1979C1107.21 31.2348 1106.38 31.2471 1105.58 31.3209C1104.97 31.3762 1104.51 31.3701 1104.06 31.2226C1103.64 31.0873 1103.2 30.9212 1102.7 30.8782C1102.2 30.8352 1101.62 30.9274 1101.08 30.9643C1100.53 31.0012 1099.9 30.9827 1099.47 31.0811C1099.04 31.1795 1098.77 31.3947 1098.49 31.5668C1098.17 31.7574 1097.74 31.819 1097.11 31.8374C1096.53 31.8559 1096.07 31.8312 1095.64 31.6591C1095.45 31.5853 1095.21 31.5299 1094.96 31.4807C1094.72 31.4377 1094.46 31.3701 1094.24 31.3824C1091.77 31.5238 1089.32 31.6775 1086.85 31.8251C1085.62 31.8989 1085.64 31.8988 1083.08 31.5361C1082.85 31.5053 1082.57 31.4623 1082.34 31.4746C1080.96 31.5484 1079.6 31.6345 1078.23 31.7206C1076.83 31.8066 1076.85 31.7943 1074.48 31.407C1074.05 31.3332 1073.42 31.4316 1072.9 31.4193C1071.83 31.3885 1071.3 30.8721 1070.04 30.9704C1068.96 31.0565 1067.83 31.075 1066.75 31.1856C1065.77 31.284 1065.21 31.0688 1064.55 30.9028C1064.32 30.8475 1064.07 30.7245 1063.87 30.7368C1061.4 30.8721 1058.94 31.0258 1055.66 31.0442C1054.85 31.0442 1055.21 31.1734 1055.74 31.2164C1056.51 31.284 1056.75 31.1549 1056.34 30.909C1056.04 30.7368 1055.61 30.6507 1055.26 30.6937C1055.08 30.7183 1054.85 30.8352 1055.66 31.0442C1056.52 31.2779 1056.47 31.407 1056.62 31.4807C1056.99 31.6591 1057.5 31.7328 1058.03 31.7082C1058.86 31.6652 1059.67 31.6037 1060.5 31.5668C1060.73 31.5545 1061.02 31.5976 1061.23 31.6468C1063.06 32.028 1063.07 32.0526 1065.01 31.905C1065.63 31.862 1066.07 31.862 1066.55 31.9788C1067.22 32.1387 1067.7 32.4092 1068.71 32.3231C1070.05 32.2063 1071.43 32.1387 1072.8 32.0711C1073.02 32.0588 1073.25 32.1694 1073.5 32.2186C1074.18 32.3662 1074.68 32.6429 1075.69 32.526C1076.47 32.4338 1077.31 32.4092 1078.14 32.3907C1078.36 32.3846 1078.69 32.483 1078.79 32.5629C1078.99 32.7043 1078.74 32.8704 1078.18 32.9872C1077.94 33.0364 1077.63 33.0241 1077.36 33.0425C1076.27 33.1101 1075.18 33.1839 1074.08 33.2392C1073.5 33.27 1072.95 33.3622 1072.89 33.5897C1072.84 33.7434 1073.43 33.8787 1074 33.8664C1074.83 33.8479 1075.66 33.7988 1076.45 33.7188C1077.86 33.5836 1079.09 33.6204 1080.23 34.0078C1081.05 34.2783 1081 34.18 1081.86 34.9793C1082.07 35.1822 1082.72 35.2006 1083.28 35.1883C1084.64 35.1576 1085.27 35.2498 1085.16 35.4404C1085.01 35.6741 1084.53 35.7478 1083.91 35.7786C1082.82 35.8278 1081.73 35.9077 1080.63 35.9754C1080.37 35.9938 1080.07 36.0307 1079.82 36.0184C1079.57 36.0061 1079.34 35.9323 1079.12 35.877C1078.66 35.7601 1078.26 35.5818 1077.76 35.5388C1077.27 35.4957 1076.68 35.588 1076.14 35.6249C1075.59 35.6556 1075.01 35.7478 1074.51 35.7048C1074.02 35.6618 1073.6 35.4773 1073.15 35.3667C1072.94 35.3113 1072.67 35.2252 1072.46 35.2313C1071.36 35.2805 1070.27 35.3605 1069.17 35.422C1067.83 35.5019 1067.83 35.5019 1066.21 35.1207C1065.74 35.01 1065.26 35.0162 1064.65 35.0654C1063.32 35.1638 1063.3 35.1453 1060.88 34.7887C1060.65 34.7518 1060.37 34.7087 1060.14 34.7272C1057.67 34.8686 1055.21 35.0223 1052.76 35.1699C1050.65 35.299 1050.65 35.299 1049.49 35.9139C1048.63 36.3689 1048.61 36.3689 1049.46 36.5779C1050.14 36.7501 1050.75 37.0021 1051.5 37.0944C1052.19 37.1804 1053.06 36.9038 1053.82 37.1866C1054.2 37.328 1054.7 37.4817 1055.18 37.5063C1055.94 37.5371 1056.75 37.3587 1057.48 37.6293C1057.85 37.7646 1058.4 37.906 1058.86 37.9122C1059.67 37.9245 1060.5 37.826 1061.31 37.783C1061.56 37.7707 1061.85 37.7707 1062.08 37.8015C1062.33 37.8384 1062.54 37.9122 1062.76 37.9736C1063.42 38.1827 1064.13 38.281 1065 38.1765C1066.4 38.0044 1067.66 38.0904 1068.76 38.4839C1068.91 38.5393 1069.27 38.5455 1069.51 38.5209C1070.1 38.4594 1070.62 38.4532 1071.06 38.57C1071.25 38.6192 1071.51 38.7053 1071.48 38.7606C1071.43 38.8528 1071.23 38.9758 1071.01 39.0066C1069.46 39.2156 1067.78 39.2402 1066.17 39.3509C1065.96 39.3632 1065.69 39.2832 1065.48 39.2279C1065.01 39.1172 1064.61 38.9328 1064.12 38.8898C1063.62 38.8467 1063.04 38.9266 1062.49 38.9574C1061.94 38.9881 1061.36 39.0804 1060.87 39.0435C1060.37 39.0004 1059.91 38.8467 1059.51 38.7114C1059.04 38.5577 1058.6 38.5393 1057.98 38.6008C1057.19 38.6807 1056.36 38.693 1055.54 38.7361C1055.1 38.6192 1054.65 38.4901 1054.18 38.3794C1053.97 38.3241 1053.7 38.2565 1053.47 38.2626C1052.38 38.3118 1051.28 38.3855 1050.19 38.4532C1049.09 38.5208 1049.09 38.5209 1047.24 38.1397C1047.02 38.0966 1046.74 38.0474 1046.51 38.0597C1045.13 38.1335 1043.77 38.2257 1042.4 38.2995C1041.87 38.3302 1041.38 38.2441 1040.95 38.0781C1040.54 37.9121 1040.04 37.8199 1039.53 37.8506C1037.34 37.9797 1035.15 38.1027 1032.96 38.2564C1032.08 38.3179 1031.34 38.2626 1030.74 38.0413C1030.04 37.7892 1029.26 37.8507 1028.45 37.8999C1026.61 38.0228 1026.59 38.0166 1025.42 37.7031C1025.18 37.6416 1024.95 37.5247 1024.74 37.5309C1022.83 37.6231 1020.91 37.7092 1019.02 37.8568C1018.02 37.9367 1017.49 37.7215 1016.83 37.5617C1016.6 37.5063 1016.35 37.3895 1016.15 37.4018C1014.77 37.4694 1013.4 37.5309 1012.05 37.6539C1010.71 37.7769 1010.2 37.2051 1009.18 37.2112C1007.81 37.2174 1006.45 37.3588 1005.09 37.4449C1003.99 37.5125 1002.9 37.5801 1001.81 37.6477C1000.71 37.7154 999.618 37.7707 998.523 37.8506C997.943 37.8937 997.512 37.8383 997.031 37.6846C996.418 37.4817 995.688 37.3219 995.025 37.1374C994.013 36.8731 994.013 36.873 992.786 36.9468C992.521 36.9653 992.239 36.9775 991.974 36.996C989.968 37.1312 989.968 37.119 987.414 36.7316C987.298 36.7132 987 36.7808 986.884 36.83C986.535 36.9899 986.221 37.162 985.906 37.328C985.458 37.2296 984.911 37.1743 984.612 37.0329C983.767 36.6332 982.44 37.1804 981.578 36.7869C981.263 36.6394 980.715 36.5102 980.218 36.4734C979.704 36.4365 979.124 36.5226 978.593 36.5594C977.217 36.6517 977.217 36.6455 976.04 37.1928C975.443 37.4633 974.581 37.4141 973.802 37.4756C972.989 37.5432 972.21 37.5801 971.53 37.328C970.916 37.1005 970.17 37.0452 969.292 37.119C968.214 37.2112 967.103 37.2665 966.009 37.3219C965.777 37.3342 965.494 37.3034 965.262 37.2665C962.725 36.9038 962.725 36.8976 961.498 36.9776C960.951 37.0145 960.387 37.0267 959.857 37.0821C958.962 37.1804 958.282 37.0513 957.635 36.8546C957.42 36.7931 957.171 36.6763 956.955 36.6825C955.861 36.7132 954.783 36.7685 953.706 36.8239C952.876 36.8669 952.047 36.8915 951.252 36.9776C949.925 37.119 949.279 36.7193 948.367 36.5348C947.007 36.6148 945.631 36.6701 944.271 36.7808C943.641 36.83 943.227 36.8116 942.746 36.664C942.132 36.4795 941.569 36.2705 940.574 36.3627C939.247 36.4857 937.855 36.5287 936.495 36.6025C935.583 36.4119 934.92 36.0245 933.61 36.1659C932.814 36.252 931.968 36.2705 931.156 36.3196C930.062 36.3873 928.967 36.4488 927.873 36.5226C926.696 36.5964 926.712 36.5779 924.905 36.2152C923.86 36 922.782 36.2397 921.721 36.2766C920.892 36.3074 920.478 36.5902 920.677 36.953C920.876 37.3157 920.428 37.5986 919.665 37.6477C917.758 37.7646 915.835 37.8875 913.928 37.992C913.696 38.0043 913.415 37.9613 913.199 37.9182C911.16 37.5309 911.159 37.5371 910.248 37.5924C908.888 37.6847 907.495 37.7338 906.152 37.8506C905.224 37.9306 904.544 37.8015 903.947 37.5924C903.483 37.4326 903.052 37.3957 902.455 37.4326C895.889 37.8445 889.323 38.2257 882.773 38.65C881.795 38.7114 881.231 38.5332 880.568 38.3672C880.336 38.3118 880.12 38.195 879.888 38.195C879.341 38.195 878.794 38.2503 878.247 38.2872C875.793 38.4348 873.339 38.6131 870.868 38.7237C869.824 38.7729 869.542 39.0558 869.094 39.2894C868.746 39.4677 868.348 39.5415 867.735 39.5661C867.138 39.5907 866.707 39.5599 866.242 39.4001C865.645 39.191 864.966 39.0619 864.037 39.148C862.96 39.2463 861.865 39.2894 860.754 39.3571C860.19 39.3878 859.759 39.4985 859.577 39.7198C859.544 39.7567 859.892 39.8489 860.091 39.9043C860.754 40.0887 861.384 40.3039 862.13 40.433C862.893 40.5622 863.722 40.4146 864.518 40.3777C864.8 40.3654 865.065 40.3285 865.33 40.3347C865.579 40.3408 865.878 40.3716 866.06 40.4269C866.922 40.7036 867.834 40.8942 869.028 40.7282C870.056 40.8081 870.587 41.3184 871.897 41.1832C872.692 41.1032 873.521 41.0663 874.35 41.0356C874.566 41.0294 874.798 41.1401 875.03 41.1955C875.693 41.3492 876.224 41.5951 877.219 41.4906C878.28 41.3799 879.408 41.3615 880.485 41.2754C881.082 41.2262 881.513 41.2692 881.977 41.4291C882.574 41.632 883.254 41.7857 884.183 41.6873C884.979 41.6012 885.824 41.5828 886.637 41.5274C887.698 41.4598 887.698 41.466 889.588 41.8472C889.804 41.8902 890.085 41.9394 890.318 41.9271C891.694 41.8533 893.053 41.7611 894.429 41.6873C894.96 41.6566 895.474 41.7365 895.839 41.9148C895.988 41.9886 895.938 42.1116 895.988 42.2161C893.252 42.3822 890.516 42.5235 887.797 42.7264C886.769 42.8064 886.305 42.5543 885.625 42.4129C885.393 42.3637 885.144 42.2592 884.929 42.2715C883.005 42.376 881.099 42.4866 879.192 42.6219C878.595 42.6649 878.147 42.6403 877.7 42.462C876.556 41.9886 875.163 42.2468 873.87 42.3145C872.875 42.3637 872.56 42.5543 872.676 42.9601C872.825 43.4397 873.422 43.5872 874.947 43.5012C875.494 43.4704 876.041 43.4274 876.589 43.4028C877.119 43.3782 877.6 43.4581 878.031 43.6241C878.446 43.7901 878.943 43.8762 879.457 43.8516C880.551 43.7963 881.662 43.7409 882.723 43.6487C883.602 43.5749 884.332 43.6364 884.945 43.8639C885.625 44.116 886.421 44.0606 887.217 44.0053C889.074 43.8823 889.09 43.8885 890.251 44.1959C890.483 44.2574 890.716 44.3743 890.931 44.3681C892.838 44.2759 894.761 44.196 896.635 44.0484C897.613 43.9746 898.177 44.1713 898.824 44.3312C899.056 44.3865 899.288 44.5095 899.503 44.4972C900.879 44.4296 902.256 44.3619 903.599 44.2451C904.229 44.1898 904.61 44.2266 905.124 44.3742C906.351 44.737 906.384 44.7247 908.125 44.6079C908.656 44.571 909.236 44.5033 909.733 44.5525C910.231 44.6017 910.629 44.7801 911.093 44.8907C911.309 44.9399 911.574 45.0075 911.806 44.9952C912.9 44.946 913.995 44.8723 915.089 44.8046C916.117 44.737 916.117 44.7432 918.04 45.1244C918.82 45.2842 919.632 45.149 920.412 45.0998C921.257 45.0444 922.02 45.0445 922.666 45.2843C923.313 45.524 924.093 45.5117 924.922 45.4625C925.701 45.4133 926.497 45.2781 927.293 45.4441C929.116 45.8253 929.116 45.8314 930.244 45.7576C931.885 45.6531 933.51 45.5547 935.168 45.4625C935.384 45.4502 935.666 45.524 935.881 45.5732C936.346 45.6839 936.744 45.8683 937.241 45.9113C937.738 45.9605 938.319 45.8868 938.849 45.8499C940.557 45.733 940.673 45.69 941.817 46.0958C942.779 46.4278 943.973 45.9483 944.868 46.3295C945.382 46.5447 946.078 46.7168 947.04 46.6123C947.836 46.5262 948.665 46.5016 949.494 46.4524C950.804 46.3725 950.804 46.3787 952.462 46.7476C952.678 46.7968 952.959 46.8582 953.175 46.8459C954.269 46.7967 955.38 46.7537 956.442 46.6431C957.685 46.5139 958.481 46.7476 959.409 46.9751C960.139 47.1534 961.001 47.0058 961.781 46.9443C962.626 46.8828 963.389 46.9013 964.019 47.141C964.682 47.387 965.461 47.3563 966.29 47.3071C967.07 47.264 967.865 47.1226 968.661 47.2948C970.369 47.676 970.369 47.676 971.613 47.6022C972.707 47.5346 973.801 47.4608 974.896 47.4116C975.111 47.3993 975.376 47.4792 975.592 47.5346C976.056 47.6452 976.454 47.8297 976.952 47.8728C977.449 47.9158 978.029 47.8359 978.577 47.8051C979.124 47.7744 979.704 47.6822 980.201 47.719C980.699 47.7559 981.163 47.9097 981.561 48.0449C982.025 48.2048 982.456 48.2232 983.086 48.1617C983.882 48.0818 984.711 48.0634 985.524 48.0203C985.971 48.1371 986.436 48.2539 986.867 48.3831C987.315 48.5183 987.795 48.506 988.409 48.463C990.448 48.3154 990.465 48.3339 992.173 48.7151C992.952 48.8873 993.765 48.7458 994.544 48.7028C995.373 48.6536 996.152 48.629 996.799 48.875C997.429 49.1086 998.208 49.1393 999.037 49.0655C999.568 49.0164 1000.13 48.9857 1000.68 48.9672C1000.93 48.9611 1001.23 48.9857 1001.41 49.0348C1002.29 49.2931 1003.15 49.5267 1004.36 49.3607C1005.42 49.4099 1005.95 49.9141 1007.23 49.8157C1008.31 49.7296 1009.43 49.7111 1010.49 49.6005C1011.47 49.5021 1012.17 49.6743 1012.67 49.8895C1013.56 50.2707 1014.82 49.7542 1015.72 50.1293C1016.23 50.3445 1016.89 50.5166 1017.89 50.4244C1018.98 50.326 1019.33 50.4551 1019.65 50.8425C1019.83 51.0638 1019.8 51.2422 1019.46 51.4143C1019.13 51.5926 1018.77 51.5619 1018.24 51.359C1017.62 51.1315 1016.89 51.0884 1016.02 51.1376C1015.15 51.1868 1014.62 50.8671 1013.91 50.7442C1013.2 50.615 1012.35 50.8302 1011.61 50.6642C1009.85 50.2769 1009.85 50.2769 1008.65 50.3506C1007.84 50.3998 1007 50.4244 1006.2 50.5105C1005.26 50.615 1004.64 50.4244 1003.99 50.2522C1003.76 50.1908 1003.53 50.0739 1003.33 50.0801C1001.42 50.1723 999.501 50.2584 997.611 50.4121C996.616 50.492 996.086 50.2707 995.423 50.117C995.191 50.0617 994.942 49.951 994.743 49.9633C993.101 50.0494 991.476 50.16 989.835 50.2646C989.52 50.4306 989.172 50.5904 988.873 50.7687C988.558 50.9532 988.127 51.0331 987.497 51.027C986.453 51.027 985.424 51.2852 984.38 50.9593C983.302 50.6273 983.219 50.6458 982.175 50.7257C980.848 50.8302 979.439 50.8056 978.195 51.0454C977.98 51.0885 977.748 51.2052 977.748 51.2913C977.731 51.3466 978.079 51.4266 978.295 51.4758C979.024 51.6234 979.87 51.4082 980.599 51.5619C981.08 51.6603 981.478 51.8078 981.959 51.9123C982.158 51.9554 982.456 51.9492 982.722 51.9431C983.004 51.9369 983.269 51.8939 983.534 51.9001C983.783 51.9062 984.048 51.9431 984.247 51.9984C985.159 52.232 986.121 52.4473 986.933 52.724C987.729 52.9945 988.475 52.81 989.271 52.7977C992.455 53.2281 992.455 53.2343 994.594 53.099C995.124 53.0683 995.672 53.0314 996.219 53.0375C996.451 53.0375 996.666 53.1482 996.898 53.2096C997.562 53.3941 998.192 53.5601 999.12 53.4618C999.916 53.3757 1000.76 53.3572 1001.57 53.3019C1002.67 53.2343 1002.67 53.2343 1004.53 53.6216C1004.99 53.72 1005.49 53.7077 1006.08 53.6586C1006.6 53.6155 1007.13 53.7077 1007.49 53.886C1007.64 53.9598 1007.59 54.0828 1007.64 54.1873C1006 54.2857 1004.34 54.3533 1002.75 54.5009C1001.72 54.5931 1001.26 54.3287 1000.58 54.1873C1000.35 54.1381 1000.1 54.0336 999.883 54.0459C998.258 54.1381 996.633 54.2426 995.008 54.3656C994.809 54.3779 994.561 54.5193 994.544 54.6054C994.511 54.7652 994.925 54.919 995.522 54.9128C996.318 54.9067 997.097 54.8021 997.81 55.0542C998.407 55.2756 999.153 55.374 1000.03 55.2756C1000.56 55.2203 1001.13 55.2203 1001.66 55.1711C1003.07 55.0235 1004.34 55.0542 1005.4 55.4723C1006.22 55.583 1007.01 55.4785 1007.79 55.4232C1008.37 55.3801 1008.94 55.3371 1009.35 55.4539C1010.23 55.6998 1011.09 55.9458 1012.3 55.7798C1013.61 55.9519 1014.61 56.3147 1015.7 56.6098C1016.21 56.7512 1016.61 56.8312 1017.21 56.739C1017.46 56.7021 1017.76 56.702 1018.02 56.6836C1018.57 56.6528 1019.15 56.5606 1019.65 56.5975C1020.14 56.6405 1020.56 56.8189 1021.01 56.9295C1021.22 56.9849 1021.47 57.0771 1021.69 57.0709C1022.52 57.0402 1023.33 56.9787 1024.14 56.9295C1024.95 56.8865 1025.77 56.8435 1026.58 56.8004C1027.26 56.9603 1027.95 57.1202 1028.63 57.28C1029.73 57.2124 1030.82 57.1447 1031.9 57.0833C1033.11 57.0095 1033.11 57.0156 1034.85 57.3968C1035.63 57.569 1036.46 57.4583 1037.21 57.3784C1038.45 57.2493 1039.28 57.4829 1040.16 57.7289C1040.34 57.7781 1040.67 57.8088 1040.89 57.7842C1041.75 57.6981 1042.5 57.7657 1043.13 57.9932C1043.57 58.1531 1044.02 58.2269 1044.57 58.1962C1046.47 58.0794 1048.38 57.9563 1050.29 57.8518C1050.52 57.8395 1050.79 57.8949 1051 57.9441C1052.69 58.3191 1052.71 58.3376 1053.95 58.2392C1055.06 58.1531 1056.09 58.1162 1056.97 58.4544C1057.15 58.5281 1057.43 58.6327 1057.63 58.6265C1058.99 58.5651 1060.37 58.4974 1061.71 58.3929C1062.33 58.3437 1062.76 58.3622 1063.24 58.5036C1063.85 58.6819 1064.4 58.8971 1065.41 58.8172C1068.21 58.5897 1068.23 58.6265 1071.54 59.0508C1071.78 59.0815 1072.09 59.0323 1072.36 59.0077C1072.92 58.9463 1073.34 59.0324 1073.83 59.1738C1074.94 59.4935 1074.98 59.4751 1076.04 59.4074C1076.85 59.3521 1077.7 59.3398 1078.49 59.2476C1079.72 59.1123 1080.53 59.3521 1081.44 59.5796C1082.17 59.7579 1083.02 59.6103 1083.8 59.555C1084.64 59.4935 1085.41 59.5119 1086.04 59.7455C1086.47 59.9054 1086.93 59.9915 1087.48 59.9608C1089.39 59.8501 1091.29 59.7271 1093.2 59.6164C1093.43 59.6042 1093.71 59.6533 1093.93 59.6964C1095.82 60.0776 1095.82 60.0961 1097.69 59.9546C1098.29 59.9116 1098.79 59.8993 1099.23 60.0284C1099.67 60.1514 1100.13 60.2682 1100.58 60.385C1101.39 60.342 1102.22 60.3297 1103.01 60.2559C1103.63 60.2006 1104.06 60.2252 1104.54 60.3543C1105.17 60.5203 1105.7 60.8092 1106.7 60.6678C1107.21 60.6002 1107.81 60.6187 1108.32 60.5572C1108.93 60.4773 1109.35 60.5264 1109.83 60.6863C1110.43 60.8769 1111.04 61.0736 1112 60.9752C1113.06 60.8646 1114.19 60.8461 1115.27 60.7601C1115.86 60.7109 1116.28 60.7601 1116.76 60.9199C1117.36 61.1228 1118.04 61.252 1118.97 61.172C1120.86 61.0183 1120.87 61.049 1122.71 61.4364C1123.18 61.5348 1123.67 61.5225 1124.27 61.4733C1124.79 61.4303 1125.32 61.5225 1125.68 61.7008C1126.03 61.8976 1126 62.0205 1126.03 62.125ZM978.278 6.67143C977.731 6.70217 977.184 6.73906 976.388 6.20413C976.338 6.11191 976.371 6.00126 976.255 5.92133C975.99 5.75532 975.576 5.6385 975.078 5.62005C974.183 5.59546 973.105 5.80447 973.121 5.96433C973.138 6.0996 973.42 6.2164 973.967 6.32707C974.199 6.37011 974.382 6.44391 974.597 6.4931C975.227 6.63451 975.725 6.91124 976.637 6.76983C976.554 6.57922 976.471 6.38862 976.637 6.76983C976.554 7.00347 976.802 7.16949 977.399 7.23712C977.565 7.25557 977.814 7.24324 977.947 7.20635C978.461 7.07108 978.543 6.88666 978.162 6.40093C978.096 6.48086 978.146 6.62223 978.295 6.65912C978.444 6.69601 978.809 6.66531 978.991 6.62227C979.455 6.50545 979.688 6.35172 979.572 6.2226C979.505 6.15496 979.19 6.06888 978.991 6.06888C978.643 6.06888 978.328 6.20414 978.278 6.67143ZM1112.35 77.976C1111.14 78.0928 1109.75 78.0498 1108.54 78.2895C1108.32 78.3326 1108.11 78.4433 1108.09 78.5293C1108.07 78.5847 1108.4 78.6646 1108.6 78.7077C1109.05 78.8061 1109.55 78.7753 1110.13 78.7445C1111.01 78.7015 1111.52 78.9843 1112.2 79.1257C1112.42 79.1688 1112.7 79.1995 1112.93 79.1872C1114.27 79.1134 1115.6 79.0336 1116.94 78.9475C1117.17 78.929 1117.42 78.886 1117.62 78.8306C1118.29 78.6523 1118.22 78.5355 1117.57 78.4002C1116.86 78.2527 1116.3 78.0067 1115.57 77.8899C1114.52 77.7239 1113.46 77.9452 1112.35 77.976ZM1018.19 82.4644C1017.38 82.5136 1016.58 82.5628 1015.77 82.612C1015.5 82.6304 1015.22 82.6365 1014.97 82.6611C1014.46 82.7042 1014.08 82.8333 1013.83 83.0362C1014.21 83.1961 1014.67 83.2883 1015.19 83.2698C1016 83.2329 1016.8 83.153 1017.61 83.1346C1018.49 83.11 1019 83.3867 1019.68 83.5281C1019.9 83.5711 1020.16 83.5773 1020.41 83.5834C1021.64 83.608 1022.38 83.2883 1022.15 82.8395C1021.98 82.489 1021.35 82.28 1020.59 82.323C1019.8 82.3661 1018.98 82.4152 1018.19 82.4644ZM1118.02 68.8884C1118.22 68.7839 1118.44 68.7101 1118.53 68.6179C1118.83 68.3043 1118.72 68.0707 1118.17 67.8247C1117.51 67.5234 1116.69 67.7264 1115.95 67.7571C1115.77 67.7632 1115.57 67.8924 1115.47 67.9723C1115.4 68.0276 1115.4 68.1445 1115.5 68.1752C1116.31 68.4212 1117.17 68.6486 1118.02 68.8884ZM974.183 50.7257C973.387 50.7749 972.575 50.8118 971.779 50.8794C971.58 50.8978 971.397 51.0147 971.281 51.0946C971.066 51.2422 971.298 51.445 971.977 51.4635C972.757 51.4881 973.569 51.3836 974.382 51.3344C975.41 51.2729 976.023 51.0454 975.642 50.8486C975.277 50.658 974.78 50.6212 974.183 50.7257ZM101.391 37.5863C101.921 37.5555 102.469 37.5309 102.999 37.4879C103.497 37.4448 103.878 37.3096 104.127 37.1067C103.712 36.9468 103.248 36.8607 102.734 36.8792C101.922 36.9161 101.126 36.9653 100.33 37.0267C99.8324 37.0636 99.3518 37.1989 99.2357 37.4079C99.1196 37.5678 100.23 37.6601 101.391 37.5863ZM904.063 36.6394C904.279 36.6947 904.494 36.8054 904.709 36.8054C905.24 36.8054 905.788 36.7685 906.285 36.707C906.5 36.6824 906.666 36.5717 906.765 36.4857C906.832 36.4303 906.816 36.332 906.716 36.2828C906.235 35.9877 904.312 36.0922 903.997 36.4304C903.963 36.4918 904.046 36.5717 904.063 36.6394ZM851.751 2.97C851.801 3.06838 851.817 3.16674 851.884 3.26512C852.016 3.44957 852.381 3.58487 852.911 3.6771C853.326 3.52338 853.542 3.35125 853.525 3.16679C853.508 3.06842 853.459 2.96998 853.392 2.8716C853.26 2.68715 852.895 2.55193 852.364 2.4597C851.95 2.60726 851.751 2.77939 851.751 2.97ZM1156.34 83.5343C1156.19 83.6142 1156.04 83.6941 1155.87 83.7679C1156.32 83.9462 1156.74 84.0015 1157.05 83.9032C1157.25 83.8417 1157.37 83.7494 1157.52 83.6695C1157.07 83.4912 1156.67 83.442 1156.34 83.5343ZM1146.03 84.3705C1146.24 84.4258 1146.44 84.4996 1146.67 84.5365C1147.05 84.598 1147.4 84.4934 1147.67 84.2721C1147.45 84.2167 1147.25 84.1429 1147.02 84.106C1146.64 84.0445 1146.29 84.1491 1146.03 84.3705ZM1152.56 83.2453C1152.44 83.3929 1152.67 83.5158 1153.29 83.6203C1153.44 83.5404 1153.64 83.4666 1153.74 83.3805C1153.9 83.2391 1153.62 83.11 1153.02 83.0117C1152.86 83.0854 1152.71 83.1654 1152.56 83.2453ZM1117.56 76.6172C1117.44 76.7647 1117.67 76.8877 1118.29 76.9922C1118.43 76.9123 1118.63 76.8385 1118.73 76.7524C1118.9 76.611 1118.62 76.4819 1118.02 76.3835C1117.85 76.4573 1117.71 76.5372 1117.56 76.6172ZM1069.87 33.1101C1069.72 33.1901 1069.57 33.27 1069.41 33.3438C1069.85 33.5221 1070.27 33.5774 1070.58 33.479C1070.78 33.4175 1070.9 33.3253 1071.05 33.2454C1070.6 33.0671 1070.2 33.0179 1069.87 33.1101ZM1024.19 10.0285C1024.59 10.0715 1024.92 9.9855 1025.2 9.758C1024.99 9.70267 1024.79 9.62887 1024.55 9.59198C1024.17 9.5305 1023.83 9.63506 1023.56 9.8564C1023.78 9.91789 1023.99 9.97317 1024.19 10.0285ZM999.933 8.58361C999.784 8.66354 999.634 8.74348 999.468 8.81726C999.916 8.99557 1000.33 9.05089 1000.65 8.95251C1000.84 8.89103 1000.96 8.79879 1001.11 8.71886C1000.66 8.54056 1000.26 8.49753 999.933 8.58361ZM835.436 2.96384C835.286 3.04378 835.137 3.12371 834.971 3.19749C835.419 3.3758 835.833 3.43112 836.148 3.33274C836.347 3.27126 836.464 3.17903 836.613 3.09909C836.165 2.92079 835.767 2.87776 835.436 2.96384ZM16.3649 52.9883C16.1494 52.933 15.934 52.8777 15.7351 52.8162C15.2542 52.9822 15.1051 53.1359 15.3703 53.2527C15.5362 53.3265 15.7847 53.3696 16.0002 53.4249C16.4976 53.2589 16.6137 53.1113 16.3649 52.9883Z" fill="#FFE492"/>
<path d="M112.532 31.2766C110.625 31.3935 108.735 31.541 106.828 31.6148C105.817 31.6517 105.453 31.9161 105.038 32.162C104.706 32.3588 104.325 32.4202 103.711 32.4571C98.5383 32.7584 93.3816 33.0781 88.225 33.3917C87.5783 33.3118 87.2633 33.1827 87.4125 33.029C87.4954 32.9367 87.6945 32.8076 87.8934 32.7953C91.4251 32.5678 94.94 32.3342 98.4883 32.1558C99.4997 32.1067 99.7818 31.8361 100.296 31.6148C100.462 31.541 100.594 31.4303 100.81 31.3873C101.025 31.3381 101.34 31.3443 101.622 31.332C107.326 30.9815 113.03 30.6372 118.734 30.2867C119.38 30.3667 119.695 30.4958 119.546 30.6495C119.463 30.7417 119.264 30.8708 119.065 30.8831C116.877 31.0123 114.704 31.1414 112.532 31.2766Z" fill="#FFE492"/>
<path d="M1156.56 64.0194C1155.69 64.0932 1154.6 64.1977 1153.7 63.8411C1153.27 63.6689 1152.81 63.6136 1152.25 63.6505C1151.43 63.712 1150.6 63.7612 1149.77 63.7981C1149.56 63.8042 1149.28 63.7366 1149.06 63.6812C1148.6 63.5705 1148.2 63.3861 1147.7 63.3369C1147.2 63.2877 1146.61 63.423 1146.09 63.3923C1145.41 63.3492 1145.13 63.1832 1145.31 63.0295C1145.41 62.9434 1145.61 62.8205 1145.83 62.802C1148.9 62.5745 1148.91 62.5745 1149.77 62.7959C1150.44 62.968 1151.05 63.1586 1152 63.0541C1152.79 62.968 1153.64 62.9495 1154.45 62.8942C1155.58 62.8204 1155.58 62.8266 1157.4 63.2139C1157.87 63.3123 1158.36 63.3062 1158.96 63.2508C1159.47 63.2078 1159.97 63.3062 1160.39 63.4722C1160.12 63.6812 1159.74 63.8165 1159.23 63.8534C1158.4 63.9149 1157.58 63.9579 1156.56 64.0194Z" fill="#FFE492"/>
<path d="M1126.03 62.1248C1128.12 61.9957 1130.23 61.8851 1132.32 61.7375C1133.18 61.676 1133.86 61.7436 1134.46 61.9527C1135.1 62.1802 1135.83 62.1617 1136.63 62.1187C1137.13 62.0941 1137.61 62.1924 1137.94 62.3646C1138.07 62.4322 1138.04 62.5552 1138.09 62.6536C1136.27 62.7643 1134.43 62.8811 1132.58 62.9794C1132.37 62.9917 1132.1 62.9303 1131.9 62.8811C1131.46 62.7766 1131.08 62.5921 1130.59 62.5552C1129.57 62.4691 1128.54 62.6351 1127.49 62.6659C1127 62.6782 1126.52 62.586 1126.18 62.42C1126.05 62.34 1126.08 62.2232 1126.03 62.1248Z" fill="#FFE492"/>
<path d="M371.029 9.25946C373.201 9.12419 375.373 8.99513 377.545 8.85986C378.192 8.94594 378.49 9.06889 378.358 9.22261C378.275 9.31483 378.076 9.44396 377.877 9.45625C373.533 9.73294 369.189 9.99729 364.861 10.2617C364.215 10.1756 363.916 10.0526 364.049 9.89893C364.132 9.8067 364.331 9.67758 364.53 9.66528C366.685 9.52387 368.857 9.39473 371.029 9.25946Z" fill="#FFE492"/>
<path d="M36.3295 43.4289C35.3512 43.4412 34.3234 43.6687 33.2291 43.4965C33.0136 43.4658 32.715 43.3674 32.7316 43.312C32.7648 43.2198 32.9638 43.103 33.1793 43.0661C34.1244 42.9124 35.3018 42.8939 35.7826 42.4635C36.0147 42.2422 36.4458 42.1684 37.0262 42.1254C37.6397 42.0762 38.0706 42.0946 38.5515 42.2237C39.1815 42.3897 39.7122 42.6972 40.707 42.5373C40.7568 42.6357 40.8726 42.7464 40.8228 42.8386C40.7731 42.9308 40.5579 43.0169 40.3589 43.0845C40.1765 43.146 39.9276 43.2013 39.6954 43.2198C38.6011 43.2936 37.5067 43.3551 36.3295 43.4289Z" fill="#FFE492"/>
<path d="M898.662 42.1924C899.474 42.1432 900.32 42.1186 901.115 42.0325C901.746 41.9649 902.143 42.0079 902.641 42.1555C903.486 42.4137 903.536 42.3892 905.609 42.426C905.841 42.4322 906.123 42.5244 906.256 42.6043C906.339 42.6473 906.222 42.7642 906.123 42.8257C905.974 42.9056 905.758 43.0101 905.559 43.0101C904.249 43.0286 902.923 43.3914 901.646 42.9733C900.999 42.7642 900.286 42.6658 899.408 42.758C898.877 42.8133 898.313 42.838 897.766 42.8626C897.236 42.8872 896.689 42.8195 896.357 42.6351C895.876 42.3645 896.158 42.26 897.02 42.2785C897.567 42.2908 898.114 42.2231 898.662 42.1924Z" fill="#FFE492"/>
<path d="M1199.16 84.5743C1200.21 84.5128 1201.25 84.4391 1202.31 84.3899C1202.53 84.3776 1202.79 84.4453 1202.99 84.4883C1203.79 84.6728 1203.67 84.9863 1203.7 85.2629C1203.72 85.5519 1201.88 85.7856 1201.1 85.5888C1200.24 85.3675 1199.46 85.1154 1198.27 85.2507C1197.8 85.2999 1197.25 85.1892 1196.96 85.0109C1196.51 84.7527 1196.76 84.6481 1197.6 84.6666C1198.1 84.6788 1198.63 84.6112 1199.16 84.5743Z" fill="#FFE492"/>
<path d="M672.762 0.886645C673.84 0.819011 674.917 0.714537 675.995 0.708388C676.625 0.70224 676.94 0.905103 676.791 1.05267C676.708 1.1449 676.509 1.27402 676.31 1.28631C674.155 1.43388 671.999 1.55687 669.844 1.69214C669.214 1.60606 668.899 1.47696 669.048 1.3294C669.131 1.23717 669.33 1.11419 669.529 1.09575C670.607 1.00967 671.684 0.954279 672.762 0.886645Z" fill="#FFE492"/>
<path d="M1178.49 64.5606C1179.53 64.4991 1180.59 64.4069 1181.64 64.3761C1182.18 64.3638 1182.62 64.5052 1182.68 64.6651C1182.72 64.7389 1182.45 64.868 1182.23 64.8987C1180.74 65.1078 1179.13 65.1324 1177.58 65.2369C1177.08 65.2677 1176.55 65.1693 1176.25 64.9971C1175.8 64.7327 1176.05 64.6344 1176.9 64.6528C1177.43 64.659 1177.96 64.5913 1178.49 64.5606Z" fill="#FFE492"/>
<path d="M926.048 43.0217C926.578 42.991 927.125 42.9111 927.639 42.9357C928.186 42.9664 928.535 43.1447 928.701 43.323C928.883 43.5259 928.866 43.7166 928.701 43.8887C928.435 44.1838 928.17 44.1716 927.556 43.9748C926.611 43.6674 926.545 43.7042 924.671 43.7165C924.456 43.7165 924.191 43.6243 924.025 43.5444C923.776 43.4214 923.909 43.2308 924.489 43.1201C924.92 43.0402 925.517 43.0525 926.048 43.0217Z" fill="#FFE492"/>
<path d="M1139.64 62.5437C1140.42 62.4945 1141.2 62.4146 1141.98 62.4146C1142.52 62.4085 1142.96 62.5499 1143 62.7036C1143.02 62.7774 1142.77 62.9003 1142.57 62.9372C1141.63 63.1032 1140.57 63.1155 1139.54 63.1709C1139.06 63.1955 1138.53 63.0971 1138.23 62.9249C1137.78 62.6667 1138.05 62.5498 1138.86 62.5867C1139.11 62.599 1139.37 62.5622 1139.64 62.5437Z" fill="#FFE492"/>
<path d="M1016.99 55.0003C1015.83 55.0741 1014.74 54.982 1014.82 54.8221C1014.94 54.613 1015.42 54.4777 1015.91 54.4408C1016.71 54.3793 1017.5 54.3301 1018.32 54.2932C1018.83 54.2687 1019.3 54.3609 1019.71 54.5207C1019.46 54.7175 1019.08 54.8589 1018.58 54.9019C1018.07 54.945 1017.52 54.9696 1016.99 55.0003Z" fill="#FFE492"/>
<path d="M1009.39 54.2125C1010.17 54.1634 1010.95 54.0834 1011.73 54.0834C1012.27 54.0773 1012.7 54.2187 1012.75 54.3724C1012.77 54.4462 1012.52 54.5692 1012.32 54.6061C1011.38 54.7721 1010.32 54.7844 1009.29 54.8397C1008.81 54.8643 1008.28 54.7659 1007.98 54.5937C1007.53 54.3355 1007.8 54.2187 1008.61 54.2556C1008.86 54.2679 1009.12 54.231 1009.39 54.2125Z" fill="#FFE492"/>
<path d="M916.645 42.9734C917.424 42.9242 918.203 42.8442 918.982 42.8381C919.53 42.8319 919.96 42.9734 920.01 43.1271C920.027 43.2009 919.778 43.3177 919.579 43.3608C918.634 43.5268 917.573 43.5391 916.545 43.5944C916.064 43.619 915.534 43.5206 915.235 43.3485C914.787 43.0902 915.053 42.9734 915.865 43.0103C916.114 43.0226 916.379 42.9857 916.645 42.9734Z" fill="#FFE492"/>
<path d="M912.288 42.6106C913.117 42.5614 913.382 42.5306 913.647 42.5306C914.145 42.5306 914.659 42.6044 914.957 42.7828C915.405 43.041 915.14 43.1148 914.327 43.1271C913.283 43.1394 912.255 43.2685 911.21 43.2931C910.663 43.3054 910.232 43.1578 910.199 43.0041C910.182 42.9303 910.431 42.8012 910.63 42.7766C911.326 42.6844 912.089 42.629 912.288 42.6106Z" fill="#FFE492"/>
<path d="M1002.63 6.43805C1002.1 6.4688 1001.54 6.55488 1001.04 6.52414C1000.38 6.4811 1000.11 6.31511 1000.28 6.1614C1000.38 6.07532 1000.56 5.95235 1000.76 5.93391C1001.82 5.84783 1002.9 5.79244 1003.96 5.73096C1004.59 5.82319 1004.87 5.9523 1004.71 6.10601C1004.61 6.19209 1004.42 6.30891 1004.23 6.3335C1003.71 6.39499 1003.16 6.40731 1002.63 6.43805Z" fill="#FFE492"/>
<path d="M359.135 9.98409C359.649 9.97795 360.113 10.0579 360.51 10.2116C360.262 10.4083 359.897 10.5375 359.4 10.5928C359.151 10.6174 358.869 10.6358 358.604 10.642C358.09 10.6543 357.625 10.5682 357.228 10.4145C357.476 10.2177 357.857 10.0886 358.338 10.0333C358.587 10.0087 358.869 10.0025 359.135 9.98409Z" fill="#FFE492"/>
<path d="M1172.83 64.536C1172.81 64.3576 1173.82 64.1548 1174.73 64.1609C1175.21 64.1671 1175.71 64.2532 1175.99 64.4192C1176.42 64.6713 1176.17 64.7696 1175.36 64.7511C1174.86 64.7388 1174.33 64.8434 1173.84 64.8249C1173.27 64.8188 1172.94 64.6835 1172.83 64.536Z" fill="#FFE492"/>
<path d="M930.851 43.766C930.834 43.6984 930.751 43.6185 930.801 43.557C931.116 43.2188 933.023 43.1143 933.521 43.4094C933.603 43.4647 933.637 43.5569 933.57 43.6123C933.471 43.6984 933.288 43.809 933.089 43.8336C932.575 43.8951 932.045 43.9259 931.514 43.932C931.282 43.932 931.066 43.8275 930.851 43.766Z" fill="#FFE492"/>
<path d="M42.23 42.4446C40.2735 42.5737 40.2404 42.5614 40.5885 42.254C40.9036 41.9773 41.484 41.8113 42.3296 41.8113C42.5783 41.8113 42.8435 41.799 43.0591 41.8236C43.2912 41.8543 43.623 41.9158 43.6727 41.9896C43.7722 42.131 43.4901 42.2847 42.9927 42.3892C42.7771 42.4384 42.4953 42.4262 42.23 42.4446Z" fill="#FFE492"/>
<path d="M383.627 9.11919C383.047 9.22372 382.55 9.18685 382.185 8.9901C381.82 8.79335 382.4 8.55968 383.412 8.50434C383.677 8.49204 383.959 8.44289 384.208 8.46749C384.456 8.48593 384.705 8.55965 384.854 8.63344C385.12 8.75641 384.954 8.92246 384.423 9.06388C384.208 9.11922 383.892 9.1069 383.627 9.11919Z" fill="#FFE492"/>
<path d="M1169.37 64.074C1169.52 63.994 1169.67 63.9141 1169.84 63.8403C1170.45 63.9449 1170.71 64.0678 1170.55 64.2092C1170.45 64.2953 1170.25 64.3691 1170.1 64.449C1169.49 64.3445 1169.24 64.2154 1169.37 64.074Z" fill="#FFE492"/>
<path d="M68.4946 112.438C68.4946 112.364 68.7268 112.247 68.9091 112.223C69.2573 112.179 69.6883 112.266 69.9867 112.438C70.4012 112.684 70.1528 112.813 69.3901 112.745C68.8595 112.696 68.4946 112.573 68.4946 112.438Z" fill="#FFE492"/>
<path d="M937.607 38.042C937.822 38.0973 938.038 38.1526 938.237 38.2141C937.955 38.4416 937.607 38.54 937.242 38.4785C937.01 38.4416 936.811 38.3678 936.595 38.3125C936.877 38.085 937.209 37.9989 937.607 38.042Z" fill="#FFE492"/>
<path d="M931.869 37.7634C932.201 37.6712 932.599 37.7204 933.063 37.8988C932.914 37.9787 932.781 38.0709 932.599 38.1324C932.284 38.2308 931.869 38.1815 931.421 37.9971C931.554 37.9233 931.703 37.8434 931.869 37.7634Z" fill="#FFE492"/>
<path d="M927.469 38.0347C927.685 38.0901 927.901 38.1454 928.1 38.2069C927.818 38.4344 927.486 38.5327 927.105 38.4712C926.873 38.4343 926.674 38.3606 926.458 38.3052C926.74 38.0777 927.072 37.9855 927.469 38.0347Z" fill="#FFE492"/>
<path d="M924.24 37.7094C924.489 37.8324 924.356 37.9799 923.875 38.1459C923.66 38.0906 923.411 38.0476 923.245 37.9738C922.98 37.857 923.113 37.7032 923.61 37.5372C923.809 37.5987 924.025 37.6541 924.24 37.7094Z" fill="#FFE492"/>
</svg>
