<svg width="319" height="319" viewBox="0 0 319 319" fill="none" xmlns="http://www.w3.org/2000/svg">
<circle cx="159.091" cy="159.454" r="159.091" fill="#D7FED9"/>
<path d="M206.072 137.083H164.311C161.542 137.083 158.887 138.182 156.929 140.14C154.971 142.098 153.871 144.754 153.871 147.523V178.844H96.4489V119.334L159.091 85.6117L224.5 120.796L229.407 111.608L161.544 75.0669C160.789 74.6647 159.947 74.4544 159.091 74.4544C158.235 74.4544 157.393 74.6647 156.637 75.0669L88.7752 111.608C87.9417 112.052 87.2441 112.714 86.7569 113.523C86.2697 114.332 86.0111 115.258 86.0085 116.202V220.605H96.4489V189.284H221.733V220.605H232.173V163.183C232.173 156.261 229.423 149.622 224.529 144.727C219.634 139.832 212.995 137.083 206.072 137.083ZM164.311 178.844V147.523H206.072C210.226 147.523 214.209 149.173 217.146 152.11C220.083 155.047 221.733 159.03 221.733 163.183V178.844H164.311Z" fill="#3D7D40"/>
<path d="M125.16 142.303C126.708 142.303 128.222 142.762 129.51 143.622C130.798 144.483 131.801 145.706 132.394 147.136C132.987 148.567 133.142 150.142 132.84 151.661C132.537 153.179 131.792 154.575 130.697 155.67C129.602 156.765 128.206 157.511 126.687 157.813C125.168 158.115 123.594 157.96 122.163 157.367C120.732 156.774 119.51 155.771 118.649 154.483C117.789 153.195 117.33 151.682 117.33 150.133C117.33 148.056 118.154 146.065 119.623 144.596C121.091 143.128 123.083 142.303 125.16 142.303ZM125.16 131.862C121.546 131.862 118.014 132.934 115.009 134.941C112.005 136.949 109.663 139.803 108.28 143.141C106.897 146.48 106.535 150.153 107.24 153.697C107.945 157.241 109.685 160.497 112.241 163.052C114.796 165.607 118.051 167.347 121.595 168.052C125.139 168.757 128.813 168.396 132.152 167.013C135.49 165.63 138.344 163.288 140.351 160.284C142.359 157.279 143.43 153.746 143.43 150.133C143.43 145.287 141.505 140.64 138.079 137.214C134.653 133.787 130.005 131.862 125.16 131.862V131.862Z" fill="#3D7D40"/>
</svg>
