<svg width="41" height="41" viewBox="0 0 41 41" fill="none" xmlns="http://www.w3.org/2000/svg">
<ellipse cx="20.2084" cy="20.004" rx="20.0417" ry="20.004" fill="#042B18"/>
<path d="M25.2188 9.02539H15.198C12.4308 9.02539 10.1876 11.264 10.1876 14.0254V24.0254C10.1876 26.7868 12.4308 29.0254 15.198 29.0254H25.2188C27.986 29.0254 30.2292 26.7868 30.2292 24.0254V14.0254C30.2292 11.264 27.986 9.02539 25.2188 9.02539Z" stroke="white" stroke-width="2" stroke-linecap="round" stroke-linejoin="round"/>
<path d="M24.2167 18.3954C24.3404 19.2277 24.1979 20.0777 23.8096 20.8245C23.4213 21.5713 22.8069 22.1769 22.0539 22.5551C21.3008 22.9334 20.4473 23.065 19.6149 22.9314C18.7826 22.7977 18.0136 22.4055 17.4174 21.8106C16.8213 21.2157 16.4283 20.4483 16.2943 19.6177C16.1604 18.787 16.2923 17.9353 16.6714 17.1838C17.0504 16.4323 17.6573 15.8192 18.4056 15.4317C19.154 15.0442 20.0057 14.902 20.8397 15.0254C21.6904 15.1513 22.478 15.5469 23.0861 16.1538C23.6942 16.7606 24.0906 17.5465 24.2167 18.3954Z" stroke="white" stroke-width="2" stroke-linecap="round" stroke-linejoin="round"/>
<path d="M25.7198 13.5254H25.7298" stroke="white" stroke-width="2" stroke-linecap="round" stroke-linejoin="round"/>
</svg>
