<svg width="319" height="320" viewBox="0 0 319 320" fill="none" xmlns="http://www.w3.org/2000/svg">
<circle cx="159.091" cy="160" r="159.091" fill="#D7FED9"/>
<path d="M207.315 138.125H171.52C169.147 138.127 166.872 139.097 165.195 140.822C163.517 142.546 162.573 144.884 162.571 147.322V174.915H113.352V128.928H104.403V202.507H113.352V184.112H220.739V202.507H229.687V161.119C229.68 155.023 227.321 149.178 223.127 144.868C218.933 140.557 213.247 138.132 207.315 138.125ZM220.739 174.915H171.52V147.322H207.315C210.874 147.326 214.286 148.781 216.803 151.367C219.32 153.954 220.735 157.461 220.739 161.119V174.915Z" fill="#3D7D40"/>
<path d="M137.962 142.724C139.289 142.724 140.587 143.128 141.69 143.886C142.794 144.644 143.654 145.722 144.162 146.982C144.67 148.243 144.803 149.63 144.544 150.968C144.285 152.306 143.646 153.535 142.707 154.5C141.769 155.464 140.573 156.121 139.271 156.387C137.969 156.654 136.62 156.517 135.393 155.995C134.167 155.473 133.118 154.589 132.381 153.454C131.644 152.32 131.25 150.986 131.25 149.622C131.252 147.793 131.96 146.04 133.218 144.747C134.476 143.454 136.182 142.726 137.962 142.724ZM137.962 133.526C134.864 133.526 131.836 134.47 129.261 136.239C126.686 138.008 124.678 140.521 123.493 143.462C122.308 146.403 121.998 149.64 122.602 152.762C123.206 155.884 124.698 158.752 126.888 161.003C129.078 163.254 131.868 164.787 134.906 165.408C137.944 166.029 141.093 165.71 143.955 164.492C146.816 163.274 149.262 161.211 150.983 158.564C152.704 155.917 153.622 152.805 153.622 149.622C153.622 145.353 151.972 141.259 149.035 138.241C146.098 135.222 142.115 133.526 137.962 133.526V133.526ZM189.418 92.1379H171.52V73.743H162.571V92.1379H144.673V101.335H162.571V119.73H171.52V101.335H189.418V92.1379Z" fill="#3D7D40"/>
</svg>
