<svg width="164" height="39" viewBox="0 0 164 39" fill="none" xmlns="http://www.w3.org/2000/svg">
<path d="M41.6023 19.1548C41.5868 29.7711 32.3336 38.3094 20.864 38.3094C8.35591 38.3236 -0.137802 28.8664 0.00169292 19.07C0.156688 7.91648 10.1074 0.0425862 20.7865 0.000177437C31.0317 -0.0422313 41.5093 7.52066 41.6023 19.1548ZM27.5133 32.8528C27.2653 32.7539 27.0948 32.6691 26.9088 32.5984C23.1114 31.1847 20.74 27.8203 20.9105 24.0883C21.081 20.3422 23.7469 17.1616 27.6528 16.059C28.4587 15.8328 28.4587 15.8328 27.8853 15.2673C23.6074 11.0689 16.5861 10.1076 11.1613 12.9631C5.31801 16.0448 2.7916 22.3213 5.03902 28.202C7.16245 33.7717 13.4707 37.1926 20.0115 36.3021C22.8944 35.9204 25.3743 34.7471 27.5133 32.8528ZM4.38805 17.8825C4.58954 17.5574 4.79103 17.2323 4.99252 16.9071C10.1229 8.67984 23.0959 7.77512 29.5437 15.1825C29.8072 15.4935 30.0242 15.6914 30.5047 15.6914C32.8916 15.6773 34.984 16.4406 36.7975 17.8684C36.9369 17.9674 37.0454 18.1794 37.2314 18.1087C37.4794 18.038 37.3864 17.7836 37.4019 17.6139C37.7119 11.4081 35.046 6.53112 29.2337 3.29392C21.98 -0.76318 12.3393 1.14521 7.36395 7.46412C4.93053 10.5741 3.90756 14.0375 4.38805 17.8825ZM38.6884 24.47C38.7039 20.2716 35.046 16.9071 30.4737 16.893C25.9323 16.893 22.2434 20.2292 22.2279 24.3711C22.2124 28.6119 25.8703 32.0188 30.4582 32.0188C34.9995 32.0329 38.6729 28.6544 38.6884 24.47Z" fill="#060806"/>
<path d="M122.928 24.3567C121.735 25.5158 120.309 26.0247 118.604 25.9682C116.357 25.9117 115.008 24.6818 114.977 22.632C114.931 19.3524 117.286 16.3414 120.82 15.1116C123.254 14.2634 125.703 14.2492 128.198 14.7864C128.632 14.8854 128.741 15.0409 128.648 15.4226C127.718 19.0132 127.02 22.6603 125.92 26.2085C125.284 28.2583 124.091 29.9688 121.688 30.6332C119.193 31.3258 116.697 31.1986 114.202 30.5908C113.908 30.5201 113.753 30.3787 113.861 30.0819C113.877 30.0394 113.877 29.9829 113.892 29.9405C114.063 29.4174 114.063 28.753 114.435 28.4279C114.853 28.0604 115.442 28.6541 115.969 28.7672C116.992 28.9934 118.015 29.0499 119.038 28.9085C120.805 28.6682 121.952 27.707 122.51 26.1661C122.727 25.6007 122.928 25.0069 122.928 24.3567ZM118.604 22.3493C118.588 22.8441 118.573 23.5509 119.332 23.9043C120.169 24.3001 120.991 24.0739 121.735 23.6074C122.2 23.3106 122.572 22.9148 122.882 22.4765C123.936 21.0347 124.261 19.3524 124.695 17.7126C125.005 16.5393 124.866 16.4121 123.548 16.5676C123.502 16.5676 123.44 16.5817 123.393 16.5959C120.743 16.9917 118.635 19.4231 118.604 22.3493Z" fill="#020504"/>
<path d="M84.7377 24.074C83.6682 25.2049 82.5523 25.8269 81.1108 25.9542C78.0419 26.2369 76.3215 24.583 76.6625 21.7981C77.1584 17.6845 80.9248 15.1541 84.6292 14.5604C86.3961 14.2776 88.1166 14.4473 89.8525 14.7724C90.2865 14.8572 90.4105 15.0127 90.3175 15.3944C89.372 19.0557 88.6591 22.7735 87.5276 26.3924C86.5976 29.3327 84.3812 30.8736 81.0178 31.0574C79.3284 31.1563 77.6699 31.0432 76.027 30.6333C75.5 30.506 75.4225 30.3081 75.5775 29.884C75.7635 29.3751 75.7635 28.6683 76.1355 28.3997C76.523 28.117 77.1429 28.6683 77.6854 28.7814C78.6309 28.9793 79.5764 29.0359 80.5373 28.9369C82.1338 28.7673 83.3272 28.0181 83.9782 26.6468C84.3347 25.8835 84.5362 25.0919 84.7377 24.074ZM80.2428 21.9253C80.2273 22.8725 80.2738 23.5369 80.9868 23.8903C81.7618 24.272 82.5368 24.1023 83.2497 23.6924C83.7767 23.3955 84.1952 22.9714 84.5362 22.4908C85.7297 20.8368 86.0086 18.9002 86.5356 17.0483C86.6286 16.6949 86.4116 16.5818 86.0861 16.5536C85.4042 16.497 84.7377 16.5536 84.1177 16.808C81.5448 17.8682 80.4443 19.7766 80.2428 21.9253Z" fill="#020504"/>
<path d="M56.017 10.9415C56.947 10.9415 57.877 10.9415 58.8069 10.9415C62.8523 10.9556 64.7432 14.2069 62.7438 17.5855C61.4574 19.7625 59.1479 20.3138 56.637 20.3986C55.7846 20.4269 54.9321 20.4127 54.0796 20.3986C53.6456 20.3845 53.4441 20.54 53.3666 20.9499C53.0721 22.4342 52.7002 23.8903 52.3902 25.3746C52.2972 25.8411 52.0802 25.9966 51.5687 25.9683C50.8247 25.9259 50.0652 25.9259 49.3213 25.9683C48.7168 25.9966 48.6393 25.7987 48.7633 25.3039C49.6158 21.7133 50.4372 18.1227 51.2742 14.5462C51.5067 13.5567 51.8012 12.5813 51.9562 11.5776C52.0492 10.9839 52.3437 10.8708 52.9326 10.8849C53.9401 10.9556 54.9786 10.9415 56.017 10.9415ZM55.4591 18.1934C56.2185 18.1651 57.195 18.1227 58.1095 17.7551C59.3029 17.2604 59.7679 16.3556 59.8144 15.2106C59.8454 14.3483 59.3649 13.797 58.5435 13.4436C57.536 13.0053 56.4665 13.1608 55.4281 13.175C55.0716 13.175 55.1026 13.486 55.0561 13.698C54.7926 14.8289 54.5291 15.9457 54.2656 17.0766C54.0021 18.2075 54.0021 18.2075 55.4591 18.1934Z" fill="#020504"/>
<path d="M94.4402 26.2367C92.8438 26.2367 91.4953 26.053 90.1624 25.7561C89.5889 25.6289 89.5269 25.4027 89.7129 24.9645C89.8989 24.5262 90.0694 24.0739 90.1934 23.6215C90.3019 23.1409 90.5498 23.1692 90.9528 23.3247C92.3013 23.876 93.7272 24.0315 95.1842 23.8618C95.9592 23.777 96.6876 23.5367 97.2921 23.0702C98.3461 22.2503 98.3306 20.9922 97.2146 20.243C96.3777 19.6775 95.3857 19.3665 94.4867 18.9283C93.3088 18.3628 92.1773 17.7408 91.7898 16.4544C91.2318 14.5602 92.3013 12.5387 94.4092 11.6198C97.1216 10.4465 99.9425 10.4324 102.794 11.1675C103.182 11.2664 103.352 11.4361 103.182 11.8319C102.949 12.3832 102.934 13.1183 102.515 13.4576C102.066 13.8251 101.415 13.2314 100.826 13.1324C99.5395 12.9062 98.2686 12.8638 97.0286 13.3162C96.6876 13.4434 96.3777 13.5989 96.0987 13.8251C95.0912 14.6167 95.1377 15.6063 96.2382 16.2848C96.9666 16.7372 97.8036 17.0058 98.5786 17.3592C99.4311 17.7408 100.299 18.1367 100.919 18.8152C102.484 20.4974 102.05 23.155 100.02 24.6393C98.3151 25.8975 96.3157 26.1943 94.4402 26.2367Z" fill="#020504"/>
<path d="M70.9275 24.0457C69.9356 25.1766 68.7886 26.0672 67.1147 26.2086C64.6037 26.4065 62.9298 25.0635 62.8833 22.7593C62.8058 19.409 65.0377 16.4545 68.5561 15.1257C70.974 14.221 73.4384 14.2634 75.9339 14.7158C76.5538 14.8289 76.6468 15.0692 76.5228 15.5922C75.9029 18.0519 75.3294 20.5116 74.7404 22.9713C74.5544 23.7771 74.4304 24.597 74.4304 25.4169C74.4304 25.8269 74.3064 26.0106 73.8104 25.9965C73.0045 25.9682 72.214 25.9682 71.408 25.9965C70.974 26.0106 70.8655 25.841 70.9275 25.4876C71.005 25.0777 71.0515 24.6536 71.1135 24.2295C71.191 24.1164 71.253 23.975 71.098 23.8902C71.036 23.8337 70.9585 23.9468 70.9275 24.0457ZM66.5102 22.1656C66.5102 22.8583 66.5257 23.5792 67.3317 23.9326C68.2151 24.3143 68.9901 24.0174 69.6876 23.4944C70.0906 23.1975 70.4315 22.8441 70.7105 22.4483C71.904 20.7944 72.2605 18.886 72.741 17.0059C72.834 16.6666 72.6325 16.5394 72.276 16.5252C71.625 16.4969 70.9895 16.5252 70.3695 16.7514C68.1066 17.6137 66.5102 19.8331 66.5102 22.1656Z" fill="#020504"/>
<path d="M156.206 26.2086C153.555 26.2934 151.339 24.9929 150.936 23.0138C150.641 21.5861 150.905 20.1583 151.494 18.7871C152.982 15.3379 157.291 13.5143 161.104 14.7583C162.871 15.3379 163.909 16.497 163.987 18.2358C164.188 22.1374 161.538 26.1238 156.206 26.2086ZM154.439 21.2892C154.408 22.9149 154.811 23.6641 155.71 23.961C156.733 24.3144 158.004 23.9468 158.81 23.028C159.864 21.8123 160.437 20.4269 160.453 18.8719C160.468 17.9248 160.236 17.0766 159.135 16.6808C158.066 16.2991 157.105 16.5394 156.299 17.2604C154.997 18.4761 154.563 20.0028 154.439 21.2892Z" fill="#020504"/>
<path d="M136.568 24.1589C135.312 25.6432 133.762 26.35 131.809 26.1945C129.996 26.0531 128.989 25.0919 128.973 23.4379C128.958 21.7416 129.578 20.1583 129.903 18.5185C130.136 17.3876 130.43 16.2708 130.663 15.1399C130.74 14.73 130.957 14.5886 131.391 14.6028C132.135 14.631 132.894 14.631 133.638 14.6028C134.134 14.5886 134.196 14.7724 134.103 15.1541C133.607 17.2886 133.127 19.4374 132.631 21.5719C132.584 21.7981 132.538 22.0384 132.522 22.2646C132.476 22.8866 132.429 23.5369 133.142 23.8903C133.917 24.272 134.692 24.173 135.421 23.763C136.258 23.2824 136.723 22.5473 136.94 21.7133C137.482 19.5787 137.978 17.4441 138.459 15.3096C138.567 14.8148 138.769 14.5886 139.373 14.631C140.071 14.6876 140.768 14.6593 141.466 14.631C141.931 14.6169 142.024 14.7441 141.931 15.1682C141.249 18.0661 140.613 20.9641 139.962 23.862C139.869 24.2578 139.73 24.6536 139.745 25.0353C139.761 25.8552 139.327 26.0814 138.505 25.9824C137.994 25.9259 137.467 25.9542 136.955 25.9824C136.521 25.9966 136.413 25.8128 136.475 25.4735C136.506 25.0919 136.661 24.696 136.568 24.1589Z" fill="#020504"/>
<path d="M112.683 23.4095C112.73 23.5367 112.761 23.5791 112.761 23.6215C112.745 25.4734 112.745 25.4875 110.761 25.954C109.351 26.2792 107.894 26.3216 106.468 26.0812C103.848 25.643 102.67 24.2577 102.81 21.8262C103.027 18.066 105.925 15.0267 109.847 14.4754C110.854 14.334 111.862 14.3906 112.838 14.645C115.24 15.267 115.907 17.7691 114.109 19.3665C113.024 20.3278 111.614 20.6529 110.188 20.9074C109.18 21.0912 108.142 21.2042 107.119 21.1618C106.499 21.1336 106.313 21.4022 106.251 21.8969C106.111 23.2257 106.933 24.1729 108.405 24.3142C109.924 24.4697 111.304 24.088 112.683 23.4095ZM107.63 19.4796C108.669 19.3665 109.847 19.3241 110.916 18.7869C111.815 18.3346 112.203 17.5571 111.908 16.8644C111.66 16.3131 110.746 16.0869 109.785 16.3555C108.436 16.7513 107.677 17.7126 107.057 18.7869C106.685 19.4796 106.716 19.4938 107.63 19.4796Z" fill="#020504"/>
<path d="M147.247 16.3274C147.836 15.776 148.363 15.154 149.153 14.8289C149.432 14.7158 149.711 14.5745 150.006 14.5179C150.579 14.4048 151.277 14.221 151.711 14.5745C152.067 14.8572 151.618 15.3944 151.54 15.8184C151.525 15.8891 151.509 15.9598 151.494 16.0305C151.385 16.4122 151.37 16.8645 151.137 17.1755C150.858 17.5431 150.347 17.2038 149.928 17.2321C148.564 17.3452 147.681 18.0661 147.015 19.0839C146.41 20.0028 146.209 21.063 145.961 22.0949C145.697 23.24 145.387 24.385 145.17 25.5442C145.093 25.9541 144.907 26.0248 144.519 26.0107C143.775 25.9965 143.016 25.9824 142.272 26.0248C141.683 26.0531 141.652 25.8269 141.745 25.3887C142.442 22.4766 143.109 19.5504 143.791 16.6242C143.899 16.1436 143.992 15.6488 144.07 15.1682C144.116 14.8289 144.271 14.6734 144.659 14.6875C145.356 14.7158 146.054 14.7158 146.751 14.6875C147.278 14.6593 147.371 14.843 147.263 15.2671C147.17 15.5781 147.17 15.9174 147.123 16.2425C146.999 16.3132 146.968 16.4404 147.092 16.497C147.154 16.5253 147.232 16.4122 147.247 16.3274Z" fill="#020504"/>
<path d="M27.5136 32.8525C25.3747 34.7468 22.9103 35.9201 20.0119 36.3159C13.4711 37.1924 7.1628 33.7714 5.03937 28.2158C2.79195 22.321 5.30287 16.0445 11.1617 12.9628C16.5865 10.1073 23.6233 11.0686 27.8856 15.267C28.4591 15.8325 28.4591 15.8325 27.6531 16.0587C23.7472 17.1613 21.0813 20.3278 20.9108 24.0881C20.7403 27.82 23.1118 31.1845 26.9091 32.5981C27.0796 32.6688 27.2656 32.7536 27.5136 32.8525Z" fill="#A7DBD9"/>
<path d="M4.38819 17.8822C3.90771 14.0371 4.93067 10.5737 7.37959 7.47789C12.3394 1.14485 21.9801 -0.763544 29.2339 3.29356C35.0307 6.5449 37.6966 11.4078 37.4021 17.6136C37.3866 17.7832 37.4796 18.0377 37.2316 18.1084C37.0456 18.1649 36.9216 17.967 36.7976 17.868C34.9997 16.4403 32.9072 15.6769 30.5048 15.6911C30.0243 15.6911 29.8073 15.4931 29.5438 15.1821C23.0961 7.77475 10.123 8.67947 4.97717 16.9068C4.77568 17.2319 4.58968 17.557 4.38819 17.8822Z" fill="#DBE25F"/>
<path d="M38.6886 24.4699C38.6731 28.6542 34.9998 32.0328 30.4429 32.0328C25.8706 32.0328 22.1972 28.6259 22.2127 24.3851C22.2282 20.2431 25.9171 16.907 30.4584 16.907C35.0308 16.907 38.6886 20.2714 38.6886 24.4699Z" fill="#F4DD3E"/>
<path d="M70.9275 24.0467C70.9585 23.9472 71.0205 23.8335 71.1135 23.8762C71.2685 23.9614 71.2065 24.1035 71.129 24.2172C71.0515 24.1604 70.9895 24.1035 70.9275 24.0467Z" fill="#00BB98"/>
<path d="M147.247 16.3276C147.231 16.427 147.154 16.5263 147.092 16.4837C146.968 16.4128 146.999 16.2992 147.123 16.2283C147.154 16.2567 147.2 16.285 147.247 16.3276Z" fill="#00BB98"/>
</svg>
