<svg width="191" height="68" viewBox="0 0 191 68" fill="none" xmlns="http://www.w3.org/2000/svg">
<g clip-path="url(#clip0_10_666)">
<path d="M78.8281 63.4947V24.4936C78.8281 21.048 80.1948 17.7435 82.6276 15.3071C85.0604 12.8707 88.3599 11.502 91.8004 11.502L103.297 11.518C106.729 11.5249 110.017 12.8951 112.441 15.3278C114.865 17.7605 116.226 21.057 116.225 24.4936V32.7934C116.225 36.2392 114.859 39.5438 112.426 41.9806C109.993 44.4173 106.694 45.7865 103.253 45.787H87.0032" stroke="#939598" stroke-width="6.26" stroke-linecap="round" stroke-linejoin="round"/>
<path d="M119.439 11.5H124.427C125.839 11.5 127.193 12.0618 128.192 13.0618C129.19 14.0618 129.751 15.4182 129.751 16.8324V45.9638" stroke="#939598" stroke-width="6.26" stroke-linecap="round" stroke-linejoin="round"/>
<path d="M128.68 6.98666L126.419 4.71999C126.286 4.58649 126.18 4.42797 126.108 4.25349C126.035 4.07901 125.998 3.89198 125.998 3.70311C125.998 3.51423 126.035 3.3272 126.108 3.15272C126.18 2.97824 126.286 2.81972 126.419 2.68622L128.68 0.421558C128.95 0.151471 129.316 -0.000244141 129.698 -0.000244141C130.079 -0.000244141 130.445 0.151471 130.715 0.421558L132.974 2.68622C133.108 2.81972 133.214 2.97824 133.286 3.15272C133.358 3.3272 133.395 3.51423 133.395 3.70311C133.395 3.89198 133.358 4.07901 133.286 4.25349C133.214 4.42797 133.108 4.58649 132.974 4.71999L130.705 6.98666C130.572 7.12033 130.413 7.22637 130.239 7.29871C130.064 7.37105 129.878 7.40829 129.689 7.40829C129.5 7.40829 129.313 7.37105 129.139 7.29871C128.964 7.22637 128.806 7.12033 128.672 6.98666" fill="#32BCAD"/>
<path d="M139.325 11.4739H144.271C146.815 11.4728 149.255 12.4839 151.055 14.2846L162.624 25.8709C162.98 26.2281 163.403 26.5114 163.869 26.7047C164.334 26.898 164.833 26.9975 165.337 26.9975C165.841 26.9975 166.34 26.898 166.806 26.7047C167.271 26.5114 167.694 26.2281 168.051 25.8709L179.577 14.3288C180.468 13.437 181.525 12.7298 182.689 12.2475C183.853 11.7652 185.1 11.5173 186.359 11.518H190.381" stroke="#939598" stroke-width="6.26" stroke-linecap="round" stroke-linejoin="round"/>
<path d="M139.325 45.7087H144.271C146.815 45.7095 149.255 44.6985 151.055 42.8979L162.624 31.3116C163.344 30.5914 164.32 30.1868 165.337 30.1868C166.355 30.1868 167.331 30.5914 168.051 31.3116L179.577 42.8558C181.376 44.6562 183.816 45.6673 186.359 45.6665H190.381" stroke="#939598" stroke-width="6.26" stroke-linecap="round" stroke-linejoin="round"/>
<path d="M49.3413 53.1091C48.1211 53.1135 46.9121 52.8758 45.7842 52.4095C44.6563 51.9433 43.6318 51.2578 42.77 50.3927L33.2778 40.8804C32.9421 40.5588 32.4954 40.3794 32.0309 40.3794C31.5664 40.3794 31.1197 40.5588 30.784 40.8804L21.2598 50.4188C20.3984 51.2852 19.3742 51.972 18.2463 52.4396C17.1184 52.9073 15.9092 53.1464 14.6884 53.1433H12.8301L24.8582 65.1893C26.6621 66.9921 29.1065 68.0046 31.655 68.0046C34.2035 68.0046 36.6479 66.9921 38.4519 65.1893L50.504 53.1172L49.3413 53.1091Z" fill="#32BCAD"/>
<path d="M14.6904 19.4926C15.9112 19.4893 17.1205 19.7284 18.2484 20.196C19.3763 20.6636 20.4005 21.3505 21.2618 22.217L30.786 31.7574C31.1171 32.088 31.5655 32.2736 32.0329 32.2736C32.5004 32.2736 32.9488 32.088 33.2798 31.7574L42.77 22.2531C43.6305 21.3856 44.6546 20.6979 45.7826 20.2298C46.9107 19.7618 48.1203 19.5228 49.3413 19.5267H50.484L38.4319 7.45653C37.5394 6.56241 36.4798 5.85313 35.3136 5.36922C34.1473 4.8853 32.8973 4.63623 31.635 4.63623C30.3726 4.63623 29.1226 4.8853 27.9564 5.36922C26.7902 5.85313 25.7306 6.56241 24.8381 7.45653L12.8301 19.4926H14.6904Z" fill="#32BCAD"/>
<path d="M60.4531 29.5128L53.1701 22.2189C53.0058 22.2861 52.8303 22.3216 52.6529 22.3233H49.3411C47.6178 22.3276 45.9658 23.013 44.7444 24.2306L35.2542 33.7289C34.3996 34.5833 33.2413 35.0632 32.0337 35.0632C30.8261 35.0632 29.6679 34.5833 28.8132 33.7289L19.287 24.1944C18.0659 22.9762 16.4138 22.29 14.6902 22.2851H10.6247C10.4572 22.2814 10.2916 22.2481 10.1356 22.1868L2.80648 29.5128C1.00635 31.3194 -0.00463867 33.7675 -0.00463867 36.3198C-0.00463867 38.8721 1.00635 41.3202 2.80648 43.1268L10.1196 50.4508C10.2752 50.3884 10.441 50.3551 10.6087 50.3525H14.6902C16.4138 50.3474 18.0657 49.6612 19.287 48.4432L28.8112 38.9047C30.5332 37.1821 33.5342 37.1821 35.2542 38.9047L44.7444 48.407C45.9658 49.6246 47.6178 50.31 49.3411 50.3143H52.6529C52.8304 50.3156 53.006 50.351 53.1701 50.4187L60.4531 43.1248C61.3459 42.231 62.0541 41.1698 62.5373 40.0019C63.0205 38.8339 63.2692 37.582 63.2692 36.3178C63.2692 35.0536 63.0205 33.8017 62.5373 32.6337C62.0541 31.4658 61.3459 30.4046 60.4531 29.5108" fill="#32BCAD"/>
<path d="M88.7151 60.18C88.1131 60.2064 87.5156 60.2973 86.9329 60.4511V62.8281C87.3786 62.9847 87.8479 63.0634 88.3202 63.061C89.5109 63.061 90.0743 62.6595 90.0743 61.6095C90.0743 60.6217 89.6132 60.18 88.7151 60.18M86.532 64.5969V59.8929H86.8587L86.8928 60.0937C87.5001 59.9321 88.122 59.8318 88.7492 59.7945C89.1838 59.764 89.6151 59.8893 89.966 60.1479C90.3669 60.4812 90.5033 61.0192 90.5033 61.6055C90.5033 62.1917 90.3028 62.798 89.7415 63.1173C89.3131 63.3313 88.8388 63.4368 88.3603 63.4244C87.8764 63.4214 87.3955 63.3477 86.9329 63.2056V64.5889L86.532 64.5969Z" fill="#939598"/>
<path d="M93.4903 60.166C92.3015 60.166 91.7703 60.5394 91.7703 61.5894C91.7703 62.6033 92.2935 63.0611 93.4903 63.0611C94.6871 63.0611 95.2043 62.6916 95.2043 61.6436C95.2043 60.6298 94.6811 60.166 93.4903 60.166M95.0219 63.0611C94.621 63.3461 94.0957 63.4285 93.4903 63.4285C92.8849 63.4285 92.3416 63.3401 91.9547 63.0611C91.5197 62.7539 91.3413 62.258 91.3413 61.6175C91.3413 60.9771 91.5197 60.4792 91.9547 60.166C92.3416 59.8869 92.8729 59.7986 93.4903 59.7986C94.1078 59.7986 94.627 59.8869 95.0219 60.166C95.4629 60.4792 95.6333 60.9891 95.6333 61.6095C95.6333 62.2299 95.4569 62.7539 95.0219 63.0611Z" fill="#939598"/>
<path d="M100.655 63.3322L99.3279 60.4793H99.3018L97.9947 63.3322H97.6279L96.2246 59.8931H96.6656L97.8424 62.7801H97.8705L99.1494 59.8931H99.5163L100.827 62.7801H100.855L102.004 59.8931H102.439L101.024 63.3322H100.655Z" fill="#939598"/>
<path d="M104.995 60.1579C103.893 60.1579 103.52 60.6498 103.452 61.3626H106.539C106.505 60.5796 106.104 60.1579 104.995 60.1579M104.981 63.4284C104.322 63.4284 103.893 63.3321 103.552 63.047C103.151 62.6997 103.017 62.1957 103.017 61.6175C103.017 61.0393 103.199 60.4792 103.656 60.1459C104.056 59.8941 104.524 59.7728 104.995 59.7986C105.476 59.7695 105.954 59.8856 106.368 60.1318C106.864 60.4651 106.96 61.0514 106.96 61.7179H103.442C103.456 62.4266 103.686 63.053 105.019 63.053C105.615 63.0373 106.209 62.9701 106.793 62.8522V63.2136C106.199 63.336 105.596 63.4065 104.989 63.4244" fill="#939598"/>
<path d="M108.113 63.3322V59.8931H108.437L108.471 60.0938C109.199 59.9091 109.54 59.7947 110.179 59.7947H110.227V60.1761H110.131C109.594 60.1761 109.267 60.2504 108.513 60.4472V63.3282L108.113 63.3322Z" fill="#939598"/>
<path d="M112.557 60.1579C111.456 60.1579 111.081 60.6498 111.013 61.3626H114.1C114.066 60.5796 113.665 60.1579 112.557 60.1579M112.543 63.4284C111.883 63.4284 111.456 63.3321 111.115 63.047C110.714 62.6997 110.578 62.1957 110.578 61.6175C110.578 61.0393 110.763 60.4792 111.218 60.1459C111.618 59.8946 112.085 59.7733 112.557 59.7986C113.037 59.7695 113.516 59.8856 113.93 60.1318C114.427 60.4651 114.531 61.0514 114.531 61.7179H110.999C111.013 62.4266 111.244 63.053 112.577 63.053C113.174 63.0374 113.768 62.9702 114.353 62.8522V63.2136C113.759 63.3359 113.155 63.4064 112.549 63.4244" fill="#939598"/>
<path d="M118.918 60.3968C118.472 60.241 118.003 60.1629 117.531 60.1659C116.34 60.1659 115.776 60.5675 115.776 61.6175C115.776 62.6113 116.239 63.047 117.136 63.047C117.737 63.019 118.334 62.9296 118.918 62.7799V60.3968ZM118.994 63.3321L118.958 63.1313C118.351 63.2947 117.729 63.3956 117.102 63.4324C116.666 63.4653 116.234 63.339 115.885 63.0771C115.484 62.7438 115.347 62.2057 115.347 61.6215C115.347 61.0072 115.548 60.4289 116.109 60.1158C116.538 59.8967 117.015 59.789 117.496 59.8026C117.978 59.8092 118.456 59.8822 118.918 60.0194V58.4434H119.319V63.3321H118.994Z" fill="#939598"/>
<path d="M125.202 60.18C124.6 60.2064 124.003 60.2973 123.42 60.451V62.8221C123.865 62.983 124.335 63.0639 124.807 63.061C125.998 63.061 126.562 62.6595 126.562 61.6095C126.562 60.6217 126.1 60.18 125.202 60.18ZM126.229 63.1212C125.801 63.3351 125.327 63.4406 124.85 63.4284C124.326 63.4252 123.807 63.3377 123.312 63.1694L123.292 63.3321H123.019V58.4434H123.42V60.0836C124.015 59.9312 124.623 59.8357 125.236 59.7985C125.671 59.768 126.102 59.8933 126.453 60.1519C126.854 60.4852 126.991 61.0232 126.991 61.6095C126.991 62.1957 126.79 62.802 126.229 63.1212Z" fill="#939598"/>
<path d="M127.524 64.6472V64.2737C127.724 64.2938 127.905 64.3079 128.033 64.3079C128.53 64.3079 128.835 64.1633 129.108 63.5992L129.238 63.3261L127.434 59.887H127.899L129.436 62.8563H129.462L130.924 59.887H131.381L129.448 63.7497C129.095 64.4504 128.715 64.6813 128.013 64.6813C127.847 64.6804 127.682 64.669 127.518 64.6472" fill="#939598"/>
<path d="M136.92 61.3705H135.589V62.5751H136.92C137.838 62.5751 138.185 62.4728 138.185 61.9728C138.185 61.4348 137.708 61.3705 136.912 61.3705M136.671 59.4271H135.585V60.6518H136.679C137.583 60.6518 137.944 60.5434 137.944 60.0334C137.944 59.4873 137.487 59.4311 136.671 59.4311M138.74 63.0209C138.249 63.3341 137.658 63.3461 136.577 63.3461H134.542V58.6682H136.529C137.461 58.6682 138.032 58.6803 138.507 58.9674C138.665 59.0616 138.794 59.1983 138.878 59.3619C138.962 59.5254 138.999 59.7094 138.985 59.8929C138.985 60.3828 138.784 60.71 138.249 60.9289V60.955C138.85 61.0915 139.235 61.3986 139.235 62.0592C139.25 62.2478 139.212 62.4369 139.124 62.6045C139.037 62.7722 138.903 62.9116 138.74 63.0068" fill="#939598"/>
<path d="M143.303 61.8887C142.902 61.8546 142.501 61.8345 142.066 61.8345C141.366 61.8345 141.12 61.977 141.12 62.2983C141.12 62.6195 141.32 62.76 141.861 62.76C142.348 62.744 142.831 62.6767 143.303 62.5593V61.8887ZM143.503 63.3322L143.477 63.1315C142.869 63.3031 142.244 63.4041 141.613 63.4326C141.248 63.4572 140.885 63.3689 140.572 63.1796C140.438 63.0667 140.334 62.9221 140.269 62.7589C140.204 62.5957 140.18 62.4189 140.2 62.2444C140.22 62.0698 140.282 61.9029 140.382 61.7585C140.482 61.6141 140.617 61.4967 140.773 61.4169C141.134 61.2463 141.617 61.2322 142.06 61.2322C142.419 61.2322 142.902 61.2523 143.303 61.2804V61.2181C143.303 60.6801 142.95 60.5034 141.984 60.5034C141.611 60.5034 141.154 60.5235 140.719 60.5636V59.869C141.202 59.8288 141.747 59.8027 142.196 59.8027C142.798 59.8027 143.413 59.8489 143.8 60.122C144.187 60.395 144.269 60.7905 144.269 61.3005V63.3362L143.503 63.3322Z" fill="#939598"/>
<path d="M148.747 63.3321V61.4349C148.747 60.8085 148.429 60.5836 147.857 60.5836C147.383 60.6047 146.913 60.6774 146.454 60.8004V63.3341H145.496V59.893H146.278L146.312 60.1118C146.909 59.9356 147.526 59.8305 148.148 59.7986C148.571 59.7648 148.991 59.8909 149.325 60.152C149.595 60.3969 149.698 60.7382 149.698 61.2281V63.3321H148.747Z" fill="#939598"/>
<path d="M152.408 63.4285C151.965 63.4285 151.482 63.3662 151.129 63.0671C150.708 62.7258 150.586 62.1897 150.586 61.6095C150.586 61.0654 150.762 60.4712 151.285 60.1379C151.714 59.8588 152.243 59.7986 152.795 59.7986C153.196 59.7986 153.577 59.8247 153.998 59.8648V60.6017C153.651 60.5675 153.236 60.5414 152.903 60.5414C151.991 60.5414 151.562 60.8265 151.562 61.6175C151.562 62.3584 151.883 62.6796 152.63 62.6796C153.115 62.6637 153.597 62.6046 154.072 62.5029V63.2096C153.523 63.3376 152.963 63.4109 152.4 63.4285" fill="#939598"/>
<path d="M156.912 60.5193C156 60.5193 155.599 60.8064 155.599 61.5894C155.599 62.3724 156 62.7057 156.912 62.7057C157.825 62.7057 158.211 62.4266 158.211 61.6436C158.211 60.8606 157.825 60.5193 156.912 60.5193M158.558 63.0671C158.137 63.3522 157.586 63.4285 156.912 63.4285C156.239 63.4285 155.676 63.3461 155.261 63.0671C154.783 62.7539 154.613 62.2359 154.613 61.6175C154.613 60.9992 154.783 60.4712 155.261 60.158C155.676 59.8789 156.225 59.7986 156.912 59.7986C157.6 59.7986 158.137 59.8789 158.558 60.158C159.033 60.4712 159.198 60.9972 159.198 61.6095C159.198 62.2218 159.027 62.7539 158.558 63.0671Z" fill="#939598"/>
<path d="M164.733 63.4286C164.155 63.4286 163.53 63.3322 163.061 62.9447C162.503 62.481 162.333 61.7662 162.333 60.9973C162.333 60.3087 162.552 59.4915 163.277 59.0157C163.843 58.6483 164.542 58.572 165.25 58.572C165.767 58.572 166.298 58.6062 166.876 58.6543V59.4915C166.38 59.4514 165.767 59.4173 165.292 59.4173C163.965 59.4173 163.401 59.9212 163.401 60.9973C163.401 62.0734 163.925 62.5834 164.903 62.5834C165.602 62.5592 166.297 62.4657 166.978 62.3043V63.1355C166.241 63.3061 165.489 63.4043 164.733 63.4286" fill="#939598"/>
<path d="M169.797 60.4111C168.995 60.4111 168.694 60.6982 168.632 61.2142H170.945C170.917 60.656 170.59 60.4111 169.797 60.4111ZM169.652 63.4226C169.089 63.4226 168.578 63.3543 168.197 63.0411C167.816 62.7279 167.646 62.1899 167.646 61.6036C167.646 61.0796 167.816 60.4934 168.293 60.1521C168.714 59.853 169.251 59.7927 169.797 59.7927C170.286 59.7927 170.863 59.8469 171.284 60.14C171.835 60.5275 171.885 61.1278 171.885 61.8345H168.626C168.646 62.3605 168.924 62.6998 169.891 62.6998C170.504 62.6864 171.116 62.6274 171.721 62.5232V63.1977C171.038 63.3275 170.347 63.4027 169.652 63.4226" fill="#939598"/>
<path d="M176.155 63.3321V61.4349C176.155 60.8085 175.837 60.5836 175.265 60.5836C174.791 60.6047 174.321 60.6774 173.862 60.8004V63.3341H172.904V59.893H173.686L173.72 60.1118C174.317 59.9356 174.934 59.8305 175.556 59.7986C175.979 59.7648 176.398 59.8909 176.733 60.152C177.003 60.3969 177.106 60.7382 177.106 61.2281V63.3321H176.155Z" fill="#939598"/>
<path d="M179.838 63.4286C179.375 63.4286 178.954 63.2981 178.723 62.9367C178.534 62.6243 178.446 62.2611 178.471 61.8967V60.6078H177.777V59.8931H178.471L178.573 58.8511H179.419V59.8931H180.772V60.6078H179.419V61.712C179.406 61.9343 179.438 62.1569 179.513 62.3665C179.615 62.5974 179.84 62.6857 180.141 62.6857C180.371 62.6815 180.6 62.6587 180.826 62.6175V63.3061C180.5 63.3769 180.168 63.4179 179.834 63.4286" fill="#939598"/>
<path d="M181.712 63.3322V59.893H182.494L182.528 60.1119C183.077 59.9254 183.649 59.8199 184.228 59.7987C184.269 59.7963 184.31 59.7963 184.35 59.7987V60.6318C184.242 60.6318 184.112 60.6318 184.018 60.6318C183.563 60.6337 183.11 60.6931 182.671 60.8085V63.3482L181.712 63.3322Z" fill="#939598"/>
<path d="M187.839 61.8887C187.438 61.8546 187.037 61.8345 186.6 61.8345C185.9 61.8345 185.655 61.977 185.655 62.2983C185.655 62.6195 185.856 62.76 186.395 62.76C186.882 62.744 187.366 62.6768 187.839 62.5593V61.8887ZM188.039 63.3322L188.011 63.1315C187.403 63.3031 186.778 63.4041 186.147 63.4326C185.782 63.4572 185.419 63.3689 185.106 63.1796C184.98 63.0827 184.879 62.9563 184.813 62.8114C184.746 62.6665 184.716 62.5076 184.725 62.3485C184.716 62.1527 184.767 61.9587 184.87 61.7923C184.973 61.6259 185.125 61.4949 185.305 61.4169C185.666 61.2463 186.147 61.2322 186.59 61.2322C186.951 61.2322 187.434 61.2523 187.835 61.2804V61.2181C187.835 60.6801 187.48 60.5034 186.515 60.5034C186.141 60.5034 185.686 60.5235 185.251 60.5636V59.869C185.734 59.8288 186.277 59.8027 186.726 59.8027C187.327 59.8027 187.943 59.8489 188.33 60.122C188.717 60.395 188.799 60.7905 188.799 61.3005V63.3362L188.039 63.3322Z" fill="#939598"/>
<path d="M190.028 58.4434H190.988V63.3321H190.028V58.4434Z" fill="#939598"/>
</g>
<defs>
<clipPath id="clip0_10_666">
<rect width="191" height="68" fill="white"/>
</clipPath>
</defs>
</svg>
