<svg width="340" height="319" viewBox="0 0 340 319" fill="none" xmlns="http://www.w3.org/2000/svg">
<path d="M314.074 158.762C314.074 246.443 243.766 317.523 157.037 317.523C70.3079 317.523 0 246.443 0 158.762C0 71.08 70.3079 0 157.037 0C243.766 0 314.074 71.08 314.074 158.762Z" fill="#D7FED9"/>
<g clip-path="url(#clip0_368_18725)">
<path d="M235.465 118.015L202.747 84.9364C201.987 84.1688 200.957 83.7375 199.884 83.7375C198.81 83.7375 197.78 84.1688 197.021 84.9364C196.262 85.704 195.835 86.7451 195.835 87.8307C195.835 88.9163 196.262 89.9574 197.021 90.7251L210.449 104.37L188.977 126.077L164.575 101.475C164.199 101.095 163.752 100.794 163.261 100.588C162.77 100.382 162.243 100.277 161.712 100.277C161.18 100.277 160.654 100.382 160.162 100.588C159.671 100.794 159.225 101.095 158.849 101.475C158.473 101.856 158.175 102.307 157.971 102.803C157.768 103.3 157.663 103.832 157.663 104.37C157.663 104.907 157.768 105.44 157.971 105.936C158.175 106.433 158.473 106.884 158.849 107.264L164.097 112.639L105.885 171.491C104.114 173.313 103.112 175.759 103.091 178.313V212.907L87.9581 228.275C87.5821 228.655 87.2839 229.106 87.0804 229.603C86.8769 230.1 86.7722 230.632 86.7722 231.169C86.7722 231.707 86.8769 232.239 87.0804 232.736C87.2839 233.232 87.5821 233.684 87.9581 234.064C88.334 234.444 88.7804 234.745 89.2716 234.951C89.7628 235.157 90.2893 235.263 90.821 235.263C91.3527 235.263 91.8791 235.157 92.3704 234.951C92.8616 234.745 93.3079 234.444 93.6839 234.064L108.884 218.765H143.103C145.63 218.743 148.049 217.73 149.851 215.94L208.063 157.088L213.38 162.394C214.139 163.162 215.169 163.593 216.243 163.593C217.317 163.593 218.347 163.162 219.106 162.394C219.865 161.627 220.292 160.586 220.292 159.5C220.292 158.414 219.865 157.373 219.106 156.606L194.771 131.935L216.243 110.227L229.74 123.803C230.116 124.183 230.562 124.485 231.053 124.691C231.544 124.896 232.071 125.002 232.602 125.002C233.134 125.002 233.661 124.896 234.152 124.691C234.643 124.485 235.089 124.183 235.465 123.803C235.841 123.423 236.14 122.972 236.343 122.475C236.547 121.979 236.651 121.446 236.651 120.909C236.651 120.371 236.547 119.839 236.343 119.342C236.14 118.846 235.841 118.395 235.465 118.015ZM144.057 210.082C143.805 210.342 143.462 210.49 143.103 210.496H111.27V178.313C111.275 177.95 111.422 177.603 111.679 177.348L124.903 163.979L139.763 178.933C140.522 179.701 141.552 180.132 142.626 180.132C143.7 180.132 144.729 179.701 145.489 178.933C146.248 178.166 146.675 177.125 146.675 176.039C146.675 174.954 146.248 173.912 145.489 173.145L130.697 158.122L143.989 144.684L158.849 159.638C159.225 160.018 159.671 160.319 160.162 160.525C160.654 160.731 161.18 160.837 161.712 160.837C162.243 160.837 162.77 160.731 163.261 160.525C163.752 160.319 164.199 160.018 164.575 159.638C164.951 159.258 165.249 158.807 165.452 158.31C165.656 157.813 165.76 157.281 165.76 156.744C165.76 156.206 165.656 155.674 165.452 155.177C165.249 154.681 164.951 154.229 164.575 153.849L149.783 138.826L169.891 118.497L202.269 151.231L144.057 210.082Z" fill="#3D7D40"/>
</g>
<defs>
<clipPath id="clip0_368_18725">
<rect width="252.428" height="255.2" fill="white" transform="translate(86.7722)"/>
</clipPath>
</defs>
</svg>
