<svg width="316" height="316" viewBox="0 0 316 316" fill="none" xmlns="http://www.w3.org/2000/svg">
<path d="M316 157.765C316 244.896 245.366 315.53 158.235 315.53C71.1036 315.53 0.469727 244.896 0.469727 157.765C0.469727 70.6339 71.1036 0 158.235 0C245.366 0 316 70.6339 316 157.765Z" fill="#D7FED9"/>
<path d="M173.144 134.377C179.347 134.377 185.296 136.841 189.682 141.227C194.069 145.614 196.533 151.563 196.533 157.766C196.533 163.969 194.069 169.918 189.682 174.304C185.296 178.69 179.347 181.154 173.144 181.154M173.105 91.3466C190.72 91.3466 207.614 98.3443 220.07 110.8C232.526 123.256 239.524 140.15 239.524 157.766C239.524 175.381 232.526 192.275 220.07 204.731C207.614 217.187 190.72 224.185 173.105 224.185V91.3466ZM173.105 202.019C184.841 202.019 196.097 197.356 204.396 189.057C212.695 180.758 217.358 169.502 217.358 157.766C217.358 146.029 212.695 134.773 204.396 126.474C196.097 118.175 184.841 113.513 173.105 113.513V202.019ZM146.403 92.727C149.44 92.2932 150.978 95.5273 150.978 102.43V212.984C150.978 224.067 147.034 225.644 139.146 217.874L90.0807 168.849C87.2487 165.854 85.6707 161.888 85.6707 157.766C85.6707 153.644 87.2487 149.678 90.0807 146.683L139.225 97.5388C141.107 95.2802 143.598 93.61 146.403 92.727Z" stroke="#3D7D40" stroke-width="9" stroke-linecap="round" stroke-linejoin="round"/>
</svg>
