<svg width="162" height="117" viewBox="0 0 162 117" fill="none" xmlns="http://www.w3.org/2000/svg">
<path fill-rule="evenodd" clip-rule="evenodd" d="M20.0521 16.9592C18.469 17.068 16.3583 17.2314 15.4085 17.3947C13.456 17.7758 13.4032 17.068 16.0944 26.9224C16.9915 30.3524 18.3107 35.2523 18.944 37.8112C19.63 40.37 20.4743 43.5278 20.8964 44.8889L21.6352 47.3389H27.8091H34.0358L34.9329 43.8C35.4078 41.84 36.1466 39.0089 36.5687 37.539C37.3602 34.7079 39.471 26.8135 40.8958 21.2602C41.3179 19.518 41.5817 17.9391 41.4234 17.7758C41.2651 17.6125 39.1544 17.3403 36.727 17.1769L32.2944 16.8503L31.4501 20.9336C30.3948 25.9968 29.0756 32.5846 28.6534 34.9257C28.2313 37.5934 27.598 37.1034 26.912 33.5646C26.5954 31.8768 25.8567 28.3924 25.329 25.8335C24.7485 23.2747 24.1681 20.1713 24.0098 18.8647C23.7987 17.6125 23.4821 16.6325 23.3238 16.6869C23.1127 16.7414 21.6352 16.8503 20.0521 16.9592Z" fill="white"/>
<path fill-rule="evenodd" clip-rule="evenodd" d="M50.3943 16.9591C48.9695 17.068 46.7532 17.2314 45.5396 17.4491L43.2705 17.7214V32.9657V48.1555L47.9142 47.8289C50.4471 47.6111 52.6633 47.2844 52.9272 47.1211C53.1383 46.9033 53.2438 39.9889 53.191 31.7679L53.0327 16.8503L50.3943 16.9591Z" fill="white"/>
<path fill-rule="evenodd" clip-rule="evenodd" d="M59.7873 17.068C57.4128 17.2858 55.302 17.6125 55.0909 17.8303C54.8799 18.048 55.1437 19.7358 55.6714 21.5869C56.1463 23.4924 57.0434 26.7046 57.5711 28.8279C58.1515 30.8968 59.0486 34.2179 59.5763 36.1779C60.104 38.1378 61.001 41.35 61.5287 43.3645L62.4786 47.0122L68.7053 47.1755L74.932 47.3389L75.9346 43.8C76.4623 41.84 77.4649 38.1923 78.0981 35.6334C78.7841 33.0746 80.1033 28.1202 81.1059 24.5269C82.1085 20.988 82.7417 17.9391 82.5834 17.7758C82.003 17.1769 73.2434 16.7958 73.0851 17.3947C72.8212 18.4291 71.7131 24.5269 70.9216 28.7735C70.4994 31.169 69.9189 34.109 69.5496 35.3068L68.9691 37.539L68.0193 33.4557C65.8558 24.1458 64.9059 19.3002 64.9059 17.9936C64.9059 17.2314 64.7476 16.6325 64.5365 16.6869C64.2727 16.6869 62.1619 16.9047 59.7873 17.068Z" fill="white"/>
<path fill-rule="evenodd" clip-rule="evenodd" d="M9.4986 18.0481C7.28231 18.3747 7.17677 18.4836 5.59371 23.928C2.37482 34.7079 1.8999 38.029 1.8999 48.4278C1.8999 57.9555 1.95267 58.391 3.53573 63.6721C10.9761 87.6274 34.2999 100.966 68.7579 100.966C85.5383 100.966 105.643 97.1007 118.308 91.4929C119.258 91.0574 120.999 90.2952 122.16 89.7507C131.183 85.7763 141.843 79.2431 145.484 75.5409C147.964 72.982 149.652 68.2998 149.177 65.5776C148.861 64.1621 148.966 64.0532 151.183 63.8354C153.979 63.5088 156.829 61.7666 158.729 59.1532C159.995 57.411 160.153 56.8122 160.153 52.7289C160.153 48.7 159.995 48.1011 158.834 46.7945C156.512 44.2356 154.138 43.0923 150.972 42.929L148.016 42.8201L147.753 40.4245C147.119 35.3612 143.953 32.3668 139.204 32.3668C136.935 32.3668 135.827 32.6935 134.244 33.7824C133.136 34.599 132.028 35.4701 131.869 35.7424C131.711 36.0146 130.286 35.3068 128.703 34.2179C126.065 32.4213 125.643 32.2579 122.635 32.4757C116.883 32.8568 113.453 36.8857 113.453 43.2556C113.453 45.8689 113.77 47.1211 114.825 49.0267C115.564 50.3333 116.566 51.64 117.041 51.9122C117.78 52.3478 117.569 52.7833 115.722 54.8522C111.712 59.371 111.448 65.7954 115.142 71.6754C116.039 73.1453 117.252 74.6698 117.833 75.1053C119.258 76.1398 118.73 76.7386 113.559 80.2775C103.744 87.0285 91.765 91.2207 75.9872 93.4529C69.4439 94.3785 56.9904 94.3785 50.6582 93.3985C42.3207 92.2007 32.4002 88.6074 27.2817 85.0141C23.9045 82.6186 22.1631 81.1486 22.1631 80.713C22.1631 80.4953 26.1735 80.2775 31.0282 80.2775C39.1546 80.2775 40.0517 80.1686 42.2152 79.0797C45.5396 77.2831 46.595 75.5409 46.595 71.7842C46.595 68.7354 46.4895 68.5176 44.326 66.5576L42.0569 64.4888L43.4289 63.3454C46.4895 60.8955 46.4895 54.8522 43.3761 52.62C40.9488 50.8233 38.0465 50.3333 29.709 50.3333H21.6354V65.0332C21.6354 73.0909 21.4243 79.7331 21.2133 79.7331C20.6856 79.7331 17.4139 75.8131 15.7253 73.1998C8.49599 61.7666 6.43801 46.3045 9.70967 27.4124C10.4484 23.0025 11.24 19.0281 11.3983 18.5381C11.5566 18.0481 11.6621 17.7214 11.5566 17.7759C11.451 17.7759 10.5012 17.9392 9.4986 18.0481ZM140.998 38.3557C144.112 40.8601 144.006 45.1067 140.84 47.8834C138.676 49.68 136.935 49.6256 134.983 47.6111C133.505 46.0867 133.4 45.6512 133.663 43.3645C133.874 41.3501 134.297 40.479 135.827 39.0634C137.99 36.9946 139.151 36.8312 140.998 38.3557ZM125.748 38.9001C127.384 40.2612 128.439 43.3101 127.964 45.3245C127.437 47.5022 125.643 49.2445 123.901 49.2445C121.527 49.2445 120.313 48.3189 119.152 45.6512C118.308 43.5823 118.202 42.929 118.73 41.3501C119.838 37.9201 123.11 36.7768 125.748 38.9001ZM153.082 48.9722C153.927 49.4622 154.876 50.4422 155.14 51.2044C156.248 54.1988 152.818 58.4999 149.336 58.4999C147.436 58.4999 144.587 55.9955 144.587 54.3077C144.587 52.62 146.645 49.7889 148.439 48.9722C150.602 47.9922 151.183 47.9922 153.082 48.9722ZM136.302 56.8122C142.106 60.6777 142.423 68.8443 136.882 72.6553C135.246 73.7442 134.244 74.0164 131.342 74.0164C128.228 74.0164 127.489 73.7987 125.537 72.3831C122.529 70.1509 121.316 68.3543 120.999 65.4143C120.313 59.3166 124.165 55.2333 130.656 55.2333C133.241 55.2333 134.244 55.5055 136.302 56.8122ZM35.408 57.411C36.5162 58.0644 36.7273 60.1332 35.7774 61.1132C35.408 61.4943 34.1416 61.7666 32.8751 61.7666H30.6061V59.3166C30.6061 56.8666 30.6061 56.8666 32.5058 56.8666C33.5084 56.8666 34.8276 57.1388 35.408 57.411ZM36.094 68.6265C38.2576 70.8042 36.4106 73.7442 32.8751 73.7442H30.6061V70.7498V67.7554H32.9279C34.3527 67.7554 35.6191 68.0821 36.094 68.6265Z" fill="white"/>
<path fill-rule="evenodd" clip-rule="evenodd" d="M82.4775 32.4757C79.5752 40.6423 77.2534 47.3389 77.2534 47.3933C77.3062 47.4477 79.5752 47.6111 82.372 47.7744L87.385 48.1011L88.4932 45.4333L89.6013 42.7111H94.1394C98.6248 42.7111 98.6775 42.7111 98.9941 44.1811C99.7857 48.21 99.6801 48.1555 105.379 47.7744C108.229 47.6111 110.603 47.3933 110.709 47.3389C110.814 47.23 109.864 44.5078 106.223 34.5445C105.168 31.7134 103.902 28.1201 103.374 26.6502C102.846 25.1257 101.949 22.5669 101.369 20.9335C100.736 19.3002 100.261 17.8847 100.261 17.8302C100.261 17.7214 97.4638 17.6669 93.9811 17.6669H87.7544L82.4775 32.4757ZM96.2502 34.5445C96.3029 35.5245 96.0919 35.6334 93.4006 35.6334C91.712 35.6334 91.2899 35.4156 91.2899 34.6534C91.2899 33.7823 92.7147 28.9368 93.7173 26.3779C94.0339 25.6702 96.0391 32.2034 96.2502 34.5445Z" fill="white"/>
<path fill-rule="evenodd" clip-rule="evenodd" d="M74.6682 49.6256C73.8239 49.7344 71.6603 50.2244 69.9717 50.7144C65.6975 51.9666 61.2121 56.3766 60.104 60.4055C57.2017 70.8587 63.4284 79.8419 74.1405 80.6586C76.2512 80.8219 78.7841 80.8219 79.8395 80.6042C81.6336 80.2775 81.6864 80.1686 82.2669 76.7931C83.1112 71.8387 83.0584 71.4031 81.7392 71.8387C79.6284 72.5465 74.5626 72.2198 72.874 71.3487C69.3385 69.4431 68.0193 64.4343 70.2884 61.4943C72.5046 58.6088 77.6232 57.1933 81.0532 58.4999C81.8447 58.8266 82.5307 58.9899 82.5835 58.9355C82.7945 58.7177 81.0532 50.4422 80.7366 50.17C80.3144 49.7889 76.4623 49.4622 74.6682 49.6256Z" fill="white"/>
<path fill-rule="evenodd" clip-rule="evenodd" d="M50.0252 50.17L48.02 50.3877V65.6865V80.9852L51.2389 80.6041C53.033 80.4408 55.3021 80.2775 56.2519 80.2775H58.0461V65.0332V49.7889L55.0383 49.8977C53.3497 49.9522 51.0806 50.0611 50.0252 50.17Z" fill="white"/>
<path fill-rule="evenodd" clip-rule="evenodd" d="M84.4302 65.3598V80.9852L87.6491 80.6041C89.4432 80.4408 91.6067 80.2775 92.3983 80.2775H93.9285V74.5608V68.8442H97.3585H100.788V74.8875V80.9852L104.007 80.6041C105.802 80.4408 108.071 80.2775 109.02 80.2775H110.815V65.3054V50.3333H108.598C107.332 50.3333 105.063 50.4966 103.585 50.66L100.788 51.0411V55.8321V60.6776H97.3585H93.9285V55.5599V50.4966L90.393 50.17C88.3878 49.9522 86.2771 49.7889 85.6439 49.7889H84.4302V65.3598Z" fill="white"/>
</svg>
