<svg width="162" height="117" viewBox="0 0 162 117" fill="none" xmlns="http://www.w3.org/2000/svg">
<path fill-rule="evenodd" clip-rule="evenodd" d="M20.0521 16.9594C18.469 17.0683 16.3583 17.2316 15.4085 17.395C13.456 17.7761 13.4032 17.0683 16.0944 26.9226C16.9915 30.3526 18.3107 35.2526 18.944 37.8114C19.63 40.3703 20.4743 43.528 20.8964 44.8891L21.6352 47.3391H27.8091H34.0358L34.9329 43.8003C35.4078 41.8403 36.1466 39.0092 36.5687 37.5392C37.3602 34.7081 39.471 26.8137 40.8958 21.2605C41.3179 19.5183 41.5817 17.9394 41.4234 17.7761C41.2651 17.6127 39.1544 17.3405 36.727 17.1772L32.2944 16.8505L31.4501 20.9338C30.3948 25.9971 29.0756 32.5848 28.6534 34.9259C28.2313 37.5936 27.598 37.1037 26.912 33.5648C26.5954 31.877 25.8567 28.3926 25.329 25.8338C24.7485 23.2749 24.1681 20.1716 24.0098 18.8649C23.7987 17.6127 23.4821 16.6327 23.3238 16.6872C23.1127 16.7416 21.6352 16.8505 20.0521 16.9594Z" fill="#095B33"/>
<path fill-rule="evenodd" clip-rule="evenodd" d="M50.394 16.9594C48.9693 17.0683 46.753 17.2316 45.5393 17.4494L43.2703 17.7216V32.9659V48.1558L47.9139 47.8291C50.4468 47.6113 52.6631 47.2847 52.9269 47.1213C53.138 46.9036 53.2436 39.9892 53.1908 31.7681L53.0325 16.8505L50.394 16.9594Z" fill="#095B33"/>
<path fill-rule="evenodd" clip-rule="evenodd" d="M59.7869 17.0683C57.4123 17.2861 55.3015 17.6127 55.0904 17.8305C54.8794 18.0483 55.1432 19.736 55.6709 21.5871C56.1458 23.4927 57.0429 26.7049 57.5706 28.8282C58.151 30.897 59.0481 34.2181 59.5758 36.1781C60.1035 38.1381 61.0005 41.3503 61.5282 43.3647L62.4781 47.0124L68.7048 47.1758L74.9315 47.3391L75.9341 43.8003C76.4618 41.8403 77.4644 38.1925 78.0976 35.6337C78.7836 33.0748 80.1028 28.1204 81.1054 24.5271C82.108 20.9883 82.7413 17.9394 82.583 17.7761C82.0025 17.1772 73.2429 16.7961 73.0846 17.395C72.8207 18.4294 71.7126 24.5271 70.9211 28.7737C70.4989 31.1693 69.9185 34.1092 69.5491 35.307L68.9686 37.5392L68.0188 33.4559C65.8553 24.146 64.9054 19.3005 64.9054 17.9938C64.9054 17.2316 64.7471 16.6327 64.536 16.6872C64.2722 16.6872 62.1615 16.905 59.7869 17.0683Z" fill="#095B33"/>
<path fill-rule="evenodd" clip-rule="evenodd" d="M9.49835 18.0482C7.28207 18.3749 7.17653 18.4837 5.59347 23.9281C2.37458 34.708 1.89966 38.0291 1.89966 48.4279C1.89966 57.9556 1.95243 58.3912 3.53549 63.6722C10.9759 87.6275 34.2997 100.966 68.7576 100.966C85.5381 100.966 105.643 97.1008 118.307 91.4931C119.257 91.0575 120.999 90.2953 122.16 89.7509C131.183 85.7765 141.842 79.2432 145.483 75.541C147.963 72.9821 149.652 68.2999 149.177 65.5778C148.861 64.1622 148.966 64.0533 151.182 63.8355C153.979 63.5089 156.829 61.7667 158.728 59.1534C159.995 57.4112 160.153 56.8123 160.153 52.729C160.153 48.7001 159.995 48.1012 158.834 46.7946C156.512 44.2357 154.137 43.0924 150.971 42.9291L148.016 42.8202L147.752 40.4247C147.119 35.3614 143.953 32.367 139.204 32.367C136.935 32.367 135.827 32.6936 134.244 33.7825C133.135 34.5992 132.027 35.4703 131.869 35.7425C131.711 36.0147 130.286 35.3069 128.703 34.218C126.064 32.4214 125.642 32.2581 122.634 32.4758C116.883 32.8569 113.453 36.8858 113.453 43.2557C113.453 45.869 113.769 47.1213 114.825 49.0268C115.563 50.3335 116.566 51.6401 117.041 51.9123C117.78 52.3479 117.569 52.7834 115.722 54.8523C111.711 59.3711 111.448 65.7955 115.141 71.6755C116.038 73.1455 117.252 74.6699 117.833 75.1054C119.257 76.1399 118.73 76.7388 113.558 80.2776C103.743 87.0287 91.7648 91.2208 75.9869 93.453C69.4436 94.3786 56.9902 94.3786 50.658 93.3986C42.3205 92.2008 32.4 88.6075 27.2814 85.0142C23.9042 82.6187 22.1628 81.1487 22.1628 80.7132C22.1628 80.4954 26.1733 80.2776 31.028 80.2776C39.1544 80.2776 40.0514 80.1687 42.215 79.0798C45.5394 77.2832 46.5948 75.541 46.5948 71.7844C46.5948 68.7355 46.4892 68.5177 44.3257 66.5577L42.0567 64.4889L43.4286 63.3456C46.4892 60.8956 46.4892 54.8523 43.3759 52.6201C40.9485 50.8234 38.0462 50.3335 29.7088 50.3335H21.6352V65.0333C21.6352 73.091 21.4241 79.7332 21.213 79.7332C20.6853 79.7332 17.4137 75.8132 15.7251 73.1999C8.49575 61.7667 6.43777 46.3046 9.70943 27.4126C10.4482 23.0026 11.2397 19.0282 11.398 18.5382C11.5563 18.0482 11.6619 17.7215 11.5563 17.776C11.4508 17.776 10.501 17.9393 9.49835 18.0482ZM140.998 38.3558C144.111 40.8602 144.006 45.1068 140.84 47.8835C138.676 49.6801 136.935 49.6257 134.982 47.6113C133.505 46.0868 133.399 45.6513 133.663 43.3646C133.874 41.3502 134.296 40.4791 135.827 39.0636C137.99 36.9947 139.151 36.8314 140.998 38.3558ZM125.748 38.9002C127.384 40.2613 128.439 43.3102 127.964 45.3246C127.436 47.5024 125.642 49.2446 123.901 49.2446C121.526 49.2446 120.313 48.319 119.152 45.6513C118.307 43.5824 118.202 42.9291 118.73 41.3502C119.838 37.9202 123.109 36.7769 125.748 38.9002ZM153.082 48.9724C153.926 49.4623 154.876 50.4423 155.14 51.2046C156.248 54.199 152.818 58.5 149.335 58.5C147.436 58.5 144.586 55.9956 144.586 54.3079C144.586 52.6201 146.644 49.789 148.438 48.9724C150.602 47.9924 151.182 47.9924 153.082 48.9724ZM136.302 56.8123C142.106 60.6778 142.423 68.8444 136.882 72.6555C135.246 73.7443 134.244 74.0166 131.341 74.0166C128.228 74.0166 127.489 73.7988 125.537 72.3832C122.529 70.151 121.315 68.3544 120.999 65.4144C120.313 59.3167 124.165 55.2334 130.655 55.2334C133.241 55.2334 134.244 55.5056 136.302 56.8123ZM35.4078 57.4112C36.5159 58.0645 36.727 60.1334 35.7772 61.1133C35.4078 61.4945 34.1413 61.7667 32.8749 61.7667H30.6058V59.3167C30.6058 56.8667 30.6058 56.8667 32.5055 56.8667C33.5081 56.8667 34.8273 57.1389 35.4078 57.4112ZM36.0938 68.6266C38.2573 70.8044 36.4104 73.7443 32.8749 73.7443H30.6058V70.7499V67.7555H32.9277C34.3524 67.7555 35.6189 68.0822 36.0938 68.6266Z" fill="#095B33"/>
<path fill-rule="evenodd" clip-rule="evenodd" d="M82.4775 32.4759C79.5752 40.6425 77.2534 47.3391 77.2534 47.3935C77.3062 47.448 79.5752 47.6113 82.372 47.7747L87.385 48.1013L88.4932 45.4336L89.6013 42.7114H94.1394C98.6248 42.7114 98.6775 42.7114 98.9941 44.1814C99.7857 48.2102 99.6801 48.1558 105.379 47.7747C108.229 47.6113 110.603 47.3935 110.709 47.3391C110.814 47.2302 109.864 44.508 106.223 34.5448C105.168 31.7137 103.902 28.1204 103.374 26.6504C102.846 25.126 101.949 22.5671 101.369 20.9338C100.736 19.3005 100.261 17.8849 100.261 17.8305C100.261 17.7216 97.4638 17.6672 93.9811 17.6672H87.7544L82.4775 32.4759ZM96.2502 34.5448C96.3029 35.5248 96.0919 35.6337 93.4006 35.6337C91.712 35.6337 91.2899 35.4159 91.2899 34.6537C91.2899 33.7826 92.7147 28.9371 93.7173 26.3782C94.0339 25.6704 96.0391 32.2037 96.2502 34.5448Z" fill="#095B33"/>
<path fill-rule="evenodd" clip-rule="evenodd" d="M74.6677 49.6257C73.8234 49.7346 71.6599 50.2246 69.9713 50.7146C65.697 51.9668 61.2116 56.3767 60.1035 60.4056C57.2012 70.8588 63.4279 79.8421 74.14 80.6587C76.2507 80.8221 78.7836 80.8221 79.839 80.6043C81.6331 80.2776 81.6859 80.1687 82.2664 76.7932C83.1107 71.8388 83.0579 71.4033 81.7387 71.8388C79.6279 72.5466 74.5621 72.2199 72.8735 71.3488C69.338 69.4433 68.0188 64.4344 70.2879 61.4945C72.5042 58.6089 77.6227 57.1934 81.0527 58.5C81.8442 58.8267 82.5302 58.99 82.583 58.9356C82.7941 58.7178 81.0527 50.4423 80.7361 50.1701C80.3139 49.789 76.4618 49.4623 74.6677 49.6257Z" fill="#095B33"/>
<path fill-rule="evenodd" clip-rule="evenodd" d="M50.0247 50.1701L48.0195 50.3879V65.6866V80.9854L51.2384 80.6042C53.0326 80.4409 55.3016 80.2776 56.2515 80.2776H58.0456V65.0333V49.789L55.0378 49.8979C53.3492 49.9523 51.0801 50.0612 50.0247 50.1701Z" fill="#095B33"/>
<path fill-rule="evenodd" clip-rule="evenodd" d="M84.4299 65.3599V80.9854L87.6488 80.6042C89.443 80.4409 91.6065 80.2776 92.398 80.2776H93.9283V74.561V68.8444H97.3583H100.788V74.8876V80.9854L104.007 80.6042C105.801 80.4409 108.07 80.2776 109.02 80.2776H110.814V65.3055V50.3334H108.598C107.332 50.3334 105.063 50.4968 103.585 50.6601L100.788 51.0412V55.8323V60.6778H97.3583H93.9283V55.56V50.4968L90.3928 50.1701C88.3876 49.9523 86.2768 49.789 85.6436 49.789H84.4299V65.3599Z" fill="#095B33"/>
</svg>
